BD-Thin.ufo
<glyph name="numbersign" format="2">
  <advance height="2048" width="1349.0"/>
  <unicode hex="0023"/>
  <outline>
    <contour>
      <point x="250.0" y="869.0" type="line" smooth="yes"/>
      <point x="205.0" y="869.0"/>
      <point x="168.0" y="889.0"/>
      <point x="168.0" y="914.0" type="curve" smooth="yes"/>
      <point x="168.0" y="939.0"/>
      <point x="205.0" y="960.0"/>
      <point x="250.0" y="960.0" type="curve" smooth="yes"/>
      <point x="446.0" y="960.0" type="line"/>
      <point x="519.0" y="1345.0" type="line" smooth="yes"/>
      <point x="523.0" y="1367.0"/>
      <point x="559.0" y="1383.0"/>
      <point x="598.0" y="1381.0" type="curve" smooth="yes"/>
      <point x="637.0" y="1378.0"/>
      <point x="665.0" y="1359.0"/>
      <point x="661.0" y="1337.0" type="curve" smooth="yes"/>
      <point x="590.0" y="960.0" type="line"/>
      <point x="852.0" y="960.0" type="line"/>
      <point x="925.0" y="1345.0" type="line" smooth="yes"/>
      <point x="929.0" y="1367.0"/>
      <point x="964.0" y="1383.0"/>
      <point x="1003.0" y="1381.0" type="curve" smooth="yes"/>
      <point x="1042.0" y="1378.0"/>
      <point x="1071.0" y="1359.0"/>
      <point x="1067.0" y="1337.0" type="curve" smooth="yes"/>
      <point x="995.0" y="960.0" type="line"/>
      <point x="1168.0" y="960.0" type="line" smooth="yes"/>
      <point x="1213.0" y="960.0"/>
      <point x="1249.0" y="939.0"/>
      <point x="1249.0" y="914.0" type="curve" smooth="yes"/>
      <point x="1249.0" y="889.0"/>
      <point x="1213.0" y="869.0"/>
      <point x="1168.0" y="869.0" type="curve" smooth="yes"/>
      <point x="978.0" y="869.0" type="line"/>
      <point x="904.0" y="478.0" type="line"/>
      <point x="1099.0" y="478.0" type="line" smooth="yes"/>
      <point x="1144.0" y="478.0"/>
      <point x="1181.0" y="458.0"/>
      <point x="1181.0" y="432.0" type="curve" smooth="yes"/>
      <point x="1181.0" y="407.0"/>
      <point x="1144.0" y="387.0"/>
      <point x="1099.0" y="387.0" type="curve" smooth="yes"/>
      <point x="887.0" y="387.0" type="line"/>
      <point x="816.0" y="12.0" type="line" smooth="yes"/>
      <point x="811.0" y="-10.0"/>
      <point x="776.0" y="-26.0"/>
      <point x="737.0" y="-23.0" type="curve" smooth="yes"/>
      <point x="698.0" y="-21.0"/>
      <point x="670.0" y="-1.0"/>
      <point x="674.0" y="21.0" type="curve" smooth="yes"/>
      <point x="743.0" y="387.0" type="line"/>
      <point x="481.0" y="387.0" type="line"/>
      <point x="410.0" y="12.0" type="line" smooth="yes"/>
      <point x="406.0" y="-10.0"/>
      <point x="371.0" y="-26.0"/>
      <point x="331.0" y="-23.0" type="curve" smooth="yes"/>
      <point x="292.0" y="-21.0"/>
      <point x="264.0" y="-1.0"/>
      <point x="268.0" y="21.0" type="curve" smooth="yes"/>
      <point x="338.0" y="387.0" type="line"/>
      <point x="181.0" y="387.0" type="line" smooth="yes"/>
      <point x="136.0" y="387.0"/>
      <point x="100.0" y="407.0"/>
      <point x="100.0" y="432.0" type="curve" smooth="yes"/>
      <point x="100.0" y="458.0"/>
      <point x="136.0" y="478.0"/>
      <point x="181.0" y="478.0" type="curve" smooth="yes"/>
      <point x="355.0" y="478.0" type="line"/>
      <point x="429.0" y="869.0" type="line"/>
    </contour>
    <contour>
      <point x="498.0" y="478.0" type="line"/>
      <point x="760.0" y="478.0" type="line"/>
      <point x="834.0" y="869.0" type="line"/>
      <point x="572.0" y="869.0" type="line"/>
    </contour>
  </outline>
</glyph>
<glyph name="quotesingle" format="2">
	<unicode hex="0027"/>
	<advance height="2048" width="380"/>
	<outline>
		<contour>
			<point x="191" y="1402" type="curve" smooth="yes"/>
			<point x="147" y="1402"/>
			<point x="97" y="1370"/>
			<point x="100" y="1332" type="curve" smooth="yes"/>
			<point x="129" y="927" type="line" smooth="yes"/>
			<point x="132" y="892"/>
			<point x="160" y="881"/>
			<point x="189" y="881" type="curve" smooth="yes"/>
			<point x="219" y="881"/>
			<point x="248" y="891"/>
			<point x="251" y="927" type="curve" smooth="yes"/>
			<point x="280" y="1332" type="line" smooth="yes"/>
			<point x="283" y="1371"/>
			<point x="234" y="1402"/>
		</contour>
	</outline>
</glyph>
<glyph name="parenleft" format="2">
  <advance height="2048" width="679.0"/>
  <unicode hex="0028"/>
  <outline>
    <contour>
      <point x="569.0" y="-311.0" type="curve" smooth="yes"/>
      <point x="590.0" y="-333.0"/>
      <point x="575.0" y="-361.0"/>
      <point x="536.0" y="-373.0" type="curve" smooth="yes"/>
      <point x="496.0" y="-384.0"/>
      <point x="447.0" y="-376.0"/>
      <point x="426.0" y="-354.0" type="curve" smooth="yes"/>
      <point x="214.0" y="-131.0"/>
      <point x="100.0" y="191.0"/>
      <point x="100.0" y="515.0" type="curve" smooth="yes"/>
      <point x="100.0" y="826.0"/>
      <point x="204.0" y="1141.0"/>
      <point x="426.0" y="1376.0" type="curve" smooth="yes"/>
      <point x="447.0" y="1398.0"/>
      <point x="496.0" y="1406.0"/>
      <point x="535.0" y="1395.0" type="curve" smooth="yes"/>
      <point x="575.0" y="1383.0"/>
      <point x="590.0" y="1356.0"/>
      <point x="569.0" y="1333.0" type="curve" smooth="yes"/>
      <point x="361.0" y="1112.0"/>
      <point x="263.0" y="813.0"/>
      <point x="263.0" y="515.0" type="curve" smooth="yes"/>
      <point x="263.0" y="205.0"/>
      <point x="370.0" y="-101.0"/>
    </contour>
  </outline>
</glyph>
<glyph name="hyphen" format="2">
  <advance height="2048" width="813.0"/>
  <unicode hex="002D"/>
  <outline>
    <contour>
      <point x="182.0" y="450.0" type="line" smooth="yes"/>
      <point x="136.0" y="450.0"/>
      <point x="100.0" y="470.0"/>
      <point x="100.0" y="495.0" type="curve" smooth="yes"/>
      <point x="100.0" y="521.0"/>
      <point x="136.0" y="541.0"/>
      <point x="182.0" y="541.0" type="curve" smooth="yes"/>
      <point x="632.0" y="541.0" type="line" smooth="yes"/>
      <point x="677.0" y="541.0"/>
      <point x="713.0" y="521.0"/>
      <point x="713.0" y="495.0" type="curve" smooth="yes"/>
      <point x="713.0" y="470.0"/>
      <point x="677.0" y="450.0"/>
      <point x="632.0" y="450.0" type="curve" smooth="yes"/>
    </contour>
  </outline>
</glyph>
<glyph name="one" format="2">
	<unicode hex="0031"/>
	<advance height="2048" width="617"/>
	<outline>
		<contour>
			<point x="152" y="955" type="curve" smooth="yes"/>
			<point x="108" y="948"/>
			<point x="64" y="963"/>
			<point x="53" y="987" type="curve" smooth="yes"/>
			<point x="41" y="1011"/>
			<point x="67" y="1036"/>
			<point x="111" y="1043" type="curve" smooth="yes"/>
			<point x="160" y="1050"/>
			<point x="215" y="1078"/>
			<point x="261" y="1129" type="curve" smooth="yes"/>
			<point x="306" y="1178"/>
			<point x="340" y="1246"/>
			<point x="352" y="1335" type="curve" smooth="yes"/>
			<point x="357" y="1370"/>
			<point x="407" y="1382"/>
			<point x="435" y="1382" type="curve" smooth="yes"/>
			<point x="481" y="1382"/>
			<point x="517" y="1361"/>
			<point x="517" y="1336" type="curve" smooth="yes"/>
			<point x="517" y="24" type="line" smooth="yes"/>
			<point x="517" y="-2"/>
			<point x="481" y="-23"/>
			<point x="435" y="-23" type="curve" smooth="yes"/>
			<point x="390" y="-23"/>
			<point x="354" y="-2"/>
			<point x="354" y="24" type="curve" smooth="yes"/>
			<point x="354" y="1040" type="line"/>
			<point x="293" y="993"/>
			<point x="221" y="965"/>
		</contour>
	</outline>
</glyph>
<glyph name="three" format="2">
  <advance height="2048" width="1109.0"/>
  <unicode hex="0033"/>
  <outline>
    <contour>
      <point x="264.0" y="978.0" type="curve" smooth="yes"/>
      <point x="265.0" y="953.0"/>
      <point x="230.0" y="932.0"/>
      <point x="185.0" y="931.0" type="curve" smooth="yes"/>
      <point x="140.0" y="930.0"/>
      <point x="103.0" y="950.0"/>
      <point x="101.0" y="975.0" type="curve" smooth="yes"/>
      <point x="87.0" y="1236.0"/>
      <point x="289.0" y="1377.0"/>
      <point x="525.0" y="1381.0" type="curve" smooth="yes"/>
      <point x="760.0" y="1384.0"/>
      <point x="970.0" y="1252.0"/>
      <point x="971.0" y="1014.0" type="curve" smooth="yes"/>
      <point x="972.0" y="880.0"/>
      <point x="892.0" y="773.0"/>
      <point x="774.0" y="716.0" type="curve"/>
      <point x="910.0" y="660.0"/>
      <point x="1000.0" y="541.0"/>
      <point x="1008.0" y="394.0" type="curve" smooth="yes"/>
      <point x="1023.0" y="137.0"/>
      <point x="814.0" y="-23.0"/>
      <point x="569.0" y="-23.0" type="curve" smooth="yes"/>
      <point x="324.0" y="-23.0"/>
      <point x="100.0" y="103.0"/>
      <point x="100.0" y="371.0" type="curve" smooth="yes"/>
      <point x="100.0" y="396.0"/>
      <point x="136.0" y="416.0"/>
      <point x="181.0" y="416.0" type="curve" smooth="yes"/>
      <point x="226.0" y="416.0"/>
      <point x="263.0" y="396.0"/>
      <point x="263.0" y="371.0" type="curve" smooth="yes"/>
      <point x="263.0" y="184.0"/>
      <point x="388.0" y="68.0"/>
      <point x="569.0" y="68.0" type="curve" smooth="yes"/>
      <point x="750.0" y="68.0"/>
      <point x="856.0" y="225.0"/>
      <point x="846.0" y="391.0" type="curve" smooth="yes"/>
      <point x="839.0" y="517.0"/>
      <point x="763.0" y="622.0"/>
      <point x="637.0" y="653.0" type="curve" smooth="yes"/>
      <point x="586.0" y="666.0"/>
      <point x="553.0" y="660.0"/>
      <point x="502.0" y="660.0" type="curve" smooth="yes"/>
      <point x="457.0" y="660.0"/>
      <point x="421.0" y="681.0"/>
      <point x="421.0" y="706.0" type="curve" smooth="yes"/>
      <point x="421.0" y="730.0"/>
      <point x="455.0" y="749.0"/>
      <point x="498.0" y="752.0" type="curve" smooth="yes"/>
      <point x="547.0" y="754.0"/>
      <point x="580.0" y="754.0"/>
      <point x="629.0" y="770.0" type="curve" smooth="yes"/>
      <point x="738.0" y="807.0"/>
      <point x="809.0" y="898.0"/>
      <point x="809.0" y="1014.0" type="curve" smooth="yes"/>
      <point x="808.0" y="1171.0"/>
      <point x="692.0" y="1289.0"/>
      <point x="525.0" y="1290.0" type="curve" smooth="yes"/>
      <point x="357.0" y="1291.0"/>
      <point x="254.0" y="1145.0"/>
    </contour>
  </outline>
</glyph>
<glyph name="eight" format="2">
	<unicode hex="0038"/>
	<advance height="2048" width="1149"/>
	<outline>
		<contour>
			<point x="1011" y="1023" type="curve" smooth="yes"/>
			<point x="1011" y="870"/>
			<point x="921" y="767"/>
			<point x="801" y="712" type="curve"/>
			<point x="942" y="655"/>
			<point x="1049" y="540"/>
			<point x="1049" y="365" type="curve" smooth="yes"/>
			<point x="1049" y="103"/>
			<point x="807" y="-24"/>
			<point x="575" y="-24" type="curve" smooth="yes"/>
			<point x="342" y="-24"/>
			<point x="100" y="103"/>
			<point x="100" y="365" type="curve" smooth="yes"/>
			<point x="100" y="540"/>
			<point x="207" y="655"/>
			<point x="348" y="712" type="curve"/>
			<point x="228" y="767"/>
			<point x="138" y="870"/>
			<point x="138" y="1023" type="curve" smooth="yes"/>
			<point x="138" y="1264"/>
			<point x="360" y="1381"/>
			<point x="575" y="1381" type="curve" smooth="yes"/>
			<point x="789" y="1381"/>
			<point x="1011" y="1264"/>
		</contour>
		<contour>
			<point x="886" y="365" type="curve" smooth="yes"/>
			<point x="886" y="548"/>
			<point x="748" y="663"/>
			<point x="575" y="663" type="curve" smooth="yes"/>
			<point x="401" y="663"/>
			<point x="263" y="548"/>
			<point x="263" y="365" type="curve" smooth="yes"/>
			<point x="263" y="183"/>
			<point x="401" y="67"/>
			<point x="575" y="67" type="curve" smooth="yes"/>
			<point x="748" y="67"/>
			<point x="886" y="183"/>
		</contour>
		<contour>
			<point x="848" y="1023" type="curve" smooth="yes"/>
			<point x="848" y="1184"/>
			<point x="729" y="1290"/>
			<point x="575" y="1290" type="curve" smooth="yes"/>
			<point x="420" y="1290"/>
			<point x="301" y="1184"/>
			<point x="301" y="1023" type="curve" smooth="yes"/>
			<point x="301" y="862"/>
			<point x="420" y="756"/>
			<point x="575" y="756" type="curve" smooth="yes"/>
			<point x="729" y="756"/>
			<point x="848" y="862"/>
		</contour>
	</outline>
</glyph>
<glyph name="question" format="2">
	<unicode hex="003F"/>
	<advance height="2048" width="1096"/>
	<outline>
		<contour>
			<point x="262" y="985" type="curve" smooth="yes"/>
			<point x="262" y="960"/>
			<point x="226" y="939"/>
			<point x="181" y="939" type="curve" smooth="yes"/>
			<point x="136" y="939"/>
			<point x="100" y="960"/>
			<point x="100" y="985" type="curve" smooth="yes"/>
			<point x="100" y="1075"/>
			<point x="127" y="1166"/>
			<point x="186" y="1236" type="curve" smooth="yes"/>
			<point x="256" y="1320"/>
			<point x="372" y="1381"/>
			<point x="557" y="1381" type="curve" smooth="yes"/>
			<point x="776" y="1381"/>
			<point x="996" y="1251"/>
			<point x="996" y="1013" type="curve" smooth="yes"/>
			<point x="996" y="861"/>
			<point x="912" y="760"/>
			<point x="807" y="663" type="curve" smooth="yes"/>
			<point x="748" y="608"/>
			<point x="689" y="554"/>
			<point x="656" y="499" type="curve" smooth="yes"/>
			<point x="635" y="464"/>
			<point x="616" y="413"/>
			<point x="624" y="282" type="curve" smooth="yes"/>
			<point x="625" y="257"/>
			<point x="590" y="236"/>
			<point x="545" y="235" type="curve" smooth="yes"/>
			<point x="500" y="234"/>
			<point x="463" y="254"/>
			<point x="461" y="279" type="curve" smooth="yes"/>
			<point x="452" y="430"/>
			<point x="477" y="489"/>
			<point x="504" y="532" type="curve" smooth="yes"/>
			<point x="538" y="587"/>
			<point x="604" y="650"/>
			<point x="668" y="710" type="curve" smooth="yes"/>
			<point x="759" y="794"/>
			<point x="833" y="881"/>
			<point x="834" y="1013" type="curve" smooth="yes"/>
			<point x="834" y="1168"/>
			<point x="712" y="1290"/>
			<point x="557" y="1290" type="curve" smooth="yes"/>
			<point x="471" y="1290"/>
			<point x="389" y="1266"/>
			<point x="333" y="1198" type="curve" smooth="yes"/>
			<point x="284" y="1139"/>
			<point x="262" y="1061"/>
		</contour>
		<contour>
			<point x="541" y="156" type="curve" smooth="yes"/>
			<point x="591" y="156"/>
			<point x="631" y="116"/>
			<point x="631" y="66" type="curve" smooth="yes"/>
			<point x="631" y="16"/>
			<point x="591" y="-24"/>
			<point x="541" y="-24" type="curve" smooth="yes"/>
			<point x="491" y="-24"/>
			<point x="451" y="16"/>
			<point x="451" y="66" type="curve" smooth="yes"/>
			<point x="451" y="116"/>
			<point x="491" y="156"/>
		</contour>
	</outline>
</glyph>
<glyph name="A" format="2">
	<unicode hex="0041"/>
	<advance height="2048" width="1423"/>
	<outline>
		<contour>
			<point x="619" y="1348" type="line" smooth="yes"/>
			<point x="628" y="1368"/>
			<point x="668" y="1380"/>
			<point x="708" y="1381" type="curve" smooth="yes"/>
			<point x="748" y="1382"/>
			<point x="788" y="1371"/>
			<point x="799" y="1346" type="curve" smooth="yes"/>
			<point x="1371" y="30" type="line" smooth="yes"/>
			<point x="1381" y="6"/>
			<point x="1350" y="-18"/>
			<point x="1302" y="-23" type="curve" smooth="yes"/>
			<point x="1253" y="-28"/>
			<point x="1206" y="-13"/>
			<point x="1195" y="11" type="curve" smooth="yes"/>
			<point x="1008" y="441" type="line"/>
			<point x="355" y="441" type="line"/>
			<point x="167" y="-1" type="line" smooth="yes"/>
			<point x="160" y="-17"/>
			<point x="129" y="-27"/>
			<point x="97" y="-23" type="curve" smooth="yes"/>
			<point x="65" y="-20"/>
			<point x="45" y="-4"/>
			<point x="51" y="12" type="curve" smooth="yes"/>
		</contour>
		<contour>
			<point x="969" y="532" type="line"/>
			<point x="678" y="1202" type="line"/>
			<point x="393" y="532" type="line"/>
		</contour>
	</outline>
</glyph>
<glyph name="E" format="2">
	<unicode hex="0045"/>
	<advance height="2048" width="1269"/>
	<outline>
		<contour>
			<point x="130" y="14" type="curve" smooth="yes"/>
			<point x="112" y="24"/>
			<point x="100" y="35"/>
			<point x="100" y="49" type="curve" smooth="yes"/>
			<point x="100" y="1308" type="line" smooth="yes"/>
			<point x="100" y="1322"/>
			<point x="113" y="1334"/>
			<point x="131" y="1343" type="curve" smooth="yes"/>
			<point x="146" y="1351"/>
			<point x="166" y="1357"/>
			<point x="189" y="1357" type="curve" smooth="yes"/>
			<point x="1087" y="1357" type="line" smooth="yes"/>
			<point x="1132" y="1357"/>
			<point x="1169" y="1337"/>
			<point x="1169" y="1311" type="curve" smooth="yes"/>
			<point x="1169" y="1286"/>
			<point x="1132" y="1266"/>
			<point x="1087" y="1266" type="curve" smooth="yes"/>
			<point x="263" y="1266" type="line"/>
			<point x="263" y="725" type="line"/>
			<point x="960" y="725" type="line" smooth="yes"/>
			<point x="1005" y="725"/>
			<point x="1041" y="704"/>
			<point x="1041" y="679" type="curve" smooth="yes"/>
			<point x="1041" y="654"/>
			<point x="1005" y="634"/>
			<point x="960" y="634" type="curve" smooth="yes"/>
			<point x="263" y="634" type="line"/>
			<point x="263" y="91" type="line"/>
			<point x="1087" y="91" type="line" smooth="yes"/>
			<point x="1132" y="91"/>
			<point x="1169" y="71"/>
			<point x="1169" y="46" type="curve" smooth="yes"/>
			<point x="1169" y="20"/>
			<point x="1132" y="0"/>
			<point x="1087" y="0" type="curve" smooth="yes"/>
			<point x="189" y="0" type="line" smooth="yes"/>
			<point x="166" y="0"/>
			<point x="145" y="6"/>
		</contour>
	</outline>
</glyph>
<glyph name="K" format="2">
	<unicode hex="004B"/>
	<advance height="2048" width="1252"/>
	<outline>
		<contour>
			<point x="100" y="1340" type="line" smooth="yes"/>
			<point x="100" y="1363"/>
			<point x="136" y="1381"/>
			<point x="181" y="1381" type="curve" smooth="yes"/>
			<point x="226" y="1381"/>
			<point x="263" y="1363"/>
			<point x="263" y="1340" type="curve" smooth="yes"/>
			<point x="263" y="612" type="line"/>
			<point x="1069" y="1363" type="line" smooth="yes"/>
			<point x="1087" y="1380"/>
			<point x="1129" y="1386"/>
			<point x="1163" y="1377" type="curve" smooth="yes"/>
			<point x="1197" y="1368"/>
			<point x="1210" y="1347"/>
			<point x="1192" y="1330" type="curve" smooth="yes"/>
			<point x="632" y="808" type="line"/>
			<point x="1196" y="43" type="line" smooth="yes"/>
			<point x="1215" y="17"/>
			<point x="1188" y="-12"/>
			<point x="1137" y="-21" type="curve" smooth="yes"/>
			<point x="1085" y="-31"/>
			<point x="1028" y="-17"/>
			<point x="1009" y="9" type="curve" smooth="yes"/>
			<point x="505" y="690" type="line"/>
			<point x="263" y="464" type="line"/>
			<point x="263" y="17" type="line" smooth="yes"/>
			<point x="263" y="-6"/>
			<point x="226" y="-24"/>
			<point x="181" y="-24" type="curve" smooth="yes"/>
			<point x="136" y="-24"/>
			<point x="100" y="-6"/>
			<point x="100" y="17" type="curve" smooth="yes"/>
		</contour>
	</outline>
</glyph>
<glyph name="L" format="2">
	<unicode hex="004C"/>
	<advance height="2048" width="1084"/>
	<outline>
		<contour>
			<point x="100" y="1336" type="line" smooth="yes"/>
			<point x="100" y="1361"/>
			<point x="137" y="1381"/>
			<point x="182" y="1381" type="curve" smooth="yes"/>
			<point x="227" y="1381"/>
			<point x="263" y="1361"/>
			<point x="263" y="1336" type="curve" smooth="yes"/>
			<point x="263" y="91" type="line"/>
			<point x="952" y="91" type="line" smooth="yes"/>
			<point x="997" y="91"/>
			<point x="1034" y="71"/>
			<point x="1034" y="46" type="curve" smooth="yes"/>
			<point x="1034" y="20"/>
			<point x="997" y="0"/>
			<point x="952" y="0" type="curve" smooth="yes"/>
			<point x="182" y="0" type="line" smooth="yes"/>
			<point x="137" y="0"/>
			<point x="100" y="20"/>
			<point x="100" y="45" type="curve" smooth="yes"/>
		</contour>
	</outline>
</glyph>
<glyph name="N" format="2">
  <advance height="2048" width="1358.0"/>
  <unicode hex="004E"/>
  <outline>
    <contour>
      <point x="1157.0" y="-24.0" type="curve" smooth="yes"/>
      <point x="1117.0" y="-24.0"/>
      <point x="1080.0" y="-12.0"/>
      <point x="1066.0" y="8.0" type="curve" smooth="yes"/>
      <point x="218.0" y="1165.0" type="line"/>
      <point x="218.0" y="7.0" type="line" smooth="yes"/>
      <point x="218.0" y="-10.0"/>
      <point x="192.0" y="-24.0"/>
      <point x="159.0" y="-24.0" type="curve" smooth="yes"/>
      <point x="127.0" y="-24.0"/>
      <point x="100.0" y="-10.0"/>
      <point x="100.0" y="7.0" type="curve" smooth="yes"/>
      <point x="100.0" y="1325.0" type="line" smooth="yes"/>
      <point x="100.0" y="1369.0"/>
      <point x="165.0" y="1381.0"/>
      <point x="200.0" y="1381.0" type="curve" smooth="yes"/>
      <point x="240.0" y="1381.0"/>
      <point x="277.0" y="1369.0"/>
      <point x="292.0" y="1349.0" type="curve" smooth="yes"/>
      <point x="1140.0" y="192.0" type="line"/>
      <point x="1140.0" y="1349.0" type="line" smooth="yes"/>
      <point x="1140.0" y="1366.0"/>
      <point x="1166.0" y="1381.0"/>
      <point x="1199.0" y="1381.0" type="curve" smooth="yes"/>
      <point x="1231.0" y="1381.0"/>
      <point x="1258.0" y="1366.0"/>
      <point x="1258.0" y="1349.0" type="curve" smooth="yes"/>
      <point x="1258.0" y="30.0" type="line" smooth="yes"/>
      <point x="1258.0" y="-11.0"/>
      <point x="1190.0" y="-24.0"/>
    </contour>
  </outline>
</glyph>
<glyph name="O" format="2">
	<unicode hex="004F"/>
	<advance height="2048" width="1546"/>
	<outline>
		<contour>
			<point x="773" y="1381" type="curve" smooth="yes"/>
			<point x="1188" y="1381"/>
			<point x="1446" y="1074"/>
			<point x="1446" y="679" type="curve" smooth="yes"/>
			<point x="1446" y="283"/>
			<point x="1188" y="-24"/>
			<point x="773" y="-24" type="curve" smooth="yes"/>
			<point x="358" y="-24"/>
			<point x="100" y="283"/>
			<point x="100" y="679" type="curve" smooth="yes"/>
			<point x="100" y="1074"/>
			<point x="358" y="1381"/>
		</contour>
		<contour>
			<point x="773" y="1290" type="curve" smooth="yes"/>
			<point x="437" y="1290"/>
			<point x="263" y="980"/>
			<point x="263" y="679" type="curve" smooth="yes"/>
			<point x="263" y="377"/>
			<point x="437" y="67"/>
			<point x="773" y="67" type="curve" smooth="yes"/>
			<point x="1109" y="67"/>
			<point x="1283" y="377"/>
			<point x="1283" y="679" type="curve" smooth="yes"/>
			<point x="1283" y="980"/>
			<point x="1109" y="1290"/>
		</contour>
	</outline>
</glyph>
<glyph name="R" format="2">
  <advance height="2048" width="1393.0"/>
  <unicode hex="0052"/>
  <outline>
    <contour>
      <point x="263.0" y="22.0" type="line" smooth="yes"/>
      <point x="263.0" y="-3.0"/>
      <point x="226.0" y="-24.0"/>
      <point x="181.0" y="-24.0" type="curve" smooth="yes"/>
      <point x="136.0" y="-24.0"/>
      <point x="100.0" y="-3.0"/>
      <point x="100.0" y="22.0" type="curve" smooth="yes"/>
      <point x="100.0" y="452.0"/>
      <point x="100.0" y="881.0"/>
      <point x="100.0" y="1311.0" type="curve" smooth="yes"/>
      <point x="100.0" y="1336.0"/>
      <point x="136.0" y="1357.0"/>
      <point x="181.0" y="1357.0" type="curve" smooth="yes"/>
      <point x="800.0" y="1357.0" type="line" smooth="yes"/>
      <point x="1010.0" y="1357.0"/>
      <point x="1221.0" y="1216.0"/>
      <point x="1221.0" y="991.0" type="curve" smooth="yes"/>
      <point x="1221.0" y="796.0"/>
      <point x="1057.0" y="657.0"/>
      <point x="874.0" y="630.0" type="curve"/>
      <point x="954.0" y="563.0"/>
      <point x="999.0" y="464.0"/>
      <point x="1045.0" y="360.0" type="curve" smooth="yes"/>
      <point x="1100.0" y="238.0"/>
      <point x="1156.0" y="112.0"/>
      <point x="1266.0" y="56.0" type="curve" smooth="yes"/>
      <point x="1300.0" y="39.0"/>
      <point x="1302.0" y="10.0"/>
      <point x="1272.0" y="-8.0" type="curve" smooth="yes"/>
      <point x="1242.0" y="-27.0"/>
      <point x="1191.0" y="-28.0"/>
      <point x="1158.0" y="-12.0" type="curve" smooth="yes"/>
      <point x="1010.0" y="64.0"/>
      <point x="948.0" y="203.0"/>
      <point x="887.0" y="339.0" type="curve" smooth="yes"/>
      <point x="823.0" y="483.0"/>
      <point x="762.0" y="625.0"/>
      <point x="622.0" y="625.0" type="curve" smooth="yes"/>
      <point x="263.0" y="625.0" type="line"/>
    </contour>
    <contour>
      <point x="263.0" y="1266.0" type="line"/>
      <point x="263.0" y="716.0" type="line"/>
      <point x="800.0" y="716.0" type="line" smooth="yes"/>
      <point x="944.0" y="716.0"/>
      <point x="1058.0" y="851.0"/>
      <point x="1058.0" y="991.0" type="curve" smooth="yes"/>
      <point x="1058.0" y="1131.0"/>
      <point x="944.0" y="1266.0"/>
      <point x="800.0" y="1266.0" type="curve" smooth="yes"/>
    </contour>
  </outline>
</glyph>
<glyph name="T" format="2">
	<unicode hex="0054"/>
	<advance height="2048" width="1275"/>
	<outline>
		<contour>
			<point x="719" y="33" type="line" smooth="yes"/>
			<point x="719" y="8"/>
			<point x="683" y="-12"/>
			<point x="638" y="-12" type="curve" smooth="yes"/>
			<point x="592" y="-12"/>
			<point x="556" y="8"/>
			<point x="556" y="33" type="curve" smooth="yes"/>
			<point x="556" y="1278" type="line"/>
			<point x="131" y="1278" type="line" smooth="yes"/>
			<point x="86" y="1278"/>
			<point x="50" y="1298"/>
			<point x="50" y="1324" type="curve" smooth="yes"/>
			<point x="50" y="1349"/>
			<point x="86" y="1369"/>
			<point x="131" y="1369" type="curve" smooth="yes"/>
			<point x="1144" y="1369" type="line" smooth="yes"/>
			<point x="1189" y="1369"/>
			<point x="1225" y="1349"/>
			<point x="1225" y="1324" type="curve" smooth="yes"/>
			<point x="1225" y="1298"/>
			<point x="1189" y="1278"/>
			<point x="1144" y="1278" type="curve" smooth="yes"/>
			<point x="719" y="1278" type="line"/>
		</contour>
	</outline>
</glyph>
<glyph name="Y" format="2">
  <advance height="2048" width="1305.0"/>
  <unicode hex="0059"/>
  <outline>
    <contour>
      <point x="734.0" y="21.0" type="line" smooth="yes"/>
      <point x="734.0" y="-4.0"/>
      <point x="698.0" y="-24.0"/>
      <point x="653.0" y="-24.0" type="curve" smooth="yes"/>
      <point x="608.0" y="-24.0"/>
      <point x="571.0" y="-4.0"/>
      <point x="571.0" y="21.0" type="curve" smooth="yes"/>
      <point x="571.0" y="644.0" type="line"/>
      <point x="56.0" y="1320.0" type="line" smooth="yes"/>
      <point x="26.0" y="1361.0"/>
      <point x="107.0" y="1381.0"/>
      <point x="138.0" y="1381.0" type="curve" smooth="yes"/>
      <point x="176.0" y="1381.0"/>
      <point x="211.0" y="1370.0"/>
      <point x="225.0" y="1352.0" type="curve" smooth="yes"/>
      <point x="680.0" y="754.0" type="line"/>
      <point x="1131.0" y="1360.0" type="line" smooth="yes"/>
      <point x="1147.0" y="1380.0"/>
      <point x="1189.0" y="1383.0"/>
      <point x="1213.0" y="1379.0" type="curve" smooth="yes"/>
      <point x="1247.0" y="1373.0"/>
      <point x="1264.0" y="1354.0"/>
      <point x="1251.0" y="1338.0" type="curve" smooth="yes"/>
      <point x="734.0" y="643.0" type="line"/>
    </contour>
  </outline>
</glyph>
<glyph name="grave" format="2">
	<unicode hex="0060"/>
	<advance height="2048" width="489"/>
	<outline>
		<contour>
			<point x="23" y="1399" type="curve" smooth="yes"/>
			<point x="-4" y="1367"/>
			<point x="-10" y="1312"/>
			<point x="19" y="1291" type="curve" smooth="yes"/>
			<point x="400" y="1009" type="line" smooth="yes"/>
			<point x="428" y="989"/>
			<point x="452" y="1004"/>
			<point x="470" y="1025" type="curve" smooth="yes"/>
			<point x="489" y="1047"/>
			<point x="499" y="1074"/>
			<point x="474" y="1098" type="curve" smooth="yes"/>
			<point x="128" y="1422" type="line" smooth="yes"/>
			<point x="101" y="1447"/>
			<point x="49" y="1431"/>
		</contour>
	</outline>
</glyph>
<glyph name="a" format="2">
  <advance height="2048" width="1206.0"/>
  <unicode hex="0061"/>
  <outline>
    <contour>
      <point x="292.0" y="712.0" type="curve"/>
      <point x="292.0" y="687.0"/>
      <point x="256.0" y="666.0"/>
      <point x="211.0" y="666.0" type="curve" smooth="yes"/>
      <point x="166.0" y="666.0"/>
      <point x="130.0" y="687.0"/>
      <point x="130.0" y="712.0" type="curve" smooth="yes"/>
      <point x="131.0" y="788.0"/>
      <point x="182.0" y="863.0"/>
      <point x="260.0" y="915.0" type="curve" smooth="yes"/>
      <point x="343.0" y="970.0"/>
      <point x="457.0" y="1001.0"/>
      <point x="576.0" y="1000.0" type="curve" smooth="yes"/>
      <point x="781.0" y="999.0"/>
      <point x="1013.0" y="904.0"/>
      <point x="1013.0" y="667.0" type="curve" smooth="yes"/>
      <point x="1013.0" y="228.0" type="line" smooth="yes"/>
      <point x="1013.0" y="163.0"/>
      <point x="1021.0" y="90.0"/>
      <point x="1084.0" y="53.0" type="curve" smooth="yes"/>
      <point x="1114.0" y="35.0"/>
      <point x="1113.0" y="6.0"/>
      <point x="1081.0" y="-11.0" type="curve" smooth="yes"/>
      <point x="1048.0" y="-29.0"/>
      <point x="997.0" y="-28.0"/>
      <point x="966.0" y="-10.0" type="curve" smooth="yes"/>
      <point x="913.0" y="21.0"/>
      <point x="885.0" y="62.0"/>
      <point x="870.0" y="103.0" type="curve"/>
      <point x="771.0" y="17.0"/>
      <point x="624.0" y="-24.0"/>
      <point x="498.0" y="-24.0" type="curve" smooth="yes"/>
      <point x="308.0" y="-24.0"/>
      <point x="80.0" y="63.0"/>
      <point x="101.0" y="291.0" type="curve" smooth="yes"/>
      <point x="124.0" y="540.0"/>
      <point x="405.0" y="542.0"/>
      <point x="594.0" y="535.0" type="curve" smooth="yes"/>
      <point x="692.0" y="532.0"/>
      <point x="790.0" y="528.0"/>
      <point x="850.0" y="566.0" type="curve"/>
      <point x="850.0" y="667.0" type="line" smooth="yes"/>
      <point x="850.0" y="827.0"/>
      <point x="723.0" y="908.0"/>
      <point x="575.0" y="909.0" type="curve" smooth="yes"/>
      <point x="506.0" y="910.0"/>
      <point x="437.0" y="891.0"/>
      <point x="384.0" y="856.0" type="curve" smooth="yes"/>
      <point x="329.0" y="820.0"/>
      <point x="293.0" y="766.0"/>
    </contour>
    <contour>
      <point x="850.0" y="342.0" type="curve" smooth="yes"/>
      <point x="850.0" y="456.0" type="line"/>
      <point x="767.0" y="438.0"/>
      <point x="676.0" y="441.0"/>
      <point x="584.0" y="444.0" type="curve" smooth="yes"/>
      <point x="450.0" y="449.0"/>
      <point x="280.0" y="464.0"/>
      <point x="264.0" y="286.0" type="curve" smooth="yes"/>
      <point x="250.0" y="138.0"/>
      <point x="363.0" y="67.0"/>
      <point x="498.0" y="67.0" type="curve" smooth="yes"/>
      <point x="655.0" y="67.0"/>
      <point x="850.0" y="164.0"/>
    </contour>
  </outline>
</glyph>
<glyph name="f" format="2">
	<unicode hex="0066"/>
	<advance height="2048" width="816"/>
	<outline>
		<contour>
			<point x="131" y="910" type="line" smooth="yes"/>
			<point x="86" y="910"/>
			<point x="50" y="930"/>
			<point x="50" y="955" type="curve" smooth="yes"/>
			<point x="50" y="981"/>
			<point x="86" y="1001"/>
			<point x="131" y="1001" type="curve" smooth="yes"/>
			<point x="260" y="1001" type="line"/>
			<point x="260" y="1112" type="line" smooth="yes"/>
			<point x="260" y="1305"/>
			<point x="402" y="1380"/>
			<point x="576" y="1381" type="curve" smooth="yes"/>
			<point x="618" y="1381"/>
			<point x="658" y="1377"/>
			<point x="696" y="1370" type="curve" smooth="yes"/>
			<point x="723" y="1365"/>
			<point x="785" y="1347"/>
			<point x="761" y="1309" type="curve" smooth="yes"/>
			<point x="746" y="1285"/>
			<point x="699" y="1273"/>
			<point x="657" y="1281" type="curve" smooth="yes"/>
			<point x="633" y="1286"/>
			<point x="604" y="1290"/>
			<point x="576" y="1290" type="curve" smooth="yes"/>
			<point x="466" y="1289"/>
			<point x="423" y="1217"/>
			<point x="423" y="1112" type="curve" smooth="yes"/>
			<point x="423" y="1001" type="line"/>
			<point x="614" y="1001" type="line" smooth="yes"/>
			<point x="659" y="1001"/>
			<point x="696" y="981"/>
			<point x="696" y="955" type="curve" smooth="yes"/>
			<point x="696" y="930"/>
			<point x="659" y="910"/>
			<point x="614" y="910" type="curve" smooth="yes"/>
			<point x="423" y="910" type="line"/>
			<point x="423" y="22" type="line" smooth="yes"/>
			<point x="423" y="-4"/>
			<point x="387" y="-24"/>
			<point x="342" y="-24" type="curve" smooth="yes"/>
			<point x="297" y="-24"/>
			<point x="260" y="-4"/>
			<point x="260" y="22" type="curve" smooth="yes"/>
			<point x="260" y="910" type="line"/>
		</contour>
	</outline>
</glyph>
<glyph name="i" format="2">
  <advance height="2048" width="385.0"/>
  <unicode hex="0069"/>
  <outline>
    <contour>
      <point x="193.0" y="1293.0" type="curve" smooth="yes"/>
      <point x="244.0" y="1293.0"/>
      <point x="285.0" y="1253.0"/>
      <point x="285.0" y="1203.0" type="curve" smooth="yes"/>
      <point x="285.0" y="1153.0"/>
      <point x="244.0" y="1113.0"/>
      <point x="193.0" y="1113.0" type="curve" smooth="yes"/>
      <point x="141.0" y="1113.0"/>
      <point x="100.0" y="1153.0"/>
      <point x="100.0" y="1203.0" type="curve" smooth="yes"/>
      <point x="100.0" y="1253.0"/>
      <point x="141.0" y="1293.0"/>
    </contour>
    <contour>
      <point x="111.0" y="955.0" type="line" smooth="yes"/>
      <point x="111.0" y="980.0"/>
      <point x="148.0" y="1001.0"/>
      <point x="193.0" y="1001.0" type="curve" smooth="yes"/>
      <point x="237.0" y="1001.0"/>
      <point x="274.0" y="980.0"/>
      <point x="274.0" y="955.0" type="curve" smooth="yes"/>
      <point x="274.0" y="22.0" type="line" smooth="yes"/>
      <point x="274.0" y="-3.0"/>
      <point x="237.0" y="-23.0"/>
      <point x="193.0" y="-23.0" type="curve" smooth="yes"/>
      <point x="148.0" y="-23.0"/>
      <point x="111.0" y="-3.0"/>
      <point x="111.0" y="22.0" type="curve" smooth="yes"/>
    </contour>
  </outline>
</glyph>
<glyph name="l" format="2">
  <advance height="2048" width="363.0"/>
  <unicode hex="006C"/>
  <outline>
    <contour>
      <point x="100.0" y="1336.0" type="line" smooth="yes"/>
      <point x="100.0" y="1361.0"/>
      <point x="136.0" y="1381.0"/>
      <point x="182.0" y="1381.0" type="curve" smooth="yes"/>
      <point x="227.0" y="1381.0"/>
      <point x="263.0" y="1361.0"/>
      <point x="263.0" y="1336.0" type="curve" smooth="yes"/>
      <point x="263.0" y="21.0" type="line" smooth="yes"/>
      <point x="263.0" y="-4.0"/>
      <point x="227.0" y="-24.0"/>
      <point x="182.0" y="-24.0" type="curve" smooth="yes"/>
      <point x="136.0" y="-24.0"/>
      <point x="100.0" y="-4.0"/>
      <point x="100.0" y="21.0" type="curve" smooth="yes"/>
    </contour>
  </outline>
</glyph>
<glyph name="m" format="2">
	<unicode hex="006D"/>
	<advance height="2048" width="1725"/>
	<outline>
		<contour>
			<point x="263" y="901" type="line"/>
			<point x="333" y="971"/>
			<point x="425" y="1000"/>
			<point x="523" y="1000" type="curve" smooth="yes"/>
			<point x="659" y="1000"/>
			<point x="783" y="946"/>
			<point x="863" y="833" type="curve"/>
			<point x="942" y="946"/>
			<point x="1067" y="1000"/>
			<point x="1203" y="1000" type="curve" smooth="yes"/>
			<point x="1461" y="1000"/>
			<point x="1625" y="811"/>
			<point x="1625" y="554" type="curve" smooth="yes"/>
			<point x="1625" y="21" type="line" smooth="yes"/>
			<point x="1625" y="-4"/>
			<point x="1588" y="-24"/>
			<point x="1543" y="-24" type="curve" smooth="yes"/>
			<point x="1498" y="-24"/>
			<point x="1462" y="-4"/>
			<point x="1462" y="21" type="curve" smooth="yes"/>
			<point x="1462" y="554" type="line" smooth="yes"/>
			<point x="1462" y="723"/>
			<point x="1397" y="906"/>
			<point x="1202" y="906" type="curve" smooth="yes"/>
			<point x="1008" y="906"/>
			<point x="945" y="720"/>
			<point x="945" y="554" type="curve" smooth="yes"/>
			<point x="945" y="21" type="line" smooth="yes"/>
			<point x="945" y="-4"/>
			<point x="908" y="-24"/>
			<point x="863" y="-24" type="curve" smooth="yes"/>
			<point x="818" y="-24"/>
			<point x="782" y="-4"/>
			<point x="782" y="21" type="curve" smooth="yes"/>
			<point x="782" y="554" type="line" smooth="yes"/>
			<point x="782" y="723"/>
			<point x="717" y="906"/>
			<point x="521" y="906" type="curve" smooth="yes"/>
			<point x="327" y="906"/>
			<point x="263" y="721"/>
			<point x="263" y="554" type="curve" smooth="yes"/>
			<point x="263" y="22" type="line" smooth="yes"/>
			<point x="263" y="-4"/>
			<point x="227" y="-24"/>
			<point x="182" y="-24" type="curve" smooth="yes"/>
			<point x="137" y="-24"/>
			<point x="100" y="-4"/>
			<point x="100" y="22" type="curve" smooth="yes"/>
			<point x="100" y="955" type="line" smooth="yes"/>
			<point x="100" y="980"/>
			<point x="137" y="1000"/>
			<point x="182" y="1000" type="curve" smooth="yes"/>
			<point x="227" y="1000"/>
			<point x="263" y="980"/>
			<point x="263" y="955" type="curve" smooth="yes"/>
		</contour>
	</outline>
</glyph>
<glyph name="r" format="2">
	<unicode hex="0072"/>
	<advance height="2048" width="789"/>
	<outline>
		<contour>
			<point x="100" y="954" type="line" smooth="yes"/>
			<point x="100" y="980"/>
			<point x="136" y="1000"/>
			<point x="181" y="1000" type="curve" smooth="yes"/>
			<point x="226" y="1000"/>
			<point x="263" y="980"/>
			<point x="263" y="954" type="curve" smooth="yes"/>
			<point x="263" y="852" type="line"/>
			<point x="320" y="957"/>
			<point x="412" y="1001"/>
			<point x="528" y="1000" type="curve" smooth="yes"/>
			<point x="600" y="999"/>
			<point x="658" y="985"/>
			<point x="719" y="946" type="curve" smooth="yes"/>
			<point x="753" y="923"/>
			<point x="740" y="891"/>
			<point x="712" y="871" type="curve" smooth="yes"/>
			<point x="687" y="854"/>
			<point x="652" y="849"/>
			<point x="626" y="868" type="curve" smooth="yes"/>
			<point x="589" y="896"/>
			<point x="543" y="912"/>
			<point x="499" y="911" type="curve" smooth="yes"/>
			<point x="411" y="907"/>
			<point x="351" y="859"/>
			<point x="313" y="782" type="curve" smooth="yes"/>
			<point x="272" y="699"/>
			<point x="263" y="592"/>
			<point x="263" y="514" type="curve" smooth="yes"/>
			<point x="263" y="22" type="line" smooth="yes"/>
			<point x="263" y="-4"/>
			<point x="226" y="-24"/>
			<point x="181" y="-24" type="curve" smooth="yes"/>
			<point x="136" y="-24"/>
			<point x="100" y="-4"/>
			<point x="100" y="22" type="curve" smooth="yes"/>
		</contour>
	</outline>
</glyph>
<glyph name="s" format="2">
	<unicode hex="0073"/>
	<advance height="2048" width="1100"/>
	<outline>
		<contour>
			<point x="950" y="747" type="curve" smooth="yes"/>
			<point x="956" y="722"/>
			<point x="925" y="699"/>
			<point x="880" y="696" type="curve" smooth="yes"/>
			<point x="836" y="693"/>
			<point x="795" y="710"/>
			<point x="789" y="735" type="curve" smooth="yes"/>
			<point x="761" y="850"/>
			<point x="665" y="911"/>
			<point x="551" y="909" type="curve" smooth="yes"/>
			<point x="446" y="907"/>
			<point x="308" y="844"/>
			<point x="309" y="723" type="curve" smooth="yes"/>
			<point x="310" y="674"/>
			<point x="357" y="640"/>
			<point x="414" y="617" type="curve" smooth="yes"/>
			<point x="471" y="594"/>
			<point x="538" y="581"/>
			<point x="575" y="575" type="curve" smooth="yes"/>
			<point x="670" y="561"/>
			<point x="769" y="551"/>
			<point x="860" y="492" type="curve" smooth="yes"/>
			<point x="928" y="447"/>
			<point x="976" y="387"/>
			<point x="978" y="289" type="curve" smooth="yes"/>
			<point x="982" y="92"/>
			<point x="764" y="-13"/>
			<point x="593" y="-23" type="curve" smooth="yes"/>
			<point x="387" y="-35"/>
			<point x="180" y="45"/>
			<point x="123" y="261" type="curve" smooth="yes"/>
			<point x="116" y="286"/>
			<point x="147" y="309"/>
			<point x="191" y="313" type="curve" smooth="yes"/>
			<point x="236" y="317"/>
			<point x="277" y="299"/>
			<point x="284" y="274" type="curve" smooth="yes"/>
			<point x="321" y="133"/>
			<point x="432" y="59"/>
			<point x="576" y="68" type="curve" smooth="yes"/>
			<point x="687" y="74"/>
			<point x="817" y="157"/>
			<point x="816" y="279" type="curve" smooth="yes"/>
			<point x="815" y="328"/>
			<point x="774" y="362"/>
			<point x="722" y="385" type="curve" smooth="yes"/>
			<point x="666" y="410"/>
			<point x="598" y="422"/>
			<point x="558" y="428" type="curve" smooth="yes"/>
			<point x="459" y="442"/>
			<point x="356" y="450"/>
			<point x="267" y="510" type="curve" smooth="yes"/>
			<point x="185" y="566"/>
			<point x="149" y="640"/>
			<point x="146" y="713" type="curve" smooth="yes"/>
			<point x="139" y="911"/>
			<point x="384" y="997"/>
			<point x="546" y="1000" type="curve" smooth="yes"/>
			<point x="718" y="1003"/>
			<point x="906" y="930"/>
		</contour>
	</outline>
</glyph>
<glyph name="v" format="2">
  <advance height="2048" width="1086.0"/>
  <unicode hex="0076"/>
  <outline>
    <contour>
      <point x="52.0" y="947.0" type="line" smooth="yes"/>
      <point x="42.0" y="971.0"/>
      <point x="71.0" y="994.0"/>
      <point x="118.0" y="999.0" type="curve" smooth="yes"/>
      <point x="164.0" y="1004.0"/>
      <point x="210.0" y="989.0"/>
      <point x="220.0" y="966.0" type="curve" smooth="yes"/>
      <point x="570.0" y="155.0" type="line"/>
      <point x="920.0" y="977.0" type="line" smooth="yes"/>
      <point x="926.0" y="993.0"/>
      <point x="958.0" y="1003.0"/>
      <point x="990.0" y="999.0" type="curve" smooth="yes"/>
      <point x="1021.0" y="996.0"/>
      <point x="1042.0" y="980.0"/>
      <point x="1035.0" y="964.0" type="curve" smooth="yes"/>
      <point x="630.0" y="10.0" type="line" smooth="yes"/>
      <point x="621.0" y="-12.0"/>
      <point x="569.0" y="-24.0"/>
      <point x="543.0" y="-24.0" type="curve" smooth="yes"/>
      <point x="503.0" y="-25.0"/>
      <point x="466.0" y="-11.0"/>
      <point x="457.0" y="10.0" type="curve" smooth="yes"/>
    </contour>
  </outline>
</glyph>
<glyph name="w" format="2">
  <advance height="2048" width="1651.0"/>
  <unicode hex="0077"/>
  <outline>
    <contour>
      <point x="52.0" y="948.0" type="line" smooth="yes"/>
      <point x="42.0" y="972.0"/>
      <point x="73.0" y="994.0"/>
      <point x="119.0" y="999.0" type="curve" smooth="yes"/>
      <point x="166.0" y="1003.0"/>
      <point x="211.0" y="988.0"/>
      <point x="220.0" y="965.0" type="curve" smooth="yes"/>
      <point x="529.0" y="186.0" type="line"/>
      <point x="769.0" y="963.0" type="line" smooth="yes"/>
      <point x="776.0" y="986.0"/>
      <point x="817.0" y="999.0"/>
      <point x="857.0" y="999.0" type="curve" smooth="yes"/>
      <point x="896.0" y="999.0"/>
      <point x="934.0" y="987.0"/>
      <point x="941.0" y="963.0" type="curve" smooth="yes"/>
      <point x="1172.0" y="187.0" type="line"/>
      <point x="1484.0" y="976.0" type="line" smooth="yes"/>
      <point x="1491.0" y="992.0"/>
      <point x="1521.0" y="1003.0"/>
      <point x="1553.0" y="999.0" type="curve" smooth="yes"/>
      <point x="1585.0" y="996.0"/>
      <point x="1606.0" y="981.0"/>
      <point x="1600.0" y="965.0" type="curve" smooth="yes"/>
      <point x="1223.0" y="13.0" type="line" smooth="yes"/>
      <point x="1214.0" y="-11.0"/>
      <point x="1174.0" y="-24.0"/>
      <point x="1134.0" y="-24.0" type="curve" smooth="yes"/>
      <point x="1095.0" y="-24.0"/>
      <point x="1057.0" y="-12.0"/>
      <point x="1050.0" y="13.0" type="curve" smooth="yes"/>
      <point x="827.0" y="764.0" type="line"/>
      <point x="596.0" y="14.0" type="line" smooth="yes"/>
      <point x="588.0" y="-10.0"/>
      <point x="548.0" y="-24.0"/>
      <point x="508.0" y="-24.0" type="curve" smooth="yes"/>
      <point x="470.0" y="-24.0"/>
      <point x="433.0" y="-13.0"/>
      <point x="424.0" y="11.0" type="curve" smooth="yes"/>
    </contour>
  </outline>
</glyph>
<glyph name="x" format="2">
  <advance height="2048" width="1155.0"/>
  <unicode hex="0078"/>
  <outline>
    <contour>
      <point x="107.0" y="938.0" type="line" smooth="yes"/>
      <point x="88.0" y="961.0"/>
      <point x="110.0" y="987.0"/>
      <point x="156.0" y="997.0" type="curve" smooth="yes"/>
      <point x="202.0" y="1006.0"/>
      <point x="255.0" y="995.0"/>
      <point x="274.0" y="972.0" type="curve" smooth="yes"/>
      <point x="592.0" y="588.0" type="line"/>
      <point x="930.0" y="980.0" type="line" smooth="yes"/>
      <point x="944.0" y="996.0"/>
      <point x="981.0" y="1004.0"/>
      <point x="1013.0" y="997.0" type="curve" smooth="yes"/>
      <point x="1046.0" y="990.0"/>
      <point x="1062.0" y="971.0"/>
      <point x="1048.0" y="955.0" type="curve" smooth="yes"/>
      <point x="661.0" y="505.0" type="line"/>
      <point x="1048.0" y="38.0" type="line" smooth="yes"/>
      <point x="1067.0" y="15.0"/>
      <point x="1045.0" y="-11.0"/>
      <point x="999.0" y="-20.0" type="curve" smooth="yes"/>
      <point x="953.0" y="-30.0"/>
      <point x="900.0" y="-19.0"/>
      <point x="881.0" y="4.0" type="curve" smooth="yes"/>
      <point x="563.0" y="388.0" type="line"/>
      <point x="225.0" y="-4.0" type="line" smooth="yes"/>
      <point x="211.0" y="-20.0"/>
      <point x="174.0" y="-28.0"/>
      <point x="142.0" y="-22.0" type="curve" smooth="yes"/>
      <point x="109.0" y="-15.0"/>
      <point x="93.0" y="4.0"/>
      <point x="107.0" y="20.0" type="curve" smooth="yes"/>
      <point x="494.0" y="471.0" type="line"/>
    </contour>
  </outline>
</glyph>
<glyph name="braceleft" format="2">
  <advance height="2048" width="648.0"/>
  <unicode hex="007B"/>
  <outline>
    <contour>
      <point x="129.0" y="563.0" type="curve" smooth="yes"/>
      <point x="232.0" y="563.0"/>
      <point x="220.0" y="670.0"/>
      <point x="220.0" y="756.0" type="curve" smooth="yes"/>
      <point x="220.0" y="1226.0" type="line" smooth="yes"/>
      <point x="220.0" y="1273.0"/>
      <point x="241.0" y="1315.0"/>
      <point x="275.0" y="1347.0" type="curve" smooth="yes"/>
      <point x="347.0" y="1415.0"/>
      <point x="429.0" y="1410.0"/>
      <point x="519.0" y="1410.0" type="curve" smooth="yes"/>
      <point x="563.0" y="1410.0"/>
      <point x="599.0" y="1390.0"/>
      <point x="599.0" y="1365.0" type="curve" smooth="yes"/>
      <point x="599.0" y="1340.0"/>
      <point x="563.0" y="1320.0"/>
      <point x="519.0" y="1320.0" type="curve" smooth="yes"/>
      <point x="481.0" y="1320.0"/>
      <point x="442.0" y="1329.0"/>
      <point x="412.0" y="1301.0" type="curve" smooth="yes"/>
      <point x="393.0" y="1283.0"/>
      <point x="380.0" y="1256.0"/>
      <point x="380.0" y="1226.0" type="curve" smooth="yes"/>
      <point x="380.0" y="756.0" type="line" smooth="yes"/>
      <point x="380.0" y="616.0"/>
      <point x="366.0" y="549.0"/>
      <point x="306.0" y="518.0" type="curve"/>
      <point x="366.0" y="487.0"/>
      <point x="380.0" y="420.0"/>
      <point x="380.0" y="280.0" type="curve" smooth="yes"/>
      <point x="380.0" y="-191.0" type="line" smooth="yes"/>
      <point x="380.0" y="-221.0"/>
      <point x="393.0" y="-247.0"/>
      <point x="412.0" y="-266.0" type="curve" smooth="yes"/>
      <point x="442.0" y="-294.0"/>
      <point x="481.0" y="-284.0"/>
      <point x="519.0" y="-284.0" type="curve" smooth="yes"/>
      <point x="563.0" y="-284.0"/>
      <point x="599.0" y="-304.0"/>
      <point x="599.0" y="-329.0" type="curve" smooth="yes"/>
      <point x="599.0" y="-354.0"/>
      <point x="563.0" y="-374.0"/>
      <point x="519.0" y="-374.0" type="curve" smooth="yes"/>
      <point x="429.0" y="-374.0"/>
      <point x="347.0" y="-379.0"/>
      <point x="275.0" y="-312.0" type="curve" smooth="yes"/>
      <point x="241.0" y="-280.0"/>
      <point x="220.0" y="-237.0"/>
      <point x="220.0" y="-191.0" type="curve" smooth="yes"/>
      <point x="220.0" y="280.0" type="line" smooth="yes"/>
      <point x="220.0" y="366.0"/>
      <point x="232.0" y="473.0"/>
      <point x="129.0" y="473.0" type="curve" smooth="yes"/>
      <point x="77.0" y="473.0"/>
      <point x="50.0" y="495.0"/>
      <point x="50.0" y="517.0" type="curve" smooth="yes"/>
      <point x="50.0" y="540.0"/>
      <point x="76.0" y="563.0"/>
    </contour>
  </outline>
</glyph>
<glyph name="guillemotleft" format="2">
	<unicode hex="00AB"/>
	<advance height="2048" width="942"/>
	<outline>
		<contour>
			<point x="834" y="429" type="line" smooth="yes"/>
			<point x="850" y="414"/>
			<point x="841" y="394"/>
			<point x="814" y="385" type="curve" smooth="yes"/>
			<point x="787" y="376"/>
			<point x="752" y="381"/>
			<point x="736" y="396" type="curve" smooth="yes"/>
			<point x="422" y="691" type="line"/>
			<point x="410" y="701"/>
			<point x="412" y="714"/>
			<point x="422" y="724" type="curve" smooth="yes"/>
			<point x="736" y="1018" type="line" smooth="yes"/>
			<point x="752" y="1034"/>
			<point x="787" y="1039"/>
			<point x="814" y="1029" type="curve" smooth="yes"/>
			<point x="841" y="1020"/>
			<point x="850" y="1001"/>
			<point x="834" y="985" type="curve" smooth="yes"/>
			<point x="538" y="707" type="line"/>
		</contour>
		<contour>
			<point x="520" y="429" type="line" smooth="yes"/>
			<point x="536" y="414"/>
			<point x="528" y="394"/>
			<point x="500" y="385" type="curve" smooth="yes"/>
			<point x="473" y="376"/>
			<point x="438" y="381"/>
			<point x="422" y="396" type="curve" smooth="yes"/>
			<point x="108" y="691" type="line" smooth="yes"/>
			<point x="97" y="701"/>
			<point x="98" y="714"/>
			<point x="109" y="724" type="curve" smooth="yes"/>
			<point x="422" y="1018" type="line" smooth="yes"/>
			<point x="438" y="1034"/>
			<point x="473" y="1039"/>
			<point x="500" y="1029" type="curve" smooth="yes"/>
			<point x="528" y="1020"/>
			<point x="536" y="1001"/>
			<point x="520" y="985" type="curve" smooth="yes"/>
			<point x="224" y="707" type="line"/>
		</contour>
	</outline>
</glyph>
<glyph name="paragraph" format="2">
	<unicode hex="00B6"/>
	<advance height="2048" width="1051"/>
	<outline>
		<contour>
			<point x="838" y="5" type="line" smooth="yes"/>
			<point x="838" y="-11"/>
			<point x="813" y="-24"/>
			<point x="781" y="-24" type="curve" smooth="yes"/>
			<point x="749" y="-24"/>
			<point x="723" y="-11"/>
			<point x="723" y="5" type="curve" smooth="yes"/>
			<point x="723" y="1290" type="line"/>
			<point x="442" y="1290" type="line"/>
			<point x="442" y="5" type="line" smooth="yes"/>
			<point x="442" y="-11"/>
			<point x="416" y="-24"/>
			<point x="384" y="-24" type="curve" smooth="yes"/>
			<point x="353" y="-24"/>
			<point x="327" y="-11"/>
			<point x="327" y="5" type="curve" smooth="yes"/>
			<point x="327" y="805" type="line"/>
			<point x="197" y="835"/>
			<point x="100" y="951"/>
			<point x="100" y="1090" type="curve" smooth="yes"/>
			<point x="100" y="1248"/>
			<point x="227" y="1381"/>
			<point x="386" y="1381" type="curve" smooth="yes"/>
			<point x="870" y="1381" type="line" smooth="yes"/>
			<point x="915" y="1381"/>
			<point x="951" y="1361"/>
			<point x="951" y="1335" type="curve" smooth="yes"/>
			<point x="951" y="1310"/>
			<point x="915" y="1290"/>
			<point x="870" y="1290" type="curve" smooth="yes"/>
			<point x="838" y="1290" type="line"/>
		</contour>
	</outline>
</glyph>
<glyph name="cedilla" format="2">
	<unicode hex="00B8"/>
	<advance height="2048" width="436"/>
	<outline>
		<contour>
			<point x="206" y="-359" type="line" smooth="yes"/>
			<point x="211" y="-344"/>
			<point x="240" y="-334"/>
			<point x="270" y="-336" type="curve" smooth="yes"/>
			<point x="300" y="-339"/>
			<point x="320" y="-353"/>
			<point x="314" y="-368" type="curve" smooth="yes"/>
			<point x="266" y="-506" type="line"/>
			<point x="337" y="-517"/>
			<point x="436" y="-554"/>
			<point x="436" y="-640" type="curve" smooth="yes"/>
			<point x="436" y="-756"/>
			<point x="260" y="-790"/>
			<point x="171" y="-790" type="curve" smooth="yes"/>
			<point x="101" y="-790"/>
			<point x="37" y="-774"/>
			<point x="6" y="-745" type="curve" smooth="yes"/>
			<point x="-8" y="-731"/>
			<point x="3" y="-715"/>
			<point x="29" y="-708" type="curve" smooth="yes"/>
			<point x="56" y="-701"/>
			<point x="89" y="-706"/>
			<point x="103" y="-719" type="curve" smooth="yes"/>
			<point x="114" y="-729"/>
			<point x="141" y="-735"/>
			<point x="171" y="-735" type="curve" smooth="yes"/>
			<point x="230" y="-735"/>
			<point x="326" y="-713"/>
			<point x="326" y="-640" type="curve" smooth="yes"/>
			<point x="326" y="-577"/>
			<point x="255" y="-557"/>
			<point x="203" y="-555" type="curve" smooth="yes"/>
			<point x="194" y="-555"/>
			<point x="177" y="-553"/>
			<point x="164" y="-547" type="curve" smooth="yes"/>
			<point x="153" y="-542"/>
			<point x="145" y="-534"/>
			<point x="149" y="-522" type="curve" smooth="yes"/>
		</contour>
	</outline>
</glyph>
<glyph name="AE" format="2">
	<unicode hex="00C6"/>
	<advance height="2048" width="2013"/>
	<outline>
		<contour>
			<point x="924" y="14" type="curve" smooth="yes"/>
			<point x="906" y="23"/>
			<point x="894" y="35"/>
			<point x="894" y="49" type="curve" smooth="yes"/>
			<point x="894" y="441" type="line"/>
			<point x="355" y="441" type="line"/>
			<point x="167" y="-1" type="line" smooth="yes"/>
			<point x="160" y="-16"/>
			<point x="129" y="-27"/>
			<point x="97" y="-23" type="curve" smooth="yes"/>
			<point x="65" y="-20"/>
			<point x="44" y="-4"/>
			<point x="51" y="12" type="curve" smooth="yes"/>
			<point x="619" y="1324" type="line" smooth="yes"/>
			<point x="633" y="1356"/>
			<point x="681" y="1357"/>
			<point x="708" y="1357" type="curve" smooth="yes"/>
			<point x="1882" y="1357" type="line" smooth="yes"/>
			<point x="1927" y="1357"/>
			<point x="1963" y="1337"/>
			<point x="1963" y="1311" type="curve" smooth="yes"/>
			<point x="1963" y="1286"/>
			<point x="1927" y="1266"/>
			<point x="1882" y="1266" type="curve" smooth="yes"/>
			<point x="1057" y="1266" type="line"/>
			<point x="1057" y="725" type="line"/>
			<point x="1754" y="725" type="line" smooth="yes"/>
			<point x="1799" y="725"/>
			<point x="1835" y="704"/>
			<point x="1835" y="679" type="curve" smooth="yes"/>
			<point x="1835" y="654"/>
			<point x="1799" y="633"/>
			<point x="1754" y="633" type="curve" smooth="yes"/>
			<point x="1057" y="633" type="line"/>
			<point x="1057" y="91" type="line"/>
			<point x="1882" y="91" type="line" smooth="yes"/>
			<point x="1927" y="91"/>
			<point x="1963" y="71"/>
			<point x="1963" y="45" type="curve" smooth="yes"/>
			<point x="1963" y="20"/>
			<point x="1927" y="0"/>
			<point x="1882" y="0" type="curve" smooth="yes"/>
			<point x="984" y="0" type="line" smooth="yes"/>
			<point x="960" y="0"/>
			<point x="939" y="6"/>
		</contour>
		<contour>
			<point x="894" y="532" type="line"/>
			<point x="894" y="1266" type="line"/>
			<point x="711" y="1266" type="line"/>
			<point x="393" y="532" type="line"/>
		</contour>
	</outline>
</glyph>
<glyph name="Ccedilla" format="2">
	<unicode hex="00C7"/>
	<advance height="2048" width="1442"/>
	<outline>
		<contour>
			<point x="802" y="-413" type="curve"/>
			<point x="769" y="-506" type="line"/>
			<point x="840" y="-517"/>
			<point x="939" y="-554"/>
			<point x="939" y="-640" type="curve" smooth="yes"/>
			<point x="939" y="-756"/>
			<point x="763" y="-790"/>
			<point x="674" y="-790" type="curve" smooth="yes"/>
			<point x="604" y="-790"/>
			<point x="540" y="-774"/>
			<point x="509" y="-745" type="curve" smooth="yes"/>
			<point x="495" y="-732"/>
			<point x="506" y="-715"/>
			<point x="532" y="-708" type="curve" smooth="yes"/>
			<point x="559" y="-701"/>
			<point x="592" y="-706"/>
			<point x="607" y="-719" type="curve"/>
			<point x="617" y="-729"/>
			<point x="644" y="-735"/>
			<point x="674" y="-735" type="curve" smooth="yes"/>
			<point x="733" y="-735"/>
			<point x="829" y="-713"/>
			<point x="829" y="-640" type="curve" smooth="yes"/>
			<point x="829" y="-577"/>
			<point x="758" y="-557"/>
			<point x="706" y="-555" type="curve" smooth="yes"/>
			<point x="697" y="-555"/>
			<point x="680" y="-553"/>
			<point x="667" y="-547" type="curve" smooth="yes"/>
			<point x="656" y="-542"/>
			<point x="648" y="-534"/>
			<point x="652" y="-522" type="curve" smooth="yes"/>
			<point x="690" y="-413" type="line"/>
			<point x="316" y="-387"/>
			<point x="103" y="-107"/>
			<point x="100" y="278" type="curve" smooth="yes"/>
			<point x="96" y="683"/>
			<point x="334" y="984"/>
			<point x="752" y="990" type="curve" smooth="yes"/>
			<point x="1016" y="994"/>
			<point x="1303" y="844"/>
			<point x="1340" y="561" type="curve" smooth="yes"/>
			<point x="1343" y="536"/>
			<point x="1309" y="514"/>
			<point x="1264" y="512" type="curve" smooth="yes"/>
			<point x="1219" y="510"/>
			<point x="1181" y="529"/>
			<point x="1177" y="554" type="curve" smooth="yes"/>
			<point x="1151" y="762"/>
			<point x="960" y="902"/>
			<point x="756" y="899" type="curve" smooth="yes"/>
			<point x="419" y="894"/>
			<point x="260" y="583"/>
			<point x="262" y="279" type="curve" smooth="yes"/>
			<point x="265" y="-29"/>
			<point x="423" y="-327"/>
			<point x="753" y="-324" type="curve" smooth="yes"/>
			<point x="954" y="-322"/>
			<point x="1146" y="-181"/>
			<point x="1180" y="22" type="curve" smooth="yes"/>
			<point x="1184" y="47"/>
			<point x="1224" y="65"/>
			<point x="1268" y="63" type="curve" smooth="yes"/>
			<point x="1313" y="61"/>
			<point x="1346" y="38"/>
			<point x="1342" y="13" type="curve" smooth="yes"/>
			<point x="1298" y="-245"/>
			<point x="1048" y="-394"/>
		</contour>
	</outline>
</glyph>
<glyph name="ae" format="2">
	<unicode hex="00E6"/>
	<advance height="2048" width="1957"/>
	<outline>
		<contour>
			<point x="1682" y="300" type="curve" smooth="yes"/>
			<point x="1685" y="325"/>
			<point x="1722" y="344"/>
			<point x="1765" y="343" type="curve" smooth="yes"/>
			<point x="1808" y="341"/>
			<point x="1841" y="320"/>
			<point x="1839" y="295" type="curve" smooth="yes"/>
			<point x="1830" y="213"/>
			<point x="1775" y="134"/>
			<point x="1691" y="76" type="curve" smooth="yes"/>
			<point x="1590" y="6"/>
			<point x="1465" y="-25"/>
			<point x="1345" y="-24" type="curve" smooth="yes"/>
			<point x="1175" y="-23"/>
			<point x="1033" y="48"/>
			<point x="945" y="170" type="curve"/>
			<point x="907" y="128"/>
			<point x="854" y="88"/>
			<point x="825" y="68" type="curve" smooth="yes"/>
			<point x="730" y="6"/>
			<point x="606" y="-24"/>
			<point x="498" y="-24" type="curve" smooth="yes"/>
			<point x="308" y="-24"/>
			<point x="80" y="63"/>
			<point x="101" y="290" type="curve" smooth="yes"/>
			<point x="124" y="540"/>
			<point x="405" y="542"/>
			<point x="594" y="535" type="curve" smooth="yes"/>
			<point x="692" y="532"/>
			<point x="790" y="528"/>
			<point x="851" y="566" type="curve"/>
			<point x="851" y="667" type="line" smooth="yes"/>
			<point x="851" y="827"/>
			<point x="723" y="908"/>
			<point x="575" y="909" type="curve" smooth="yes"/>
			<point x="506" y="909"/>
			<point x="437" y="891"/>
			<point x="384" y="856" type="curve" smooth="yes"/>
			<point x="329" y="820"/>
			<point x="293" y="766"/>
			<point x="292" y="712" type="curve"/>
			<point x="292" y="686"/>
			<point x="256" y="666"/>
			<point x="211" y="666" type="curve" smooth="yes"/>
			<point x="166" y="666"/>
			<point x="130" y="687"/>
			<point x="130" y="712" type="curve" smooth="yes"/>
			<point x="131" y="788"/>
			<point x="182" y="863"/>
			<point x="260" y="915" type="curve" smooth="yes"/>
			<point x="343" y="970"/>
			<point x="457" y="1001"/>
			<point x="576" y="1000" type="curve" smooth="yes"/>
			<point x="726" y="999"/>
			<point x="891" y="948"/>
			<point x="968" y="827" type="curve"/>
			<point x="1058" y="935"/>
			<point x="1194" y="999"/>
			<point x="1356" y="1000" type="curve" smooth="yes"/>
			<point x="1636" y="1001"/>
			<point x="1861" y="839"/>
			<point x="1857" y="531" type="curve"/>
			<point x="1857" y="505"/>
			<point x="1822" y="485"/>
			<point x="1779" y="485" type="curve" smooth="yes"/>
			<point x="1007" y="485" type="line"/>
			<point x="1004" y="274"/>
			<point x="1129" y="69"/>
			<point x="1347" y="67" type="curve" smooth="yes"/>
			<point x="1425" y="66"/>
			<point x="1506" y="89"/>
			<point x="1571" y="134" type="curve" smooth="yes"/>
			<point x="1634" y="179"/>
			<point x="1676" y="238"/>
		</contour>
		<contour>
			<point x="851" y="342" type="curve" smooth="yes"/>
			<point x="851" y="456" type="line"/>
			<point x="768" y="438"/>
			<point x="676" y="441"/>
			<point x="584" y="444" type="curve" smooth="yes"/>
			<point x="450" y="449"/>
			<point x="280" y="464"/>
			<point x="264" y="286" type="curve" smooth="yes"/>
			<point x="250" y="137"/>
			<point x="363" y="67"/>
			<point x="498" y="67" type="curve" smooth="yes"/>
			<point x="655" y="67"/>
			<point x="851" y="164"/>
		</contour>
		<contour>
			<point x="1700" y="577" type="line"/>
			<point x="1684" y="778"/>
			<point x="1553" y="910"/>
			<point x="1357" y="909" type="curve" smooth="yes"/>
			<point x="1171" y="908"/>
			<point x="1048" y="756"/>
			<point x="1016" y="577" type="curve"/>
		</contour>
	</outline>
</glyph>
<glyph name="ml_a" format="2">
  <advance height="2048" width="2456.0"/>
  <unicode hex="0D05"/>
  <outline>
    <contour>
      <point x="1483.0" y="11.0" type="curve" smooth="yes"/>
      <point x="1483.0" y="612.0" type="line" smooth="yes"/>
      <point x="1483.0" y="806.0"/>
      <point x="1594.0" y="927.0"/>
      <point x="1789.0" y="931.0" type="curve" smooth="yes"/>
      <point x="1912.0" y="933.0"/>
      <point x="2013.0" y="890.0"/>
      <point x="2104.0" y="809.0" type="curve"/>
      <point x="1964.0" y="792.0"/>
      <point x="1847.0" y="748.0"/>
      <point x="1760.0" y="631.0" type="curve" smooth="yes"/>
      <point x="1701.0" y="552.0"/>
      <point x="1669.0" y="451.0"/>
      <point x="1669.0" y="352.0" type="curve" smooth="yes"/>
      <point x="1669.0" y="271.0"/>
      <point x="1690.0" y="189.0"/>
      <point x="1735.0" y="121.0" type="curve" smooth="yes"/>
      <point x="1799.0" y="24.0"/>
      <point x="1902.0" y="-23.0"/>
      <point x="2015.0" y="-24.0" type="curve" smooth="yes"/>
      <point x="2136.0" y="-25.0"/>
      <point x="2240.0" y="31.0"/>
      <point x="2303.0" y="135.0" type="curve" smooth="yes"/>
      <point x="2353.0" y="218.0"/>
      <point x="2375.0" y="320.0"/>
      <point x="2376.0" y="416.0" type="curve" smooth="yes"/>
      <point x="2378.0" y="552.0"/>
      <point x="2343.0" y="683.0"/>
      <point x="2259.0" y="791.0" type="curve" smooth="yes"/>
      <point x="2143.0" y="941.0"/>
      <point x="1974.0" y="1000.0"/>
      <point x="1790.0" y="1000.0" type="curve" smooth="yes"/>
      <point x="1646.0" y="1000.0"/>
      <point x="1531.0" y="960.0"/>
      <point x="1428.0" y="860.0" type="curve"/>
      <point x="1326.0" y="967.0"/>
      <point x="1212.0" y="999.0"/>
      <point x="1067.0" y="1000.0" type="curve" smooth="yes"/>
      <point x="991.0" y="1001.0"/>
      <point x="917.0" y="993.0"/>
      <point x="843.0" y="973.0" type="curve"/>
      <point x="772.0" y="988.0"/>
      <point x="699.0" y="1001.0"/>
      <point x="626.0" y="1000.0" type="curve" smooth="yes"/>
      <point x="465.0" y="997.0"/>
      <point x="329.0" y="940.0"/>
      <point x="232.0" y="843.0" type="curve" smooth="yes"/>
      <point x="139.0" y="748.0"/>
      <point x="83.0" y="616.0"/>
      <point x="80.0" y="458.0" type="curve" smooth="yes"/>
      <point x="77.0" y="284.0"/>
      <point x="145.0" y="88.0"/>
      <point x="294.0" y="-11.0" type="curve" smooth="yes"/>
      <point x="306.0" y="-19.0"/>
      <point x="321.0" y="-23.0"/>
      <point x="337.0" y="-23.0" type="curve"/>
      <point x="353.0" y="-24.0"/>
      <point x="369.0" y="-22.0"/>
      <point x="382.0" y="-15.0" type="curve"/>
      <point x="391.0" y="-11.0"/>
      <point x="397.0" y="-6.0"/>
      <point x="400.0" y="-1.0" type="curve"/>
      <point x="403.0" y="3.0"/>
      <point x="404.0" y="6.0"/>
      <point x="404.0" y="10.0" type="curve"/>
      <point x="405.0" y="13.0"/>
      <point x="404.0" y="17.0"/>
      <point x="402.0" y="21.0" type="curve" smooth="yes"/>
      <point x="400.0" y="25.0"/>
      <point x="396.0" y="30.0"/>
      <point x="390.0" y="34.0" type="curve" smooth="yes"/>
      <point x="259.0" y="121.0"/>
      <point x="203.0" y="308.0"/>
      <point x="205.0" y="458.0" type="curve" smooth="yes"/>
      <point x="206.0" y="615.0"/>
      <point x="270.0" y="767.0"/>
      <point x="402.0" y="857.0" type="curve" smooth="yes"/>
      <point x="475.0" y="907.0"/>
      <point x="550.0" y="927.0"/>
      <point x="636.0" y="928.0" type="curve" smooth="yes"/>
      <point x="662.0" y="928.0"/>
      <point x="688.0" y="927.0"/>
      <point x="714.0" y="926.0" type="curve"/>
      <point x="536.0" y="812.0"/>
      <point x="463.0" y="671.0"/>
      <point x="464.0" y="458.0" type="curve" smooth="yes"/>
      <point x="465.0" y="356.0"/>
      <point x="488.0" y="248.0"/>
      <point x="539.0" y="159.0" type="curve" smooth="yes"/>
      <point x="609.0" y="38.0"/>
      <point x="717.0" y="-25.0"/>
      <point x="857.0" y="-24.0" type="curve" smooth="yes"/>
      <point x="1025.0" y="-22.0"/>
      <point x="1155.0" y="78.0"/>
      <point x="1157.0" y="254.0" type="curve" smooth="yes"/>
      <point x="1158.0" y="374.0"/>
      <point x="1101.0" y="435.0"/>
      <point x="997.0" y="479.0" type="curve"/>
      <point x="1080.0" y="530.0"/>
      <point x="1130.0" y="595.0"/>
      <point x="1130.0" y="698.0" type="curve" smooth="yes"/>
      <point x="1130.0" y="810.0"/>
      <point x="1074.0" y="870.0"/>
      <point x="987.0" y="927.0" type="curve"/>
      <point x="1010.0" y="929.0"/>
      <point x="1034.0" y="932.0"/>
      <point x="1058.0" y="932.0" type="curve" smooth="yes"/>
      <point x="1259.0" y="932.0"/>
      <point x="1358.0" y="804.0"/>
      <point x="1358.0" y="612.0" type="curve" smooth="yes"/>
      <point x="1358.0" y="11.0" type="line" smooth="yes"/>
      <point x="1358.0" y="-15.0"/>
      <point x="1401.0" y="-24.0"/>
      <point x="1421.0" y="-24.0" type="curve" smooth="yes"/>
      <point x="1440.0" y="-24.0"/>
      <point x="1483.0" y="-15.0"/>
    </contour>
    <contour>
      <point x="2161.0" y="740.0" type="curve"/>
      <point x="2228.0" y="640.0"/>
      <point x="2253.0" y="536.0"/>
      <point x="2251.0" y="416.0" type="curve" smooth="yes"/>
      <point x="2250.0" y="328.0"/>
      <point x="2231.0" y="234.0"/>
      <point x="2185.0" y="158.0" type="curve" smooth="yes"/>
      <point x="2147.0" y="95.0"/>
      <point x="2094.0" y="46.0"/>
      <point x="2016.0" y="47.0" type="curve" smooth="yes"/>
      <point x="1945.0" y="47.0"/>
      <point x="1890.0" y="87.0"/>
      <point x="1851.0" y="145.0" type="curve" smooth="yes"/>
      <point x="1812.0" y="205.0"/>
      <point x="1794.0" y="280.0"/>
      <point x="1794.0" y="352.0" type="curve" smooth="yes"/>
      <point x="1794.0" y="442.0"/>
      <point x="1820.0" y="532.0"/>
      <point x="1875.0" y="604.0" type="curve" smooth="yes"/>
      <point x="1946.0" y="700.0"/>
      <point x="2044.0" y="740.0"/>
    </contour>
    <contour>
      <point x="849.0" y="898.0" type="curve"/>
      <point x="944.0" y="862.0"/>
      <point x="1006.0" y="806.0"/>
      <point x="1006.0" y="698.0" type="curve" smooth="yes"/>
      <point x="1006.0" y="595.0"/>
      <point x="941.0" y="524.0"/>
      <point x="843.0" y="508.0" type="curve" smooth="yes"/>
      <point x="823.0" y="505.0"/>
      <point x="805.0" y="506.0"/>
      <point x="786.0" y="505.0" type="curve"/>
      <point x="767.0" y="503.0"/>
      <point x="730.0" y="493.0"/>
      <point x="732.0" y="468.0" type="curve" smooth="yes"/>
      <point x="734.0" y="444.0"/>
      <point x="773.0" y="435.0"/>
      <point x="792.0" y="435.0" type="curve"/>
      <point x="810.0" y="434.0"/>
      <point x="828.0" y="436.0"/>
      <point x="846.0" y="435.0" type="curve" smooth="yes"/>
      <point x="954.0" y="426.0"/>
      <point x="1034.0" y="371.0"/>
      <point x="1033.0" y="254.0" type="curve" smooth="yes"/>
      <point x="1031.0" y="149.0"/>
      <point x="972.0" y="48.0"/>
      <point x="857.0" y="47.0" type="curve" smooth="yes"/>
      <point x="751.0" y="46.0"/>
      <point x="677.0" y="130.0"/>
      <point x="637.0" y="221.0" type="curve" smooth="yes"/>
      <point x="605.0" y="294.0"/>
      <point x="590.0" y="379.0"/>
      <point x="589.0" y="458.0" type="curve" smooth="yes"/>
      <point x="587.0" y="658.0"/>
      <point x="662.0" y="816.0"/>
    </contour>
  </outline>
</glyph>
<glyph name="ml_aa" format="2">
	<unicode hex="0D06"/>
	<advance height="2048" width="2782"/>
	<outline>
		<contour>
			<point x="2247" y="802" type="curve"/>
			<point x="2191" y="869"/>
			<point x="2128" y="918"/>
			<point x="2047" y="951" type="curve" smooth="yes"/>
			<point x="1972" y="983"/>
			<point x="1885" y="1000"/>
			<point x="1786" y="1000" type="curve" smooth="yes"/>
			<point x="1643" y="1000"/>
			<point x="1529" y="961"/>
			<point x="1425" y="861" type="curve"/>
			<point x="1323" y="967"/>
			<point x="1210" y="999"/>
			<point x="1065" y="1000" type="curve" smooth="yes"/>
			<point x="989" y="1001"/>
			<point x="915" y="993"/>
			<point x="841" y="974" type="curve"/>
			<point x="771" y="988"/>
			<point x="698" y="1001"/>
			<point x="625" y="1000" type="curve" smooth="yes"/>
			<point x="469" y="997"/>
			<point x="334" y="943"/>
			<point x="237" y="849" type="curve" smooth="yes"/>
			<point x="141" y="755"/>
			<point x="83" y="623"/>
			<point x="80" y="461" type="curve" smooth="yes"/>
			<point x="78" y="369"/>
			<point x="97" y="265"/>
			<point x="137" y="179" type="curve" smooth="yes"/>
			<point x="172" y="102"/>
			<point x="224" y="35"/>
			<point x="294" y="-11" type="curve" smooth="yes"/>
			<point x="317" y="-27"/>
			<point x="357" y="-27"/>
			<point x="382" y="-15" type="curve" smooth="yes"/>
			<point x="405" y="-4"/>
			<point x="413" y="18"/>
			<point x="389" y="34" type="curve" smooth="yes"/>
			<point x="329" y="74"/>
			<point x="284" y="135"/>
			<point x="254" y="204" type="curve" smooth="yes"/>
			<point x="220" y="284"/>
			<point x="204" y="381"/>
			<point x="204" y="461" type="curve" smooth="yes"/>
			<point x="205" y="541"/>
			<point x="222" y="620"/>
			<point x="257" y="690" type="curve" smooth="yes"/>
			<point x="289" y="756"/>
			<point x="337" y="814"/>
			<point x="401" y="858" type="curve" smooth="yes"/>
			<point x="436" y="882"/>
			<point x="471" y="898"/>
			<point x="507" y="910" type="curve" smooth="yes"/>
			<point x="546" y="921"/>
			<point x="584" y="927"/>
			<point x="624" y="928" type="curve" smooth="yes"/>
			<point x="654" y="929"/>
			<point x="683" y="927"/>
			<point x="713" y="926" type="curve"/>
			<point x="534" y="813"/>
			<point x="462" y="673"/>
			<point x="464" y="461" type="curve" smooth="yes"/>
			<point x="464" y="360"/>
			<point x="487" y="246"/>
			<point x="538" y="158" type="curve" smooth="yes"/>
			<point x="608" y="38"/>
			<point x="716" y="-25"/>
			<point x="855" y="-23" type="curve" smooth="yes"/>
			<point x="1023" y="-22"/>
			<point x="1153" y="77"/>
			<point x="1155" y="253" type="curve" smooth="yes"/>
			<point x="1156" y="371"/>
			<point x="1099" y="438"/>
			<point x="995" y="482" type="curve"/>
			<point x="1078" y="533"/>
			<point x="1128" y="598"/>
			<point x="1128" y="699" type="curve" smooth="yes"/>
			<point x="1128" y="810"/>
			<point x="1073" y="870"/>
			<point x="985" y="928" type="curve"/>
			<point x="1012" y="930"/>
			<point x="1038" y="933"/>
			<point x="1066" y="933" type="curve" smooth="yes"/>
			<point x="1257" y="930"/>
			<point x="1356" y="795"/>
			<point x="1356" y="614" type="curve" smooth="yes"/>
			<point x="1356" y="11" type="line" smooth="yes"/>
			<point x="1356" y="-15"/>
			<point x="1398" y="-23"/>
			<point x="1418" y="-23" type="curve" smooth="yes"/>
			<point x="1438" y="-23"/>
			<point x="1480" y="-15"/>
			<point x="1480" y="11" type="curve" smooth="yes"/>
			<point x="1480" y="614" type="line" smooth="yes"/>
			<point x="1480" y="805"/>
			<point x="1593" y="927"/>
			<point x="1786" y="931" type="curve" smooth="yes"/>
			<point x="1840" y="932"/>
			<point x="1896" y="923"/>
			<point x="1949" y="904" type="curve" smooth="yes"/>
			<point x="2010" y="882"/>
			<point x="2052" y="853"/>
			<point x="2099" y="811" type="curve"/>
			<point x="1960" y="793"/>
			<point x="1844" y="749"/>
			<point x="1757" y="634" type="curve" smooth="yes"/>
			<point x="1697" y="555"/>
			<point x="1666" y="454"/>
			<point x="1666" y="356" type="curve" smooth="yes"/>
			<point x="1666" y="276"/>
			<point x="1687" y="187"/>
			<point x="1731" y="120" type="curve" smooth="yes"/>
			<point x="1795" y="24"/>
			<point x="1898" y="-23"/>
			<point x="2012" y="-24" type="curve" smooth="yes"/>
			<point x="2132" y="-25"/>
			<point x="2236" y="30"/>
			<point x="2298" y="134" type="curve" smooth="yes"/>
			<point x="2348" y="217"/>
			<point x="2370" y="324"/>
			<point x="2371" y="420" type="curve" smooth="yes"/>
			<point x="2373" y="533"/>
			<point x="2351" y="606"/>
			<point x="2312" y="708" type="curve"/>
			<point x="2503" y="594"/>
			<point x="2592" y="397"/>
			<point x="2576" y="143" type="curve" smooth="yes"/>
			<point x="2561" y="-103"/>
			<point x="2421" y="-334"/>
			<point x="2153" y="-342" type="curve" smooth="yes"/>
			<point x="2060" y="-345"/>
			<point x="1960" y="-320"/>
			<point x="1887" y="-261" type="curve" smooth="yes"/>
			<point x="1865" y="-244"/>
			<point x="1825" y="-243"/>
			<point x="1800" y="-253" type="curve" smooth="yes"/>
			<point x="1778" y="-261"/>
			<point x="1761" y="-282"/>
			<point x="1785" y="-301" type="curve" smooth="yes"/>
			<point x="1887" y="-382"/>
			<point x="2022" y="-416"/>
			<point x="2151" y="-412" type="curve" smooth="yes"/>
			<point x="2474" y="-402"/>
			<point x="2681" y="-173"/>
			<point x="2700" y="143" type="curve" smooth="yes"/>
			<point x="2720" y="458"/>
			<point x="2572" y="736"/>
		</contour>
		<contour>
			<point x="2157" y="742" type="curve"/>
			<point x="2223" y="643"/>
			<point x="2248" y="538"/>
			<point x="2247" y="420" type="curve" smooth="yes"/>
			<point x="2246" y="332"/>
			<point x="2227" y="233"/>
			<point x="2181" y="156" type="curve" smooth="yes"/>
			<point x="2143" y="94"/>
			<point x="2090" y="45"/>
			<point x="2013" y="46" type="curve" smooth="yes"/>
			<point x="1941" y="47"/>
			<point x="1886" y="87"/>
			<point x="1848" y="144" type="curve" smooth="yes"/>
			<point x="1808" y="204"/>
			<point x="1791" y="285"/>
			<point x="1791" y="356" type="curve" smooth="yes"/>
			<point x="1791" y="446"/>
			<point x="1817" y="534"/>
			<point x="1871" y="607" type="curve" smooth="yes"/>
			<point x="1943" y="702"/>
			<point x="2040" y="742"/>
		</contour>
		<contour>
			<point x="848" y="899" type="curve"/>
			<point x="943" y="862"/>
			<point x="1004" y="807"/>
			<point x="1004" y="699" type="curve" smooth="yes"/>
			<point x="1004" y="598"/>
			<point x="939" y="527"/>
			<point x="841" y="511" type="curve" smooth="yes"/>
			<point x="822" y="508"/>
			<point x="804" y="509"/>
			<point x="784" y="508" type="curve"/>
			<point x="766" y="506"/>
			<point x="729" y="496"/>
			<point x="731" y="472" type="curve" smooth="yes"/>
			<point x="733" y="447"/>
			<point x="771" y="439"/>
			<point x="791" y="438" type="curve" smooth="yes"/>
			<point x="809" y="438"/>
			<point x="827" y="440"/>
			<point x="845" y="438" type="curve" smooth="yes"/>
			<point x="952" y="430"/>
			<point x="1032" y="369"/>
			<point x="1031" y="253" type="curve" smooth="yes"/>
			<point x="1029" y="148"/>
			<point x="970" y="47"/>
			<point x="856" y="46" type="curve" smooth="yes"/>
			<point x="750" y="45"/>
			<point x="676" y="129"/>
			<point x="636" y="219" type="curve" smooth="yes"/>
			<point x="604" y="292"/>
			<point x="589" y="382"/>
			<point x="588" y="461" type="curve" smooth="yes"/>
			<point x="586" y="660"/>
			<point x="661" y="817"/>
		</contour>
	</outline>
</glyph>
<glyph name="ml_i" format="2">
	<unicode hex="0D07"/>
	<advance height="2048" width="1808"/>
	<outline>
		<contour>
			<point x="602" y="269" type="curve" smooth="yes"/>
			<point x="662" y="319"/>
			<point x="695" y="388"/>
			<point x="696" y="466" type="curve" smooth="yes"/>
			<point x="696" y="543"/>
			<point x="665" y="622"/>
			<point x="604" y="672" type="curve" smooth="yes"/>
			<point x="547" y="719"/>
			<point x="467" y="738"/>
			<point x="394" y="735" type="curve" smooth="yes"/>
			<point x="323" y="733"/>
			<point x="243" y="701"/>
			<point x="210" y="641" type="curve"/>
			<point x="211" y="737"/>
			<point x="258" y="819"/>
			<point x="333" y="870" type="curve" smooth="yes"/>
			<point x="396" y="914"/>
			<point x="474" y="931"/>
			<point x="550" y="932" type="curve" smooth="yes"/>
			<point x="645" y="933"/>
			<point x="758" y="905"/>
			<point x="821" y="830" type="curve" smooth="yes"/>
			<point x="872" y="768"/>
			<point x="888" y="687"/>
			<point x="888" y="609" type="curve" smooth="yes"/>
			<point x="888" y="232" type="line" smooth="yes"/>
			<point x="888" y="206"/>
			<point x="931" y="197"/>
			<point x="951" y="197" type="curve" smooth="yes"/>
			<point x="972" y="197"/>
			<point x="1015" y="206"/>
			<point x="1015" y="232" type="curve" smooth="yes"/>
			<point x="1015" y="609" type="line" smooth="yes"/>
			<point x="1015" y="695"/>
			<point x="1035" y="782"/>
			<point x="1092" y="849" type="curve" smooth="yes"/>
			<point x="1142" y="907"/>
			<point x="1206" y="931"/>
			<point x="1282" y="930" type="curve" smooth="yes"/>
			<point x="1370" y="930"/>
			<point x="1446" y="897"/>
			<point x="1503" y="830" type="curve" smooth="yes"/>
			<point x="1579" y="740"/>
			<point x="1603" y="612"/>
			<point x="1602" y="498" type="curve"/>
			<point x="1602" y="400"/>
			<point x="1582" y="286"/>
			<point x="1524" y="203" type="curve" smooth="yes"/>
			<point x="1424" y="62"/>
			<point x="1265" y="40"/>
			<point x="1102" y="40" type="curve" smooth="yes"/>
			<point x="365" y="40" type="line" smooth="yes"/>
			<point x="228" y="40"/>
			<point x="80" y="-33"/>
			<point x="81" y="-188" type="curve" smooth="yes"/>
			<point x="83" y="-348"/>
			<point x="222" y="-412"/>
			<point x="365" y="-412" type="curve" smooth="yes"/>
			<point x="1588" y="-412" type="line" smooth="yes"/>
			<point x="1620" y="-412"/>
			<point x="1651" y="-386"/>
			<point x="1651" y="-353" type="curve" smooth="yes"/>
			<point x="1651" y="-320"/>
			<point x="1620" y="-294"/>
			<point x="1588" y="-294" type="curve" smooth="yes"/>
			<point x="365" y="-294" type="line" smooth="yes"/>
			<point x="285" y="-294"/>
			<point x="208" y="-248"/>
			<point x="208" y="-162" type="curve" smooth="yes"/>
			<point x="208" y="-73"/>
			<point x="284" y="-30"/>
			<point x="365" y="-30" type="curve" smooth="yes"/>
			<point x="1102" y="-30" type="line" smooth="yes"/>
			<point x="1297" y="-30"/>
			<point x="1522" y="9"/>
			<point x="1641" y="178" type="curve" smooth="yes"/>
			<point x="1706" y="269"/>
			<point x="1728" y="389"/>
			<point x="1728" y="498" type="curve" smooth="yes"/>
			<point x="1728" y="624"/>
			<point x="1700" y="761"/>
			<point x="1616" y="859" type="curve" smooth="yes"/>
			<point x="1532" y="959"/>
			<point x="1410" y="999"/>
			<point x="1281" y="1000" type="curve" smooth="yes"/>
			<point x="1134" y="1001"/>
			<point x="1038" y="957"/>
			<point x="949" y="842" type="curve"/>
			<point x="840" y="970"/>
			<point x="716" y="1003"/>
			<point x="551" y="1000" type="curve" smooth="yes"/>
			<point x="432" y="998"/>
			<point x="308" y="969"/>
			<point x="217" y="891" type="curve" smooth="yes"/>
			<point x="136" y="822"/>
			<point x="96" y="728"/>
			<point x="84" y="624" type="curve" smooth="yes"/>
			<point x="74" y="534"/>
			<point x="82" y="435"/>
			<point x="124" y="353" type="curve" smooth="yes"/>
			<point x="179" y="246"/>
			<point x="273" y="197"/>
			<point x="393" y="197" type="curve" smooth="yes"/>
			<point x="467" y="197"/>
			<point x="545" y="222"/>
		</contour>
		<contour>
			<point x="394" y="660" type="curve" smooth="yes"/>
			<point x="506" y="660"/>
			<point x="569" y="570"/>
			<point x="569" y="466" type="curve" smooth="yes"/>
			<point x="569" y="362"/>
			<point x="503" y="274"/>
			<point x="394" y="271" type="curve" smooth="yes"/>
			<point x="278" y="268"/>
			<point x="221" y="361"/>
			<point x="221" y="466" type="curve" smooth="yes"/>
			<point x="221" y="569"/>
			<point x="283" y="660"/>
		</contour>
	</outline>
</glyph>
<glyph name="ml_u" format="2">
	<unicode hex="0D09"/>
	<advance height="2048" width="1318"/>
	<outline>
		<contour>
			<point x="643" y="930" type="curve" smooth="yes"/>
			<point x="778" y="928"/>
			<point x="916" y="880"/>
			<point x="1000" y="773" type="curve" smooth="yes"/>
			<point x="1072" y="682"/>
			<point x="1095" y="565"/>
			<point x="1089" y="452" type="curve" smooth="yes"/>
			<point x="1083" y="329"/>
			<point x="1039" y="199"/>
			<point x="939" y="119" type="curve" smooth="yes"/>
			<point x="862" y="56"/>
			<point x="765" y="40"/>
			<point x="666" y="40" type="curve" smooth="yes"/>
			<point x="387" y="40" type="line" smooth="yes"/>
			<point x="249" y="40"/>
			<point x="100" y="-32"/>
			<point x="100" y="-185" type="curve" smooth="yes"/>
			<point x="100" y="-347"/>
			<point x="241" y="-412"/>
			<point x="387" y="-412" type="curve" smooth="yes"/>
			<point x="1104" y="-412" type="line" smooth="yes"/>
			<point x="1137" y="-412"/>
			<point x="1168" y="-386"/>
			<point x="1168" y="-353" type="curve" smooth="yes"/>
			<point x="1168" y="-320"/>
			<point x="1137" y="-294"/>
			<point x="1104" y="-294" type="curve" smooth="yes"/>
			<point x="387" y="-294" type="line" smooth="yes"/>
			<point x="307" y="-294"/>
			<point x="229" y="-248"/>
			<point x="229" y="-162" type="curve" smooth="yes"/>
			<point x="229" y="-73"/>
			<point x="305" y="-29"/>
			<point x="387" y="-29" type="curve" smooth="yes"/>
			<point x="666" y="-29" type="line" smooth="yes"/>
			<point x="783" y="-29"/>
			<point x="905" y="-14"/>
			<point x="1004" y="50" type="curve" smooth="yes"/>
			<point x="1141" y="138"/>
			<point x="1209" y="296"/>
			<point x="1217" y="452" type="curve" smooth="yes"/>
			<point x="1224" y="585"/>
			<point x="1187" y="721"/>
			<point x="1099" y="823" type="curve" smooth="yes"/>
			<point x="989" y="951"/>
			<point x="807" y="999"/>
			<point x="642" y="1000" type="curve" smooth="yes"/>
			<point x="511" y="1000"/>
			<point x="374" y="966"/>
			<point x="269" y="887" type="curve" smooth="yes"/>
			<point x="147" y="797"/>
			<point x="92" y="665"/>
			<point x="101" y="515" type="curve" smooth="yes"/>
			<point x="106" y="426"/>
			<point x="137" y="340"/>
			<point x="203" y="279" type="curve" smooth="yes"/>
			<point x="265" y="220"/>
			<point x="340" y="195"/>
			<point x="425" y="196" type="curve" smooth="yes"/>
			<point x="507" y="197"/>
			<point x="594" y="225"/>
			<point x="654" y="282" type="curve" smooth="yes"/>
			<point x="703" y="330"/>
			<point x="730" y="396"/>
			<point x="732" y="465" type="curve" smooth="yes"/>
			<point x="734" y="544"/>
			<point x="701" y="620"/>
			<point x="640" y="670" type="curve" smooth="yes"/>
			<point x="581" y="718"/>
			<point x="501" y="737"/>
			<point x="427" y="734" type="curve" smooth="yes"/>
			<point x="350" y="732"/>
			<point x="264" y="702"/>
			<point x="222" y="628" type="curve"/>
			<point x="228" y="700"/>
			<point x="270" y="790"/>
			<point x="353" y="850" type="curve" smooth="yes"/>
			<point x="436" y="910"/>
			<point x="542" y="932"/>
		</contour>
		<contour>
			<point x="252" y="465" type="curve" smooth="yes"/>
			<point x="252" y="571"/>
			<point x="313" y="659"/>
			<point x="427" y="659" type="curve" smooth="yes"/>
			<point x="537" y="659"/>
			<point x="605" y="570"/>
			<point x="605" y="464" type="curve" smooth="yes"/>
			<point x="605" y="358"/>
			<point x="537" y="273"/>
			<point x="427" y="270" type="curve" smooth="yes"/>
			<point x="313" y="267"/>
			<point x="252" y="359"/>
		</contour>
	</outline>
</glyph>
<glyph name="ml_r" format="2">
	<unicode hex="0D0B"/>
	<advance height="2048" width="1557"/>
	<outline>
		<contour>
			<point x="223" y="731" type="curve" smooth="yes"/>
			<point x="223" y="777"/>
			<point x="235" y="827"/>
			<point x="263" y="864" type="curve" smooth="yes"/>
			<point x="295" y="908"/>
			<point x="343" y="927"/>
			<point x="397" y="926" type="curve" smooth="yes"/>
			<point x="448" y="925"/>
			<point x="496" y="904"/>
			<point x="529" y="865" type="curve" smooth="yes"/>
			<point x="556" y="833"/>
			<point x="573" y="788"/>
			<point x="573" y="731" type="curve" smooth="yes"/>
			<point x="573" y="680"/>
			<point x="559" y="626"/>
			<point x="522" y="588" type="curve" smooth="yes"/>
			<point x="490" y="554"/>
			<point x="446" y="537"/>
			<point x="401" y="537" type="curve" smooth="yes"/>
			<point x="350" y="537"/>
			<point x="300" y="558"/>
			<point x="267" y="597" type="curve" smooth="yes"/>
			<point x="241" y="629"/>
			<point x="223" y="674"/>
		</contour>
		<contour>
			<point x="400" y="462" type="curve" smooth="yes"/>
			<point x="474" y="459"/>
			<point x="549" y="478"/>
			<point x="607" y="526" type="curve" smooth="yes"/>
			<point x="670" y="577"/>
			<point x="699" y="651"/>
			<point x="699" y="732" type="curve" smooth="yes"/>
			<point x="699" y="800"/>
			<point x="670" y="865"/>
			<point x="621" y="914" type="curve" smooth="yes"/>
			<point x="561" y="972"/>
			<point x="480" y="1000"/>
			<point x="397" y="1000" type="curve" smooth="yes"/>
			<point x="315" y="1000"/>
			<point x="249" y="975"/>
			<point x="201" y="931" type="curve" smooth="yes"/>
			<point x="148" y="882"/>
			<point x="115" y="810"/>
			<point x="104" y="725" type="curve" smooth="yes"/>
			<point x="97" y="671"/>
			<point x="99" y="618"/>
			<point x="110" y="565" type="curve" smooth="yes"/>
			<point x="136" y="451"/>
			<point x="206" y="360"/>
			<point x="305" y="300" type="curve" smooth="yes"/>
			<point x="364" y="264"/>
			<point x="422" y="246"/>
			<point x="488" y="227" type="curve"/>
			<point x="349" y="186"/>
			<point x="168" y="110"/>
			<point x="170" y="-61" type="curve" smooth="yes"/>
			<point x="173" y="-329"/>
			<point x="570" y="-412"/>
			<point x="782" y="-412" type="curve" smooth="yes"/>
			<point x="992" y="-412"/>
			<point x="1384" y="-326"/>
			<point x="1387" y="-61" type="curve" smooth="yes"/>
			<point x="1389" y="110"/>
			<point x="1208" y="186"/>
			<point x="1069" y="227" type="curve"/>
			<point x="1135" y="246"/>
			<point x="1193" y="264"/>
			<point x="1252" y="300" type="curve" smooth="yes"/>
			<point x="1351" y="360"/>
			<point x="1421" y="451"/>
			<point x="1447" y="565" type="curve" smooth="yes"/>
			<point x="1459" y="618"/>
			<point x="1460" y="671"/>
			<point x="1453" y="725" type="curve" smooth="yes"/>
			<point x="1442" y="810"/>
			<point x="1409" y="882"/>
			<point x="1356" y="931" type="curve" smooth="yes"/>
			<point x="1308" y="975"/>
			<point x="1242" y="1000"/>
			<point x="1160" y="1000" type="curve" smooth="yes"/>
			<point x="1077" y="1000"/>
			<point x="996" y="972"/>
			<point x="936" y="914" type="curve" smooth="yes"/>
			<point x="887" y="865"/>
			<point x="858" y="800"/>
			<point x="858" y="732" type="curve" smooth="yes"/>
			<point x="858" y="651"/>
			<point x="887" y="577"/>
			<point x="950" y="526" type="curve" smooth="yes"/>
			<point x="1008" y="478"/>
			<point x="1083" y="459"/>
			<point x="1157" y="462" type="curve" smooth="yes"/>
			<point x="1243" y="465"/>
			<point x="1309" y="506"/>
			<point x="1352" y="551" type="curve"/>
			<point x="1315" y="447"/>
			<point x="1238" y="357"/>
			<point x="1088" y="306" type="curve" smooth="yes"/>
			<point x="990" y="273"/>
			<point x="879" y="269"/>
			<point x="779" y="269" type="curve" smooth="yes"/>
			<point x="679" y="268"/>
			<point x="568" y="275"/>
			<point x="470" y="306" type="curve" smooth="yes"/>
			<point x="351" y="345"/>
			<point x="246" y="430"/>
			<point x="205" y="551" type="curve"/>
			<point x="244" y="509"/>
			<point x="314" y="465"/>
		</contour>
		<contour>
			<point x="1334" y="731" type="curve" smooth="yes"/>
			<point x="1334" y="628"/>
			<point x="1271" y="539"/>
			<point x="1160" y="537" type="curve" smooth="yes"/>
			<point x="1045" y="535"/>
			<point x="984" y="627"/>
			<point x="984" y="731" type="curve" smooth="yes"/>
			<point x="984" y="835"/>
			<point x="1050" y="924"/>
			<point x="1160" y="926" type="curve" smooth="yes"/>
			<point x="1276" y="928"/>
			<point x="1334" y="836"/>
		</contour>
		<contour>
			<point x="782" y="-342" type="curve" smooth="yes"/>
			<point x="614" y="-342"/>
			<point x="298" y="-273"/>
			<point x="298" y="-61" type="curve" smooth="yes"/>
			<point x="297" y="151"/>
			<point x="617" y="200"/>
			<point x="779" y="198" type="curve" smooth="yes"/>
			<point x="939" y="196"/>
			<point x="1260" y="148"/>
			<point x="1259" y="-61" type="curve"/>
			<point x="1259" y="-274"/>
			<point x="950" y="-342"/>
		</contour>
	</outline>
</glyph>
<glyph name="ml_l" format="2">
	<unicode hex="0D0C"/>
	<advance height="2048" width="2118"/>
	<outline>
		<contour>
			<point x="1422" y="1000" type="curve" smooth="yes"/>
			<point x="1638" y="1000"/>
			<point x="1798" y="922"/>
			<point x="1902" y="789" type="curve" smooth="yes"/>
			<point x="1985" y="682"/>
			<point x="2020" y="553"/>
			<point x="2018" y="418" type="curve" smooth="yes"/>
			<point x="2016" y="319"/>
			<point x="1994" y="220"/>
			<point x="1945" y="139" type="curve" smooth="yes"/>
			<point x="1876" y="25"/>
			<point x="1762" y="-25"/>
			<point x="1643" y="-24" type="curve" smooth="yes"/>
			<point x="1525" y="-23"/>
			<point x="1416" y="24"/>
			<point x="1349" y="125" type="curve" smooth="yes"/>
			<point x="1306" y="190"/>
			<point x="1284" y="271"/>
			<point x="1284" y="355" type="curve" smooth="yes"/>
			<point x="1284" y="453"/>
			<point x="1315" y="554"/>
			<point x="1374" y="633" type="curve" smooth="yes"/>
			<point x="1452" y="736"/>
			<point x="1571" y="794"/>
			<point x="1698" y="810" type="curve"/>
			<point x="1623" y="877"/>
			<point x="1519" y="912"/>
			<point x="1422" y="910" type="curve" smooth="yes"/>
			<point x="1233" y="906"/>
			<point x="1140" y="777"/>
			<point x="1140" y="608" type="curve" smooth="yes"/>
			<point x="1140" y="22" type="line" smooth="yes"/>
			<point x="1140" y="-3"/>
			<point x="1104" y="-23"/>
			<point x="1059" y="-23" type="curve" smooth="yes"/>
			<point x="1014" y="-23"/>
			<point x="977" y="-3"/>
			<point x="977" y="22" type="curve" smooth="yes"/>
			<point x="977" y="608" type="line" smooth="yes"/>
			<point x="977" y="777"/>
			<point x="885" y="906"/>
			<point x="696" y="910" type="curve" smooth="yes"/>
			<point x="599" y="912"/>
			<point x="495" y="877"/>
			<point x="420" y="810" type="curve"/>
			<point x="547" y="794"/>
			<point x="666" y="736"/>
			<point x="744" y="633" type="curve" smooth="yes"/>
			<point x="803" y="554"/>
			<point x="834" y="453"/>
			<point x="834" y="355" type="curve" smooth="yes"/>
			<point x="834" y="271"/>
			<point x="812" y="190"/>
			<point x="769" y="125" type="curve" smooth="yes"/>
			<point x="702" y="24"/>
			<point x="593" y="-23"/>
			<point x="475" y="-24" type="curve" smooth="yes"/>
			<point x="356" y="-25"/>
			<point x="242" y="25"/>
			<point x="173" y="139" type="curve" smooth="yes"/>
			<point x="124" y="220"/>
			<point x="102" y="319"/>
			<point x="100" y="418" type="curve" smooth="yes"/>
			<point x="98" y="553"/>
			<point x="133" y="682"/>
			<point x="216" y="789" type="curve" smooth="yes"/>
			<point x="320" y="922"/>
			<point x="480" y="1000"/>
			<point x="696" y="1000" type="curve" smooth="yes"/>
			<point x="848" y="1000"/>
			<point x="959" y="962"/>
			<point x="1059" y="856" type="curve"/>
			<point x="1159" y="962"/>
			<point x="1270" y="1000"/>
		</contour>
		<contour>
			<point x="345" y="723" type="curve"/>
			<point x="284" y="633"/>
			<point x="261" y="526"/>
			<point x="263" y="418" type="curve" smooth="yes"/>
			<point x="264" y="330"/>
			<point x="283" y="240"/>
			<point x="327" y="168" type="curve" smooth="yes"/>
			<point x="368" y="101"/>
			<point x="417" y="67"/>
			<point x="473" y="67" type="curve" smooth="yes"/>
			<point x="535" y="68"/>
			<point x="584" y="107"/>
			<point x="617" y="157" type="curve" smooth="yes"/>
			<point x="653" y="211"/>
			<point x="672" y="281"/>
			<point x="672" y="355" type="curve" smooth="yes"/>
			<point x="672" y="441"/>
			<point x="647" y="528"/>
			<point x="594" y="597" type="curve" smooth="yes"/>
			<point x="534" y="677"/>
			<point x="445" y="723"/>
		</contour>
		<contour>
			<point x="1773" y="723" type="curve"/>
			<point x="1673" y="723"/>
			<point x="1584" y="677"/>
			<point x="1524" y="597" type="curve" smooth="yes"/>
			<point x="1471" y="528"/>
			<point x="1446" y="441"/>
			<point x="1446" y="355" type="curve" smooth="yes"/>
			<point x="1446" y="281"/>
			<point x="1465" y="211"/>
			<point x="1501" y="157" type="curve" smooth="yes"/>
			<point x="1534" y="107"/>
			<point x="1583" y="68"/>
			<point x="1645" y="67" type="curve" smooth="yes"/>
			<point x="1701" y="67"/>
			<point x="1750" y="101"/>
			<point x="1791" y="168" type="curve" smooth="yes"/>
			<point x="1835" y="240"/>
			<point x="1854" y="330"/>
			<point x="1855" y="418" type="curve" smooth="yes"/>
			<point x="1857" y="526"/>
			<point x="1834" y="633"/>
		</contour>
	</outline>
</glyph>
<glyph name="ml_e" format="2">
	<unicode hex="0D0E"/>
	<advance height="2048" width="2156"/>
	<outline>
		<contour>
			<point x="369" y="70" type="curve" smooth="yes"/>
			<point x="404" y="54"/>
			<point x="410" y="25"/>
			<point x="382" y="6" type="curve" smooth="yes"/>
			<point x="349" y="-17"/>
			<point x="298" y="-16"/>
			<point x="262" y="1" type="curve" smooth="yes"/>
			<point x="158" y="50"/>
			<point x="100" y="149"/>
			<point x="100" y="264" type="curve" smooth="yes"/>
			<point x="100" y="460"/>
			<point x="276" y="564"/>
			<point x="452" y="563" type="curve" smooth="yes"/>
			<point x="627" y="563"/>
			<point x="802" y="460"/>
			<point x="802" y="265" type="curve" smooth="yes"/>
			<point x="802" y="200"/>
			<point x="784" y="141"/>
			<point x="750" y="92" type="curve"/>
			<point x="967" y="92" type="line"/>
			<point x="961" y="160"/>
			<point x="959" y="229"/>
			<point x="962" y="300" type="curve" smooth="yes"/>
			<point x="977" y="643"/>
			<point x="1110" y="1000"/>
			<point x="1511" y="1000" type="curve" smooth="yes"/>
			<point x="1931" y="1000"/>
			<point x="2047" y="620"/>
			<point x="2056" y="267" type="curve" smooth="yes"/>
			<point x="2060" y="69"/>
			<point x="2019" y="-233"/>
			<point x="1869" y="-376" type="curve" smooth="yes"/>
			<point x="1846" y="-398"/>
			<point x="1797" y="-405"/>
			<point x="1758" y="-393" type="curve" smooth="yes"/>
			<point x="1719" y="-380"/>
			<point x="1706" y="-352"/>
			<point x="1729" y="-330" type="curve" smooth="yes"/>
			<point x="1862" y="-203"/>
			<point x="1897" y="92"/>
			<point x="1893" y="267" type="curve" smooth="yes"/>
			<point x="1888" y="501"/>
			<point x="1818" y="909"/>
			<point x="1511" y="909" type="curve" smooth="yes"/>
			<point x="1219" y="909"/>
			<point x="1135" y="528"/>
			<point x="1125" y="300" type="curve" smooth="yes"/>
			<point x="1121" y="229"/>
			<point x="1123" y="159"/>
			<point x="1130" y="92" type="curve"/>
			<point x="1430" y="92" type="line"/>
			<point x="1430" y="724" type="line" smooth="yes"/>
			<point x="1430" y="750"/>
			<point x="1467" y="770"/>
			<point x="1512" y="770" type="curve" smooth="yes"/>
			<point x="1557" y="770"/>
			<point x="1593" y="750"/>
			<point x="1593" y="724" type="curve" smooth="yes"/>
			<point x="1593" y="46" type="line" smooth="yes"/>
			<point x="1593" y="-43"/>
			<point x="1596" y="-168"/>
			<point x="1570" y="-253" type="curve" smooth="yes"/>
			<point x="1542" y="-348"/>
			<point x="1480" y="-403"/>
			<point x="1348" y="-399" type="curve" smooth="yes"/>
			<point x="1112" y="-393"/>
			<point x="1017" y="-202"/>
			<point x="980" y="1" type="curve"/>
			<point x="606" y="1" type="line" smooth="yes"/>
			<point x="561" y="1"/>
			<point x="525" y="21"/>
			<point x="525" y="46" type="curve" smooth="yes"/>
			<point x="525" y="61"/>
			<point x="536" y="72"/>
			<point x="548" y="79" type="curve" smooth="yes"/>
			<point x="613" y="117"/>
			<point x="639" y="193"/>
			<point x="639" y="265" type="curve" smooth="yes"/>
			<point x="639" y="399"/>
			<point x="546" y="472"/>
			<point x="452" y="472" type="curve" smooth="yes"/>
			<point x="358" y="472"/>
			<point x="263" y="398"/>
			<point x="263" y="264" type="curve" smooth="yes"/>
			<point x="263" y="187"/>
			<point x="296" y="103"/>
		</contour>
		<contour>
			<point x="1430" y="1" type="curve"/>
			<point x="1144" y="1" type="line"/>
			<point x="1163" y="-101"/>
			<point x="1225" y="-302"/>
			<point x="1348" y="-308" type="curve" smooth="yes"/>
			<point x="1398" y="-311"/>
			<point x="1418" y="-230"/>
			<point x="1426" y="-149" type="curve" smooth="yes"/>
			<point x="1432" y="-86"/>
			<point x="1430" y="-23"/>
		</contour>
	</outline>
</glyph>
<glyph name="ml_ee" format="2">
	<unicode hex="0D0F"/>
	<advance height="2048" width="2204"/>
	<outline>
		<contour>
			<point x="1760" y="135" type="curve" smooth="yes"/>
			<point x="1787" y="134"/>
			<point x="1813" y="138"/>
			<point x="1840" y="134" type="curve" smooth="yes"/>
			<point x="1938" y="119"/>
			<point x="1980" y="0"/>
			<point x="1979" y="-88" type="curve" smooth="yes"/>
			<point x="1978" y="-187"/>
			<point x="1928" y="-327"/>
			<point x="1809" y="-329" type="curve" smooth="yes"/>
			<point x="1791" y="-329"/>
			<point x="1774" y="-326"/>
			<point x="1757" y="-320" type="curve" smooth="yes"/>
			<point x="1743" y="-315"/>
			<point x="1726" y="-314"/>
			<point x="1710" y="-316" type="curve" smooth="yes"/>
			<point x="1662" y="-322"/>
			<point x="1639" y="-361"/>
			<point x="1690" y="-379" type="curve" smooth="yes"/>
			<point x="1728" y="-393"/>
			<point x="1768" y="-399"/>
			<point x="1808" y="-399" type="curve" smooth="yes"/>
			<point x="1994" y="-397"/>
			<point x="2102" y="-267"/>
			<point x="2104" y="-87" type="curve" smooth="yes"/>
			<point x="2105" y="30"/>
			<point x="2057" y="122"/>
			<point x="1953" y="179" type="curve"/>
			<point x="2066" y="257"/>
			<point x="2099" y="384"/>
			<point x="2099" y="515" type="curve" smooth="yes"/>
			<point x="2098" y="814"/>
			<point x="1845" y="1002"/>
			<point x="1560" y="1000" type="curve" smooth="yes"/>
			<point x="1143" y="997"/>
			<point x="989" y="650"/>
			<point x="978" y="281" type="curve" smooth="yes"/>
			<point x="976" y="212"/>
			<point x="978" y="139"/>
			<point x="986" y="70" type="curve"/>
			<point x="713" y="70" type="line"/>
			<point x="756" y="131"/>
			<point x="775" y="188"/>
			<point x="775" y="264" type="curve" smooth="yes"/>
			<point x="775" y="450"/>
			<point x="613" y="556"/>
			<point x="439" y="556" type="curve" smooth="yes"/>
			<point x="265" y="556"/>
			<point x="100" y="452"/>
			<point x="100" y="264" type="curve" smooth="yes"/>
			<point x="100" y="152"/>
			<point x="156" y="45"/>
			<point x="260" y="-3" type="curve" smooth="yes"/>
			<point x="287" y="-15"/>
			<point x="327" y="-16"/>
			<point x="351" y="1" type="curve" smooth="yes"/>
			<point x="375" y="18"/>
			<point x="365" y="39"/>
			<point x="342" y="50" type="curve" smooth="yes"/>
			<point x="261" y="86"/>
			<point x="226" y="181"/>
			<point x="226" y="264" type="curve" smooth="yes"/>
			<point x="226" y="388"/>
			<point x="311" y="486"/>
			<point x="439" y="486" type="curve" smooth="yes"/>
			<point x="568" y="486"/>
			<point x="650" y="387"/>
			<point x="650" y="264" type="curve" smooth="yes"/>
			<point x="650" y="187"/>
			<point x="621" y="101"/>
			<point x="551" y="60" type="curve" smooth="yes"/>
			<point x="528" y="47"/>
			<point x="527" y="24"/>
			<point x="552" y="11" type="curve"/>
			<point x="563" y="4"/>
			<point x="579" y="0"/>
			<point x="597" y="0" type="curve" smooth="yes"/>
			<point x="996" y="0" type="line"/>
			<point x="1033" y="-198"/>
			<point x="1121" y="-394"/>
			<point x="1354" y="-400" type="curve" smooth="yes"/>
			<point x="1460" y="-402"/>
			<point x="1528" y="-365"/>
			<point x="1560" y="-261" type="curve" smooth="yes"/>
			<point x="1584" y="-182"/>
			<point x="1583" y="-67"/>
			<point x="1583" y="21" type="curve" smooth="yes"/>
			<point x="1583" y="244"/>
			<point x="1583" y="499"/>
			<point x="1583" y="732" type="curve" smooth="yes"/>
			<point x="1583" y="759"/>
			<point x="1540" y="767"/>
			<point x="1520" y="767" type="curve" smooth="yes"/>
			<point x="1500" y="767"/>
			<point x="1458" y="759"/>
			<point x="1458" y="732" type="curve" smooth="yes"/>
			<point x="1458" y="70" type="line"/>
			<point x="1111" y="70" type="line"/>
			<point x="1103" y="139"/>
			<point x="1101" y="213"/>
			<point x="1103" y="281" type="curve" smooth="yes"/>
			<point x="1111" y="563"/>
			<point x="1221" y="927"/>
			<point x="1560" y="930" type="curve" smooth="yes"/>
			<point x="1795" y="933"/>
			<point x="1973" y="746"/>
			<point x="1974" y="514" type="curve" smooth="yes"/>
			<point x="1974" y="417"/>
			<point x="1943" y="249"/>
			<point x="1835" y="214" type="curve" smooth="yes"/>
			<point x="1807" y="205"/>
			<point x="1786" y="206"/>
			<point x="1758" y="205" type="curve" smooth="yes"/>
			<point x="1739" y="204"/>
			<point x="1703" y="194"/>
			<point x="1702" y="171" type="curve" smooth="yes"/>
			<point x="1701" y="146"/>
			<point x="1741" y="136"/>
		</contour>
		<contour>
			<point x="1121" y="0" type="curve"/>
			<point x="1458" y="0" type="line"/>
			<point x="1457" y="-53"/>
			<point x="1458" y="-98"/>
			<point x="1453" y="-151" type="curve" smooth="yes"/>
			<point x="1448" y="-212"/>
			<point x="1435" y="-334"/>
			<point x="1351" y="-330" type="curve" smooth="yes"/>
			<point x="1206" y="-322"/>
			<point x="1144" y="-115"/>
		</contour>
	</outline>
</glyph>
<glyph name="ml_o" format="2">
  <advance height="2048" width="1361.0"/>
  <unicode hex="0D12"/>
  <outline>
    <contour>
      <point x="756.0" y="286.0" type="curve" smooth="yes"/>
      <point x="758.0" y="368.0"/>
      <point x="735.0" y="447.0"/>
      <point x="677.0" y="507.0" type="curve" smooth="yes"/>
      <point x="616.0" y="571.0"/>
      <point x="526.0" y="604.0"/>
      <point x="437.0" y="601.0" type="curve" smooth="yes"/>
      <point x="324.0" y="597.0"/>
      <point x="242.0" y="548.0"/>
      <point x="205.0" y="465.0" type="curve"/>
      <point x="212.0" y="570.0"/>
      <point x="242.0" y="704.0"/>
      <point x="345.0" y="801.0" type="curve" smooth="yes"/>
      <point x="444.0" y="894.0"/>
      <point x="581.0" y="927.0"/>
      <point x="714.0" y="929.0" type="curve" smooth="yes"/>
      <point x="815.0" y="931.0"/>
      <point x="942.0" y="910.0"/>
      <point x="1025.0" y="851.0" type="curve" smooth="yes"/>
      <point x="1085.0" y="808.0"/>
      <point x="1121.0" y="750.0"/>
      <point x="1123.0" y="676.0" type="curve" smooth="yes"/>
      <point x="1125.0" y="629.0"/>
      <point x="1109.0" y="582.0"/>
      <point x="1074.0" y="549.0" type="curve" smooth="yes"/>
      <point x="1049.0" y="526.0"/>
      <point x="1017.0" y="512.0"/>
      <point x="983.0" y="506.0" type="curve" smooth="yes"/>
      <point x="964.0" y="503.0"/>
      <point x="946.0" y="504.0"/>
      <point x="927.0" y="502.0" type="curve" smooth="yes"/>
      <point x="909.0" y="501.0"/>
      <point x="871.0" y="490.0"/>
      <point x="873.0" y="466.0" type="curve" smooth="yes"/>
      <point x="875.0" y="443.0"/>
      <point x="910.0" y="434.0"/>
      <point x="928.0" y="433.0" type="curve"/>
      <point x="945.0" y="431.0"/>
      <point x="962.0" y="434.0"/>
      <point x="979.0" y="433.0" type="curve" smooth="yes"/>
      <point x="1017.0" y="431.0"/>
      <point x="1057.0" y="419.0"/>
      <point x="1087.0" y="394.0" type="curve" smooth="yes"/>
      <point x="1132.0" y="358.0"/>
      <point x="1155.0" y="304.0"/>
      <point x="1154.0" y="247.0" type="curve" smooth="yes"/>
      <point x="1153.0" y="195.0"/>
      <point x="1133.0" y="148.0"/>
      <point x="1101.0" y="108.0" type="curve" smooth="yes"/>
      <point x="1070.0" y="71.0"/>
      <point x="1025.0" y="47.0"/>
      <point x="977.0" y="47.0" type="curve" smooth="yes"/>
      <point x="955.0" y="46.0"/>
      <point x="933.0" y="51.0"/>
      <point x="913.0" y="58.0" type="curve" smooth="yes"/>
      <point x="887.0" y="67.0"/>
      <point x="846.0" y="65.0"/>
      <point x="825.0" y="47.0" type="curve" smooth="yes"/>
      <point x="802.0" y="27.0"/>
      <point x="823.0" y="6.0"/>
      <point x="845.0" y="-2.0" type="curve" smooth="yes"/>
      <point x="888.0" y="-17.0"/>
      <point x="930.0" y="-25.0"/>
      <point x="976.0" y="-24.0" type="curve" smooth="yes"/>
      <point x="1063.0" y="-22.0"/>
      <point x="1160.0" y="11.0"/>
      <point x="1216.0" y="79.0" type="curve" smooth="yes"/>
      <point x="1255.0" y="126.0"/>
      <point x="1280.0" y="185.0"/>
      <point x="1281.0" y="247.0" type="curve" smooth="yes"/>
      <point x="1282.0" y="355.0"/>
      <point x="1220.0" y="426.0"/>
      <point x="1128.0" y="473.0" type="curve"/>
      <point x="1205.0" y="521.0"/>
      <point x="1252.0" y="582.0"/>
      <point x="1250.0" y="675.0" type="curve" smooth="yes"/>
      <point x="1247.0" y="803.0"/>
      <point x="1170.0" y="885.0"/>
      <point x="1058.0" y="937.0" type="curve" smooth="yes"/>
      <point x="955.0" y="984.0"/>
      <point x="829.0" y="1002.0"/>
      <point x="716.0" y="1000.0" type="curve" smooth="yes"/>
      <point x="573.0" y="997.0"/>
      <point x="424.0" y="962.0"/>
      <point x="304.0" y="881.0" type="curve" smooth="yes"/>
      <point x="164.0" y="786.0"/>
      <point x="91.0" y="646.0"/>
      <point x="82.0" y="480.0" type="curve" smooth="yes"/>
      <point x="76.0" y="372.0"/>
      <point x="85.0" y="260.0"/>
      <point x="134.0" y="162.0" type="curve" smooth="yes"/>
      <point x="195.0" y="41.0"/>
      <point x="298.0" y="-25.0"/>
      <point x="436.0" y="-24.0" type="curve" smooth="yes"/>
      <point x="512.0" y="-23.0"/>
      <point x="591.0" y="2.0"/>
      <point x="651.0" y="50.0" type="curve" smooth="yes"/>
      <point x="720.0" y="108.0"/>
      <point x="754.0" y="198.0"/>
    </contour>
    <contour>
      <point x="235.0" y="286.0" type="curve" smooth="yes"/>
      <point x="235.0" y="406.0"/>
      <point x="301.0" y="524.0"/>
      <point x="436.0" y="525.0" type="curve" smooth="yes"/>
      <point x="572.0" y="526.0"/>
      <point x="637.0" y="406.0"/>
      <point x="637.0" y="286.0" type="curve" smooth="yes"/>
      <point x="637.0" y="166.0"/>
      <point x="570.0" y="46.0"/>
      <point x="436.0" y="47.0" type="curve" smooth="yes"/>
      <point x="300.0" y="47.0"/>
      <point x="234.0" y="164.0"/>
    </contour>
  </outline>
</glyph>
<glyph name="k1" format="2">
	<unicode hex="0D15"/>
	<advance height="2048" width="1927"/>
	<outline>
		<contour>
			<point x="964" y="1000" type="curve" smooth="yes"/>
			<point x="821" y="1000"/>
			<point x="700" y="952"/>
			<point x="629" y="824" type="curve" smooth="yes"/>
			<point x="581" y="738"/>
			<point x="567" y="637"/>
			<point x="562" y="541" type="curve"/>
			<point x="457" y="541" type="line" smooth="yes"/>
			<point x="356" y="541"/>
			<point x="252" y="515"/>
			<point x="179" y="442" type="curve" smooth="yes"/>
			<point x="129" y="392"/>
			<point x="101" y="323"/>
			<point x="100" y="252" type="curve" smooth="yes"/>
			<point x="99" y="181"/>
			<point x="127" y="114"/>
			<point x="178" y="64" type="curve" smooth="yes"/>
			<point x="238" y="5"/>
			<point x="324" y="-24"/>
			<point x="408" y="-24" type="curve" smooth="yes"/>
			<point x="526" y="-24"/>
			<point x="591" y="19"/>
			<point x="652" y="115" type="curve"/>
			<point x="742" y="11"/>
			<point x="824" y="-24"/>
			<point x="964" y="-24" type="curve" smooth="yes"/>
			<point x="1104" y="-24"/>
			<point x="1223" y="22"/>
			<point x="1295" y="148" type="curve" smooth="yes"/>
			<point x="1349" y="244"/>
			<point x="1363" y="362"/>
			<point x="1366" y="470" type="curve"/>
			<point x="1460" y="470" type="line" smooth="yes"/>
			<point x="1535" y="470"/>
			<point x="1608" y="446"/>
			<point x="1656" y="386" type="curve" smooth="yes"/>
			<point x="1687" y="347"/>
			<point x="1703" y="296"/>
			<point x="1702" y="246" type="curve"/>
			<point x="1702" y="202"/>
			<point x="1686" y="156"/>
			<point x="1660" y="121" type="curve" smooth="yes"/>
			<point x="1627" y="75"/>
			<point x="1580" y="48"/>
			<point x="1524" y="47" type="curve" smooth="yes"/>
			<point x="1506" y="47"/>
			<point x="1489" y="50"/>
			<point x="1472" y="55" type="curve" smooth="yes"/>
			<point x="1447" y="62"/>
			<point x="1406" y="61"/>
			<point x="1387" y="41" type="curve" smooth="yes"/>
			<point x="1366" y="19"/>
			<point x="1391" y="0"/>
			<point x="1412" y="-7" type="curve" smooth="yes"/>
			<point x="1448" y="-18"/>
			<point x="1485" y="-24"/>
			<point x="1523" y="-23" type="curve" smooth="yes"/>
			<point x="1604" y="-23"/>
			<point x="1688" y="7"/>
			<point x="1748" y="64" type="curve" smooth="yes"/>
			<point x="1800" y="113"/>
			<point x="1827" y="177"/>
			<point x="1827" y="249" type="curve" smooth="yes"/>
			<point x="1827" y="337"/>
			<point x="1794" y="413"/>
			<point x="1722" y="466" type="curve" smooth="yes"/>
			<point x="1649" y="521"/>
			<point x="1550" y="541"/>
			<point x="1460" y="541" type="curve" smooth="yes"/>
			<point x="1365" y="541" type="line"/>
			<point x="1360" y="637"/>
			<point x="1346" y="739"/>
			<point x="1298" y="825" type="curve" smooth="yes"/>
			<point x="1226" y="953"/>
			<point x="1106" y="1000"/>
		</contour>
		<contour>
			<point x="575" y="320" type="curve" smooth="yes"/>
			<point x="588" y="245"/>
			<point x="576" y="157"/>
			<point x="523" y="100" type="curve" smooth="yes"/>
			<point x="493" y="68"/>
			<point x="452" y="46"/>
			<point x="407" y="46" type="curve" smooth="yes"/>
			<point x="362" y="46"/>
			<point x="319" y="67"/>
			<point x="287" y="98" type="curve" smooth="yes"/>
			<point x="245" y="140"/>
			<point x="224" y="196"/>
			<point x="226" y="255" type="curve" smooth="yes"/>
			<point x="227" y="311"/>
			<point x="248" y="368"/>
			<point x="289" y="408" type="curve" smooth="yes"/>
			<point x="334" y="453"/>
			<point x="394" y="470"/>
			<point x="457" y="470" type="curve" smooth="yes"/>
			<point x="561" y="470" type="line"/>
			<point x="563" y="419"/>
			<point x="566" y="370"/>
		</contour>
		<contour>
			<point x="1240" y="470" type="line"/>
			<point x="1238" y="369"/>
			<point x="1226" y="258"/>
			<point x="1175" y="169" type="curve" smooth="yes"/>
			<point x="1129" y="88"/>
			<point x="1058" y="46"/>
			<point x="964" y="46" type="curve" smooth="yes"/>
			<point x="870" y="46"/>
			<point x="799" y="87"/>
			<point x="752" y="168" type="curve" smooth="yes"/>
			<point x="701" y="257"/>
			<point x="690" y="369"/>
			<point x="687" y="470" type="curve"/>
		</contour>
		<contour>
			<point x="688" y="541" type="line"/>
			<point x="692" y="630"/>
			<point x="705" y="724"/>
			<point x="749" y="803" type="curve" smooth="yes"/>
			<point x="795" y="887"/>
			<point x="867" y="930"/>
			<point x="964" y="930" type="curve" smooth="yes"/>
			<point x="1059" y="930"/>
			<point x="1131" y="887"/>
			<point x="1178" y="804" type="curve" smooth="yes"/>
			<point x="1222" y="724"/>
			<point x="1235" y="630"/>
			<point x="1239" y="540" type="curve"/>
		</contour>
	</outline>
</glyph>
<glyph name="k3" format="2">
	<unicode hex="0D17"/>
	<advance height="2048" width="1683"/>
	<outline>
		<contour>
			<point x="1128" y="-5" type="curve" smooth="yes"/>
			<point x="1102" y="16"/>
			<point x="1111" y="44"/>
			<point x="1147" y="59" type="curve" smooth="yes"/>
			<point x="1322" y="129"/>
			<point x="1420" y="313"/>
			<point x="1421" y="497" type="curve" smooth="yes"/>
			<point x="1421" y="599"/>
			<point x="1392" y="698"/>
			<point x="1333" y="782" type="curve" smooth="yes"/>
			<point x="1288" y="848"/>
			<point x="1223" y="908"/>
			<point x="1139" y="909" type="curve" smooth="yes"/>
			<point x="931" y="911"/>
			<point x="917" y="649"/>
			<point x="920" y="497" type="curve" smooth="yes"/>
			<point x="925" y="226"/>
			<point x="887" y="-22"/>
			<point x="555" y="-24" type="curve" smooth="yes"/>
			<point x="406" y="-25"/>
			<point x="282" y="36"/>
			<point x="197" y="159" type="curve" smooth="yes"/>
			<point x="131" y="253"/>
			<point x="99" y="382"/>
			<point x="100" y="497" type="curve" smooth="yes"/>
			<point x="102" y="701"/>
			<point x="204" y="901"/>
			<point x="394" y="988" type="curve" smooth="yes"/>
			<point x="429" y="1004"/>
			<point x="480" y="1006"/>
			<point x="513" y="983" type="curve" smooth="yes"/>
			<point x="541" y="963"/>
			<point x="535" y="935"/>
			<point x="500" y="919" type="curve" smooth="yes"/>
			<point x="344" y="849"/>
			<point x="264" y="660"/>
			<point x="262" y="497" type="curve" smooth="yes"/>
			<point x="261" y="395"/>
			<point x="290" y="275"/>
			<point x="348" y="192" type="curve" smooth="yes"/>
			<point x="396" y="122"/>
			<point x="466" y="65"/>
			<point x="555" y="67" type="curve" smooth="yes"/>
			<point x="761" y="73"/>
			<point x="760" y="347"/>
			<point x="758" y="497" type="curve" smooth="yes"/>
			<point x="753" y="765"/>
			<point x="815" y="1005"/>
			<point x="1139" y="1000" type="curve" smooth="yes"/>
			<point x="1284" y="998"/>
			<point x="1402" y="934"/>
			<point x="1485" y="815" type="curve" smooth="yes"/>
			<point x="1550" y="721"/>
			<point x="1583" y="610"/>
			<point x="1583" y="497" type="curve" smooth="yes"/>
			<point x="1583" y="273"/>
			<point x="1457" y="76"/>
			<point x="1250" y="-12" type="curve" smooth="yes"/>
			<point x="1213" y="-27"/>
			<point x="1162" y="-31"/>
		</contour>
	</outline>
</glyph>
<glyph name="k4" format="2">
  <advance height="2048" width="2335.0"/>
  <unicode hex="0D18"/>
  <outline>
    <contour>
      <point x="2072.0" y="954.0" type="line" smooth="yes"/>
      <point x="2072.0" y="980.0"/>
      <point x="2108.0" y="1000.0"/>
      <point x="2154.0" y="1000.0" type="curve" smooth="yes"/>
      <point x="2199.0" y="1000.0"/>
      <point x="2235.0" y="980.0"/>
      <point x="2235.0" y="954.0" type="curve" smooth="yes"/>
      <point x="2235.0" y="45.0" type="line" smooth="yes"/>
      <point x="2235.0" y="20.0"/>
      <point x="2199.0" y="0.0"/>
      <point x="2154.0" y="0.0" type="curve" smooth="yes"/>
      <point x="1060.0" y="0.0" type="line" smooth="yes"/>
      <point x="1034.0" y="0.0"/>
      <point x="978.0" y="12.0"/>
      <point x="978.0" y="49.0" type="curve" smooth="yes"/>
      <point x="978.0" y="341.0" type="line"/>
      <point x="587.0" y="341.0" type="line" smooth="yes"/>
      <point x="542.0" y="341.0"/>
      <point x="505.0" y="361.0"/>
      <point x="505.0" y="387.0" type="curve" smooth="yes"/>
      <point x="505.0" y="401.0"/>
      <point x="516.0" y="412.0"/>
      <point x="528.0" y="419.0" type="curve" smooth="yes"/>
      <point x="593.0" y="457.0"/>
      <point x="619.0" y="533.0"/>
      <point x="619.0" y="605.0" type="curve" smooth="yes"/>
      <point x="619.0" y="739.0"/>
      <point x="526.0" y="812.0"/>
      <point x="432.0" y="812.0" type="curve" smooth="yes"/>
      <point x="338.0" y="812.0"/>
      <point x="243.0" y="739.0"/>
      <point x="243.0" y="605.0" type="curve" smooth="yes"/>
      <point x="243.0" y="528.0"/>
      <point x="276.0" y="443.0"/>
      <point x="350.0" y="410.0" type="curve" smooth="yes"/>
      <point x="385.0" y="394.0"/>
      <point x="390.0" y="366.0"/>
      <point x="362.0" y="346.0" type="curve" smooth="yes"/>
      <point x="330.0" y="324.0"/>
      <point x="278.0" y="325.0"/>
      <point x="244.0" y="341.0" type="curve" smooth="yes"/>
      <point x="139.0" y="390.0"/>
      <point x="80.0" y="489.0"/>
      <point x="80.0" y="605.0" type="curve" smooth="yes"/>
      <point x="80.0" y="801.0"/>
      <point x="256.0" y="904.0"/>
      <point x="432.0" y="903.0" type="curve" smooth="yes"/>
      <point x="607.0" y="903.0"/>
      <point x="782.0" y="800.0"/>
      <point x="782.0" y="605.0" type="curve" smooth="yes"/>
      <point x="782.0" y="541.0"/>
      <point x="764.0" y="481.0"/>
      <point x="730.0" y="432.0" type="curve"/>
      <point x="978.0" y="432.0" type="line"/>
      <point x="978.0" y="506.0"/>
      <point x="978.0" y="574.0"/>
      <point x="978.0" y="649.0" type="curve" smooth="yes"/>
      <point x="978.0" y="883.0"/>
      <point x="1203.0" y="999.0"/>
      <point x="1411.0" y="1000.0" type="curve" smooth="yes"/>
      <point x="1623.0" y="1001.0"/>
      <point x="1831.0" y="886.0"/>
      <point x="1831.0" y="649.0" type="curve" smooth="yes"/>
      <point x="1831.0" y="387.0" type="line" smooth="yes"/>
      <point x="1831.0" y="361.0"/>
      <point x="1795.0" y="341.0"/>
      <point x="1750.0" y="341.0" type="curve" smooth="yes"/>
      <point x="1141.0" y="341.0" type="line"/>
      <point x="1141.0" y="91.0" type="line"/>
      <point x="2072.0" y="91.0" type="line"/>
    </contour>
    <contour>
      <point x="1668.0" y="432.0" type="line"/>
      <point x="1668.0" y="649.0" type="line" smooth="yes"/>
      <point x="1668.0" y="803.0"/>
      <point x="1562.0" y="909.0"/>
      <point x="1411.0" y="909.0" type="curve" smooth="yes"/>
      <point x="1262.0" y="908.0"/>
      <point x="1141.0" y="804.0"/>
      <point x="1141.0" y="649.0" type="curve" smooth="yes"/>
      <point x="1141.0" y="432.0" type="line"/>
    </contour>
  </outline>
</glyph>
<glyph name="ch1" format="2">
	<unicode hex="0D1A"/>
	<advance height="2048" width="1557"/>
	<outline>
		<contour>
			<point x="81" y="0" type="curve" smooth="yes"/>
			<point x="1395" y="0" type="line" smooth="yes"/>
			<point x="1415" y="0"/>
			<point x="1457" y="9"/>
			<point x="1457" y="35" type="curve" smooth="yes"/>
			<point x="1457" y="965" type="line" smooth="yes"/>
			<point x="1457" y="991"/>
			<point x="1415" y="1000"/>
			<point x="1396" y="1000" type="curve" smooth="yes"/>
			<point x="1376" y="1000"/>
			<point x="1334" y="991"/>
			<point x="1334" y="965" type="curve" smooth="yes"/>
			<point x="1334" y="70" type="line"/>
			<point x="735" y="70" type="line"/>
			<point x="838" y="150"/>
			<point x="903" y="243"/>
			<point x="903" y="381" type="curve" smooth="yes"/>
			<point x="903" y="577"/>
			<point x="748" y="677"/>
			<point x="571" y="678" type="curve" smooth="yes"/>
			<point x="425" y="678"/>
			<point x="244" y="592"/>
			<point x="242" y="421" type="curve"/>
			<point x="242" y="353"/>
			<point x="275" y="293"/>
			<point x="324" y="248" type="curve" smooth="yes"/>
			<point x="340" y="233"/>
			<point x="362" y="226"/>
			<point x="383" y="226" type="curve" smooth="yes"/>
			<point x="394" y="226"/>
			<point x="406" y="228"/>
			<point x="416" y="232" type="curve" smooth="yes"/>
			<point x="431" y="238"/>
			<point x="444" y="249"/>
			<point x="444" y="261" type="curve" smooth="yes"/>
			<point x="444" y="268"/>
			<point x="441" y="274"/>
			<point x="433" y="281" type="curve" smooth="yes"/>
			<point x="392" y="315"/>
			<point x="365" y="366"/>
			<point x="365" y="421" type="curve" smooth="yes"/>
			<point x="366" y="534"/>
			<point x="473" y="609"/>
			<point x="576" y="607" type="curve" smooth="yes"/>
			<point x="702" y="605"/>
			<point x="780" y="508"/>
			<point x="781" y="383" type="curve" smooth="yes"/>
			<point x="781" y="213"/>
			<point x="653" y="70"/>
			<point x="484" y="70" type="curve" smooth="yes"/>
			<point x="81" y="70" type="line" smooth="yes"/>
			<point x="62" y="70"/>
			<point x="20" y="62"/>
			<point x="20" y="35" type="curve" smooth="yes"/>
			<point x="20" y="9"/>
			<point x="62" y="0"/>
		</contour>
	</outline>
</glyph>
<glyph name="ch2" format="2">
	<unicode hex="0D1B"/>
	<advance height="2048" width="2292"/>
	<outline>
		<contour>
			<point x="2001" y="765" type="curve"/>
			<point x="2066" y="665"/>
			<point x="2091" y="560"/>
			<point x="2089" y="441" type="curve" smooth="yes"/>
			<point x="2088" y="352"/>
			<point x="2069" y="258"/>
			<point x="2024" y="182" type="curve" smooth="yes"/>
			<point x="1987" y="119"/>
			<point x="1934" y="70"/>
			<point x="1858" y="71" type="curve" smooth="yes"/>
			<point x="1788" y="71"/>
			<point x="1733" y="112"/>
			<point x="1696" y="170" type="curve" smooth="yes"/>
			<point x="1657" y="230"/>
			<point x="1640" y="305"/>
			<point x="1640" y="376" type="curve" smooth="yes"/>
			<point x="1640" y="466"/>
			<point x="1665" y="556"/>
			<point x="1719" y="628" type="curve" smooth="yes"/>
			<point x="1789" y="724"/>
			<point x="1885" y="764"/>
		</contour>
		<contour>
			<point x="1218" y="95" type="curve"/>
			<point x="735" y="95" type="line"/>
			<point x="838" y="174"/>
			<point x="903" y="267"/>
			<point x="903" y="405" type="curve" smooth="yes"/>
			<point x="903" y="600"/>
			<point x="748" y="701"/>
			<point x="571" y="701" type="curve" smooth="yes"/>
			<point x="423" y="701"/>
			<point x="242" y="614"/>
			<point x="242" y="442" type="curve" smooth="yes"/>
			<point x="242" y="375"/>
			<point x="275" y="316"/>
			<point x="324" y="272" type="curve" smooth="yes"/>
			<point x="340" y="257"/>
			<point x="361" y="250"/>
			<point x="382" y="249" type="curve" smooth="yes"/>
			<point x="394" y="249"/>
			<point x="405" y="251"/>
			<point x="416" y="256" type="curve"/>
			<point x="431" y="261"/>
			<point x="443" y="272"/>
			<point x="444" y="285" type="curve"/>
			<point x="444" y="291"/>
			<point x="441" y="298"/>
			<point x="433" y="304" type="curve"/>
			<point x="392" y="339"/>
			<point x="365" y="387"/>
			<point x="365" y="442" type="curve" smooth="yes"/>
			<point x="366" y="555"/>
			<point x="471" y="633"/>
			<point x="576" y="631" type="curve" smooth="yes"/>
			<point x="702" y="629"/>
			<point x="780" y="532"/>
			<point x="781" y="407" type="curve" smooth="yes"/>
			<point x="781" y="237"/>
			<point x="653" y="95"/>
			<point x="484" y="95" type="curve" smooth="yes"/>
			<point x="82" y="95" type="line" smooth="yes"/>
			<point x="62" y="95"/>
			<point x="20" y="86"/>
			<point x="20" y="60" type="curve" smooth="yes"/>
			<point x="20" y="34"/>
			<point x="62" y="25"/>
			<point x="82" y="25" type="curve" smooth="yes"/>
			<point x="1335" y="25" type="line" smooth="yes"/>
			<point x="1352" y="25"/>
			<point x="1374" y="29"/>
			<point x="1387" y="41" type="curve" smooth="yes"/>
			<point x="1403" y="55"/>
			<point x="1399" y="72"/>
			<point x="1383" y="83" type="curve" smooth="yes"/>
			<point x="1255" y="170"/>
			<point x="1185" y="312"/>
			<point x="1185" y="469" type="curve" smooth="yes"/>
			<point x="1185" y="587"/>
			<point x="1216" y="691"/>
			<point x="1274" y="773" type="curve" smooth="yes"/>
			<point x="1352" y="884"/>
			<point x="1473" y="952"/>
			<point x="1635" y="954" type="curve" smooth="yes"/>
			<point x="1761" y="955"/>
			<point x="1851" y="919"/>
			<point x="1944" y="834" type="curve"/>
			<point x="1807" y="816"/>
			<point x="1692" y="772"/>
			<point x="1606" y="656" type="curve" smooth="yes"/>
			<point x="1547" y="576"/>
			<point x="1517" y="475"/>
			<point x="1517" y="376" type="curve" smooth="yes"/>
			<point x="1517" y="295"/>
			<point x="1537" y="213"/>
			<point x="1581" y="145" type="curve" smooth="yes"/>
			<point x="1644" y="48"/>
			<point x="1747" y="1"/>
			<point x="1859" y="0" type="curve" smooth="yes"/>
			<point x="1978" y="-1"/>
			<point x="2078" y="55"/>
			<point x="2140" y="159" type="curve" smooth="yes"/>
			<point x="2189" y="242"/>
			<point x="2211" y="344"/>
			<point x="2212" y="441" type="curve" smooth="yes"/>
			<point x="2213" y="539"/>
			<point x="2197" y="636"/>
			<point x="2153" y="724" type="curve" smooth="yes"/>
			<point x="2055" y="926"/>
			<point x="1845" y="1024"/>
			<point x="1635" y="1024" type="curve" smooth="yes"/>
			<point x="1463" y="1024"/>
			<point x="1291" y="960"/>
			<point x="1182" y="828" type="curve" smooth="yes"/>
			<point x="1105" y="735"/>
			<point x="1061" y="613"/>
			<point x="1062" y="467" type="curve" smooth="yes"/>
			<point x="1063" y="317"/>
			<point x="1118" y="202"/>
		</contour>
	</outline>
</glyph>
<glyph name="ch3" format="2">
	<unicode hex="0D1C"/>
	<advance height="2048" width="1628"/>
	<outline>
		<contour>
			<point x="1021" y="216" type="curve"/>
			<point x="1034" y="58"/>
			<point x="1120" y="-26"/>
			<point x="1281" y="-24" type="curve" smooth="yes"/>
			<point x="1409" y="-22"/>
			<point x="1549" y="53"/>
			<point x="1548" y="200" type="curve" smooth="yes"/>
			<point x="1547" y="312"/>
			<point x="1463" y="387"/>
			<point x="1378" y="409" type="curve"/>
			<point x="1416" y="433"/>
			<point x="1447" y="456"/>
			<point x="1476" y="492" type="curve" smooth="yes"/>
			<point x="1520" y="548"/>
			<point x="1547" y="618"/>
			<point x="1548" y="689" type="curve" smooth="yes"/>
			<point x="1549" y="770"/>
			<point x="1519" y="845"/>
			<point x="1461" y="900" type="curve" smooth="yes"/>
			<point x="1386" y="970"/>
			<point x="1279" y="998"/>
			<point x="1179" y="999" type="curve" smooth="yes"/>
			<point x="1056" y="999"/>
			<point x="959" y="969"/>
			<point x="871" y="878" type="curve"/>
			<point x="770" y="983"/>
			<point x="646" y="1002"/>
			<point x="509" y="1000" type="curve" smooth="yes"/>
			<point x="401" y="998"/>
			<point x="277" y="981"/>
			<point x="188" y="913" type="curve" smooth="yes"/>
			<point x="117" y="857"/>
			<point x="80" y="778"/>
			<point x="80" y="688" type="curve" smooth="yes"/>
			<point x="80" y="627"/>
			<point x="97" y="569"/>
			<point x="143" y="527" type="curve" smooth="yes"/>
			<point x="190" y="484"/>
			<point x="255" y="470"/>
			<point x="317" y="470" type="curve" smooth="yes"/>
			<point x="427" y="470"/>
			<point x="539" y="535"/>
			<point x="539" y="659" type="curve" smooth="yes"/>
			<point x="539" y="774"/>
			<point x="436" y="848"/>
			<point x="330" y="848" type="curve" smooth="yes"/>
			<point x="278" y="848"/>
			<point x="231" y="833"/>
			<point x="197" y="808" type="curve"/>
			<point x="264" y="901"/>
			<point x="368" y="935"/>
			<point x="511" y="929" type="curve" smooth="yes"/>
			<point x="568" y="927"/>
			<point x="638" y="919"/>
			<point x="690" y="893" type="curve" smooth="yes"/>
			<point x="768" y="854"/>
			<point x="810" y="788"/>
			<point x="810" y="698" type="curve" smooth="yes"/>
			<point x="810" y="505" type="line" smooth="yes"/>
			<point x="810" y="479"/>
			<point x="851" y="470"/>
			<point x="870" y="470" type="curve" smooth="yes"/>
			<point x="890" y="470"/>
			<point x="932" y="479"/>
			<point x="932" y="505" type="curve" smooth="yes"/>
			<point x="932" y="698" type="line" smooth="yes"/>
			<point x="933" y="843"/>
			<point x="1037" y="929"/>
			<point x="1174" y="929" type="curve" smooth="yes"/>
			<point x="1240" y="928"/>
			<point x="1307" y="909"/>
			<point x="1357" y="863" type="curve" smooth="yes"/>
			<point x="1404" y="819"/>
			<point x="1426" y="754"/>
			<point x="1426" y="689" type="curve"/>
			<point x="1425" y="627"/>
			<point x="1403" y="569"/>
			<point x="1365" y="522" type="curve" smooth="yes"/>
			<point x="1323" y="470"/>
			<point x="1264" y="439"/>
			<point x="1203" y="420" type="curve" smooth="yes"/>
			<point x="1134" y="400"/>
			<point x="1046" y="391"/>
			<point x="951" y="388" type="curve" smooth="yes"/>
			<point x="854" y="386"/>
			<point x="757" y="389"/>
			<point x="660" y="392" type="curve" smooth="yes"/>
			<point x="492" y="398"/>
			<point x="344" y="403"/>
			<point x="237" y="374" type="curve" smooth="yes"/>
			<point x="141" y="348"/>
			<point x="79" y="299"/>
			<point x="83" y="190" type="curve" smooth="yes"/>
			<point x="87" y="78"/>
			<point x="165" y="20"/>
			<point x="265" y="-5" type="curve" smooth="yes"/>
			<point x="322" y="-19"/>
			<point x="384" y="-24"/>
			<point x="442" y="-24" type="curve" smooth="yes"/>
			<point x="548" y="-23"/>
			<point x="649" y="-1"/>
			<point x="746" y="42" type="curve" smooth="yes"/>
			<point x="853" y="89"/>
			<point x="931" y="144"/>
		</contour>
		<contour>
			<point x="1131" y="193" type="curve" smooth="yes"/>
			<point x="1128" y="287"/>
			<point x="1188" y="351"/>
			<point x="1281" y="351" type="curve" smooth="yes"/>
			<point x="1367" y="351"/>
			<point x="1425" y="287"/>
			<point x="1425" y="200" type="curve" smooth="yes"/>
			<point x="1425" y="112"/>
			<point x="1367" y="49"/>
			<point x="1279" y="47" type="curve" smooth="yes"/>
			<point x="1194" y="45"/>
			<point x="1134" y="106"/>
		</contour>
		<contour>
			<point x="194" y="659" type="curve" smooth="yes"/>
			<point x="194" y="732"/>
			<point x="248" y="777"/>
			<point x="317" y="777" type="curve" smooth="yes"/>
			<point x="387" y="777"/>
			<point x="440" y="731"/>
			<point x="440" y="659" type="curve" smooth="yes"/>
			<point x="440" y="588"/>
			<point x="387" y="540"/>
			<point x="319" y="540" type="curve" smooth="yes"/>
			<point x="250" y="540"/>
			<point x="194" y="585"/>
		</contour>
		<contour>
			<point x="1029" y="320" type="curve"/>
			<point x="932" y="229"/>
			<point x="830" y="165"/>
			<point x="712" y="107" type="curve" smooth="yes"/>
			<point x="626" y="65"/>
			<point x="538" y="43"/>
			<point x="443" y="45" type="curve" smooth="yes"/>
			<point x="402" y="45"/>
			<point x="361" y="50"/>
			<point x="321" y="59" type="curve" smooth="yes"/>
			<point x="254" y="73"/>
			<point x="198" y="115"/>
			<point x="200" y="190" type="curve" smooth="yes"/>
			<point x="201" y="240"/>
			<point x="231" y="288"/>
			<point x="278" y="305" type="curve" smooth="yes"/>
			<point x="351" y="333"/>
			<point x="493" y="328"/>
			<point x="655" y="322" type="curve" smooth="yes"/>
			<point x="781" y="318"/>
			<point x="903" y="316"/>
		</contour>
	</outline>
</glyph>
<glyph name="ch4" format="2">
	<unicode hex="0D1D"/>
	<advance height="2048" width="2885"/>
	<outline>
		<contour>
			<point x="1380" y="475" type="curve" smooth="yes"/>
			<point x="1380" y="381"/>
			<point x="1383" y="285"/>
			<point x="1414" y="196" type="curve" smooth="yes"/>
			<point x="1466" y="49"/>
			<point x="1596" y="-27"/>
			<point x="1745" y="-24" type="curve" smooth="yes"/>
			<point x="1868" y="-21"/>
			<point x="1953" y="14"/>
			<point x="2032" y="109" type="curve"/>
			<point x="2121" y="9"/>
			<point x="2212" y="-24"/>
			<point x="2343" y="-24" type="curve" smooth="yes"/>
			<point x="2431" y="-24"/>
			<point x="2516" y="-1"/>
			<point x="2588" y="43" type="curve" smooth="yes"/>
			<point x="2659" y="87"/>
			<point x="2717" y="150"/>
			<point x="2755" y="232" type="curve" smooth="yes"/>
			<point x="2792" y="314"/>
			<point x="2806" y="407"/>
			<point x="2805" y="496" type="curve" smooth="yes"/>
			<point x="2802" y="697"/>
			<point x="2719" y="906"/>
			<point x="2530" y="991" type="curve" smooth="yes"/>
			<point x="2517" y="997"/>
			<point x="2502" y="1000"/>
			<point x="2486" y="1000" type="curve" smooth="yes"/>
			<point x="2469" y="1000"/>
			<point x="2452" y="996"/>
			<point x="2439" y="986" type="curve" smooth="yes"/>
			<point x="2431" y="980"/>
			<point x="2427" y="972"/>
			<point x="2427" y="965" type="curve" smooth="yes"/>
			<point x="2427" y="954"/>
			<point x="2437" y="943"/>
			<point x="2451" y="937" type="curve" smooth="yes"/>
			<point x="2613" y="867"/>
			<point x="2679" y="663"/>
			<point x="2682" y="497" type="curve" smooth="yes"/>
			<point x="2683" y="422"/>
			<point x="2673" y="344"/>
			<point x="2646" y="274" type="curve" smooth="yes"/>
			<point x="2621" y="210"/>
			<point x="2580" y="151"/>
			<point x="2526" y="110" type="curve" smooth="yes"/>
			<point x="2475" y="71"/>
			<point x="2413" y="46"/>
			<point x="2343" y="46" type="curve" smooth="yes"/>
			<point x="2171" y="46"/>
			<point x="2090" y="170"/>
			<point x="2090" y="335" type="curve" smooth="yes"/>
			<point x="2090" y="965" type="line" smooth="yes"/>
			<point x="2090" y="991"/>
			<point x="2048" y="1000"/>
			<point x="2029" y="1000" type="curve" smooth="yes"/>
			<point x="2009" y="1000"/>
			<point x="1967" y="991"/>
			<point x="1967" y="965" type="curve" smooth="yes"/>
			<point x="1967" y="334" type="line" smooth="yes"/>
			<point x="1967" y="187"/>
			<point x="1907" y="46"/>
			<point x="1743" y="46" type="curve" smooth="yes"/>
			<point x="1643" y="46"/>
			<point x="1567" y="117"/>
			<point x="1535" y="210" type="curve" smooth="yes"/>
			<point x="1506" y="294"/>
			<point x="1503" y="386"/>
			<point x="1503" y="475" type="curve" smooth="yes"/>
			<point x="1503" y="577"/>
			<point x="1504" y="695"/>
			<point x="1458" y="789" type="curve" smooth="yes"/>
			<point x="1379" y="949"/>
			<point x="1226" y="999"/>
			<point x="1060" y="1000" type="curve" smooth="yes"/>
			<point x="979" y="1000"/>
			<point x="909" y="987"/>
			<point x="834" y="959" type="curve"/>
			<point x="758" y="987"/>
			<point x="687" y="1000"/>
			<point x="606" y="1000" type="curve" smooth="yes"/>
			<point x="416" y="1000"/>
			<point x="238" y="900"/>
			<point x="148" y="726" type="curve" smooth="yes"/>
			<point x="102" y="635"/>
			<point x="80" y="527"/>
			<point x="80" y="425" type="curve" smooth="yes"/>
			<point x="80" y="261"/>
			<point x="138" y="87"/>
			<point x="281" y="-2" type="curve" smooth="yes"/>
			<point x="301" y="-14"/>
			<point x="324" y="-24"/>
			<point x="348" y="-24" type="curve" smooth="yes"/>
			<point x="362" y="-24"/>
			<point x="376" y="-20"/>
			<point x="389" y="-12" type="curve" smooth="yes"/>
			<point x="400" y="-5"/>
			<point x="405" y="3"/>
			<point x="405" y="11" type="curve" smooth="yes"/>
			<point x="405" y="21"/>
			<point x="398" y="30"/>
			<point x="386" y="37" type="curve" smooth="yes"/>
			<point x="252" y="109"/>
			<point x="203" y="281"/>
			<point x="203" y="425" type="curve" smooth="yes"/>
			<point x="203" y="521"/>
			<point x="223" y="622"/>
			<point x="266" y="706" type="curve" smooth="yes"/>
			<point x="332" y="835"/>
			<point x="462" y="930"/>
			<point x="606" y="930" type="curve" smooth="yes"/>
			<point x="655" y="930"/>
			<point x="693" y="926"/>
			<point x="738" y="910" type="curve"/>
			<point x="570" y="790"/>
			<point x="486" y="611"/>
			<point x="486" y="402" type="curve" smooth="yes"/>
			<point x="486" y="316"/>
			<point x="502" y="225"/>
			<point x="543" y="149" type="curve" smooth="yes"/>
			<point x="604" y="35"/>
			<point x="708" y="-22"/>
			<point x="834" y="-23" type="curve" smooth="yes"/>
			<point x="959" y="-23"/>
			<point x="1062" y="36"/>
			<point x="1123" y="149" type="curve" smooth="yes"/>
			<point x="1163" y="224"/>
			<point x="1180" y="316"/>
			<point x="1180" y="402" type="curve" smooth="yes"/>
			<point x="1180" y="611"/>
			<point x="1095" y="790"/>
			<point x="927" y="910" type="curve"/>
			<point x="973" y="926"/>
			<point x="1012" y="930"/>
			<point x="1060" y="930" type="curve" smooth="yes"/>
			<point x="1194" y="930"/>
			<point x="1303" y="874"/>
			<point x="1351" y="741" type="curve" smooth="yes"/>
			<point x="1381" y="658"/>
			<point x="1380" y="562"/>
		</contour>
		<contour>
			<point x="834" y="865" type="curve"/>
			<point x="985" y="757"/>
			<point x="1058" y="589"/>
			<point x="1057" y="402" type="curve"/>
			<point x="1057" y="323"/>
			<point x="1043" y="238"/>
			<point x="1006" y="169" type="curve" smooth="yes"/>
			<point x="969" y="101"/>
			<point x="913" y="47"/>
			<point x="834" y="48" type="curve" smooth="yes"/>
			<point x="754" y="48"/>
			<point x="696" y="102"/>
			<point x="660" y="170" type="curve" smooth="yes"/>
			<point x="623" y="239"/>
			<point x="608" y="323"/>
			<point x="608" y="402" type="curve" smooth="yes"/>
			<point x="608" y="588"/>
			<point x="683" y="757"/>
		</contour>
	</outline>
</glyph>
<glyph name="t3" format="2">
	<unicode hex="0D21"/>
	<advance height="2048" width="2259"/>
	<outline>
		<contour>
			<point x="1388.661" y="89.32201" type="line"/>
			<point x="1316.661" y="4.322"/>
			<point x="1206.661" y="-26.678"/>
			<point x="1098.661" y="-26.678" type="curve" smooth="yes"/>
			<point x="946.66102" y="-26.678"/>
			<point x="803.66102" y="50.32201"/>
			<point x="750.66102" y="198.32201" type="curve" smooth="yes"/>
			<point x="716.66102" y="294.32201"/>
			<point x="715.66102" y="400.32201"/>
			<point x="715.66102" y="502.32201" type="curve" smooth="yes"/>
			<point x="715.66102" y="590.32201"/>
			<point x="714.66102" y="686.32201"/>
			<point x="684.66102" y="770.32201" type="curve" smooth="yes"/>
			<point x="658.66102" y="845.32201"/>
			<point x="608.66102" y="906.322008"/>
			<point x="514.66102" y="906.322008" type="curve" smooth="yes"/>
			<point x="391.66102" y="906.322008"/>
			<point x="315.66102" y="803.32201"/>
			<point x="277.66102" y="688.32201" type="curve" smooth="yes"/>
			<point x="253.66102" y="619.32201"/>
			<point x="243.66102" y="545.32201"/>
			<point x="243.66102" y="486.32201" type="curve" smooth="yes"/>
			<point x="244.66102" y="315.32201"/>
			<point x="320.66102" y="121.32201"/>
			<point x="491.66102" y="57.32201" type="curve" smooth="yes"/>
			<point x="528.66102" y="43.32201"/>
			<point x="538.66102" y="15.32201"/>
			<point x="513.66102" y="-5.678" type="curve" smooth="yes"/>
			<point x="480.66102" y="-33.678"/>
			<point x="427.66102" y="-28.678"/>
			<point x="390.66102" y="-13.678" type="curve" smooth="yes"/>
			<point x="184.66102" y="68.32201"/>
			<point x="83.6610169" y="272.32201"/>
			<point x="81.6610169" y="486.32201" type="curve" smooth="yes"/>
			<point x="80.6610169" y="570.32201"/>
			<point x="94.661017" y="652.32201"/>
			<point x="122.661017" y="725.32201" type="curve" smooth="yes"/>
			<point x="183.66102" y="883.32201"/>
			<point x="312.66102" y="997.3220085"/>
			<point x="514.66102" y="997.3220085" type="curve" smooth="yes"/>
			<point x="678.66102" y="997.3220085"/>
			<point x="779.66102" y="932.322008"/>
			<point x="832.66102" y="815.32201" type="curve" smooth="yes"/>
			<point x="875.66102" y="719.32201"/>
			<point x="878.66102" y="610.32201"/>
			<point x="878.66102" y="506.32201" type="curve" smooth="yes"/>
			<point x="878.66102" y="410.32201"/>
			<point x="877.66102" y="307.32201"/>
			<point x="910.66102" y="216.32201" type="curve" smooth="yes"/>
			<point x="938.66102" y="136.32201"/>
			<point x="1008.66102" y="62.32201"/>
			<point x="1098.661" y="64.32201" type="curve" smooth="yes"/>
			<point x="1253.661" y="67.32201"/>
			<point x="1303.661" y="201.32201"/>
			<point x="1303.661" y="334.32201" type="curve" smooth="yes"/>
			<point x="1303.661" y="951.322008" type="line" smooth="yes"/>
			<point x="1303.661" y="976.322008"/>
			<point x="1339.661" y="997.3220085"/>
			<point x="1384.661" y="997.3220085" type="curve" smooth="yes"/>
			<point x="1429.661" y="997.3220085"/>
			<point x="1466.661" y="976.322008"/>
			<point x="1466.661" y="951.322008" type="curve" smooth="yes"/>
			<point x="1466.661" y="335.32201" type="line" smooth="yes"/>
			<point x="1466.661" y="186.32201"/>
			<point x="1536.661" y="64.32201"/>
			<point x="1698.661" y="64.32201" type="curve" smooth="yes"/>
			<point x="1829.661" y="64.32201"/>
			<point x="1936.661" y="160.32201"/>
			<point x="1982.661" y="278.32201" type="curve" smooth="yes"/>
			<point x="2006.661" y="341.32201"/>
			<point x="2017.661" y="410.32201"/>
			<point x="2017.661" y="478.32201" type="curve" smooth="yes"/>
			<point x="2018.661" y="639.32201"/>
			<point x="1955.661" y="847.32201"/>
			<point x="1794.661" y="915.322008" type="curve" smooth="yes"/>
			<point x="1759.661" y="931.322008"/>
			<point x="1752.661" y="959.322008"/>
			<point x="1779.661" y="979.322008" type="curve" smooth="yes"/>
			<point x="1811.661" y="1003.3220085"/>
			<point x="1862.661" y="1001.3220085"/>
			<point x="1897.661" y="986.322008" type="curve" smooth="yes"/>
			<point x="2096.661" y="898.32201"/>
			<point x="2181.661" y="684.32201"/>
			<point x="2180.661" y="478.32201" type="curve"/>
			<point x="2180.661" y="392.32201"/>
			<point x="2164.661" y="307.32201"/>
			<point x="2129.661" y="232.32201" type="curve" smooth="yes"/>
			<point x="2050.661" y="63.32201"/>
			<point x="1881.661" y="-26.678"/>
			<point x="1698.661" y="-26.678" type="curve" smooth="yes"/>
			<point x="1568.661" y="-26.678"/>
			<point x="1459.661" y="12.32201"/>
			<point x="1388.661" y="89.32201" type="curve"/>
		</contour>
	</outline>
</glyph>
<glyph name="nh" format="2">
	<unicode hex="0D23"/>
	<advance height="2048" width="2426"/>
	<outline>
		<contour>
			<point x="977" y="849" type="curve"/>
			<point x="866" y="966"/>
			<point x="739" y="1001"/>
			<point x="582" y="999" type="curve" smooth="yes"/>
			<point x="395" y="998"/>
			<point x="225" y="910"/>
			<point x="140" y="735" type="curve" smooth="yes"/>
			<point x="98" y="650"/>
			<point x="80" y="554"/>
			<point x="80" y="459" type="curve" smooth="yes"/>
			<point x="80" y="314"/>
			<point x="122" y="144"/>
			<point x="236" y="48" type="curve" smooth="yes"/>
			<point x="295" y="-2"/>
			<point x="363" y="-25"/>
			<point x="440" y="-24" type="curve" smooth="yes"/>
			<point x="514" y="-23"/>
			<point x="590" y="1"/>
			<point x="648" y="50" type="curve" smooth="yes"/>
			<point x="715" y="107"/>
			<point x="747" y="198"/>
			<point x="750" y="285" type="curve" smooth="yes"/>
			<point x="752" y="367"/>
			<point x="729" y="446"/>
			<point x="673" y="506" type="curve" smooth="yes"/>
			<point x="614" y="570"/>
			<point x="527" y="603"/>
			<point x="442" y="600" type="curve" smooth="yes"/>
			<point x="337" y="596"/>
			<point x="229" y="532"/>
			<point x="201" y="428" type="curve"/>
			<point x="193" y="513"/>
			<point x="211" y="621"/>
			<point x="252" y="707" type="curve" smooth="yes"/>
			<point x="316" y="840"/>
			<point x="434" y="928"/>
			<point x="582" y="929" type="curve" smooth="yes"/>
			<point x="783" y="930"/>
			<point x="921" y="815"/>
			<point x="923" y="614" type="curve" smooth="yes"/>
			<point x="924" y="413"/>
			<point x="923" y="212"/>
			<point x="923" y="11" type="curve" smooth="yes"/>
			<point x="923" y="-15"/>
			<point x="964" y="-24"/>
			<point x="984" y="-24" type="curve" smooth="yes"/>
			<point x="1003" y="-24"/>
			<point x="1045" y="-15"/>
			<point x="1045" y="11" type="curve" smooth="yes"/>
			<point x="1045" y="640" type="line" smooth="yes"/>
			<point x="1045" y="833"/>
			<point x="1160" y="927"/>
			<point x="1276" y="927" type="curve" smooth="yes"/>
			<point x="1392" y="927"/>
			<point x="1509" y="832"/>
			<point x="1509" y="645" type="curve" smooth="yes"/>
			<point x="1509" y="11" type="line" smooth="yes"/>
			<point x="1509" y="-8"/>
			<point x="1536" y="-24"/>
			<point x="1570" y="-24" type="curve" smooth="yes"/>
			<point x="1604" y="-24"/>
			<point x="1632" y="-8"/>
			<point x="1632" y="11" type="curve" smooth="yes"/>
			<point x="1632" y="645" type="line" smooth="yes"/>
			<point x="1632" y="806"/>
			<point x="1714" y="930"/>
			<point x="1885" y="930" type="curve" smooth="yes"/>
			<point x="1999" y="930"/>
			<point x="2105" y="859"/>
			<point x="2161" y="760" type="curve" smooth="yes"/>
			<point x="2205" y="682"/>
			<point x="2222" y="584"/>
			<point x="2223" y="495" type="curve" smooth="yes"/>
			<point x="2224" y="317"/>
			<point x="2158" y="111"/>
			<point x="1993" y="39" type="curve" smooth="yes"/>
			<point x="1977" y="32"/>
			<point x="1968" y="21"/>
			<point x="1968" y="10" type="curve"/>
			<point x="1969" y="3"/>
			<point x="1973" y="-4"/>
			<point x="1981" y="-10" type="curve" smooth="yes"/>
			<point x="1993" y="-19"/>
			<point x="2011" y="-24"/>
			<point x="2030" y="-24" type="curve" smooth="yes"/>
			<point x="2043" y="-24"/>
			<point x="2056" y="-22"/>
			<point x="2067" y="-17" type="curve" smooth="yes"/>
			<point x="2264" y="69"/>
			<point x="2348" y="289"/>
			<point x="2346" y="496" type="curve" smooth="yes"/>
			<point x="2345" y="595"/>
			<point x="2324" y="702"/>
			<point x="2274" y="788" type="curve" smooth="yes"/>
			<point x="2194" y="924"/>
			<point x="2041" y="1000"/>
			<point x="1885" y="1000" type="curve" smooth="yes"/>
			<point x="1764" y="1000"/>
			<point x="1639" y="957"/>
			<point x="1568" y="858" type="curve"/>
			<point x="1499" y="954"/>
			<point x="1385" y="1001"/>
			<point x="1269" y="1000" type="curve" smooth="yes"/>
			<point x="1153" y="999"/>
			<point x="1041" y="948"/>
		</contour>
		<contour>
			<point x="246" y="285" type="curve" smooth="yes"/>
			<point x="246" y="405"/>
			<point x="310" y="524"/>
			<point x="441" y="524" type="curve" smooth="yes"/>
			<point x="572" y="524"/>
			<point x="634" y="405"/>
			<point x="634" y="285" type="curve" smooth="yes"/>
			<point x="634" y="166"/>
			<point x="570" y="46"/>
			<point x="441" y="46" type="curve" smooth="yes"/>
			<point x="309" y="47"/>
			<point x="246" y="163"/>
		</contour>
	</outline>
</glyph>
<glyph name="th3" format="2">
  <advance height="2048" width="1179.0"/>
  <unicode hex="0D26"/>
  <outline>
    <contour>
      <point x="550.0" y="22.0" type="curve" smooth="yes"/>
      <point x="516.0" y="38.0"/>
      <point x="510.0" y="67.0"/>
      <point x="539.0" y="86.0" type="curve" smooth="yes"/>
      <point x="567.0" y="106.0"/>
      <point x="618.0" y="109.0"/>
      <point x="653.0" y="93.0" type="curve" smooth="yes"/>
      <point x="689.0" y="77.0"/>
      <point x="735.0" y="68.0"/>
      <point x="774.0" y="68.0" type="curve" smooth="yes"/>
      <point x="822.0" y="69.0"/>
      <point x="868.0" y="88.0"/>
      <point x="898.0" y="125.0" type="curve" smooth="yes"/>
      <point x="926.0" y="160.0"/>
      <point x="937.0" y="207.0"/>
      <point x="937.0" y="254.0" type="curve" smooth="yes"/>
      <point x="935.0" y="329.0"/>
      <point x="886.0" y="386.0"/>
      <point x="816.0" y="408.0" type="curve" smooth="yes"/>
      <point x="744.0" y="432.0"/>
      <point x="659.0" y="422.0"/>
      <point x="618.0" y="422.0" type="curve" smooth="yes"/>
      <point x="592.0" y="422.0"/>
      <point x="536.0" y="433.0"/>
      <point x="536.0" y="468.0" type="curve" smooth="yes"/>
      <point x="536.0" y="493.0"/>
      <point x="572.0" y="513.0"/>
      <point x="617.0" y="513.0" type="curve" smooth="yes"/>
      <point x="677.0" y="513.0"/>
      <point x="756.0" y="509.0"/>
      <point x="818.0" y="531.0" type="curve" smooth="yes"/>
      <point x="888.0" y="555.0"/>
      <point x="924.0" y="609.0"/>
      <point x="923.0" y="683.0" type="curve" smooth="yes"/>
      <point x="922.0" y="754.0"/>
      <point x="896.0" y="807.0"/>
      <point x="853.0" y="844.0" type="curve" smooth="yes"/>
      <point x="800.0" y="889.0"/>
      <point x="720.0" y="909.0"/>
      <point x="639.0" y="909.0" type="curve" smooth="yes"/>
      <point x="521.0" y="908.0"/>
      <point x="434.0" y="870.0"/>
      <point x="370.0" y="806.0" type="curve" smooth="yes"/>
      <point x="295.0" y="731.0"/>
      <point x="255.0" y="621.0"/>
      <point x="245.0" y="493.0" type="curve" smooth="yes"/>
      <point x="232.0" y="339.0"/>
      <point x="273.0" y="161.0"/>
      <point x="374.0" y="41.0" type="curve" smooth="yes"/>
      <point x="393.0" y="18.0"/>
      <point x="376.0" y="-9.0"/>
      <point x="335.0" y="-19.0" type="curve" smooth="yes"/>
      <point x="293.0" y="-31.0"/>
      <point x="248.0" y="-24.0"/>
      <point x="219.0" y="11.0" type="curve" smooth="yes"/>
      <point x="113.0" y="143.0"/>
      <point x="69.0" y="326.0"/>
      <point x="82.0" y="493.0" type="curve" smooth="yes"/>
      <point x="97.0" y="671.0"/>
      <point x="165.0" y="805.0"/>
      <point x="277.0" y="891.0" type="curve" smooth="yes"/>
      <point x="370.0" y="962.0"/>
      <point x="492.0" y="999.0"/>
      <point x="639.0" y="1000.0" type="curve" smooth="yes"/>
      <point x="743.0" y="1001.0"/>
      <point x="860.0" y="979.0"/>
      <point x="948.0" y="924.0" type="curve" smooth="yes"/>
      <point x="1028.0" y="874.0"/>
      <point x="1084.0" y="797.0"/>
      <point x="1085.0" y="683.0" type="curve" smooth="yes"/>
      <point x="1086.0" y="586.0"/>
      <point x="1033.0" y="510.0"/>
      <point x="946.0" y="470.0" type="curve"/>
      <point x="1031.0" y="430.0"/>
      <point x="1097.0" y="351.0"/>
      <point x="1099.0" y="254.0" type="curve" smooth="yes"/>
      <point x="1100.0" y="163.0"/>
      <point x="1067.0" y="91.0"/>
      <point x="997.0" y="42.0" type="curve" smooth="yes"/>
      <point x="933.0" y="-3.0"/>
      <point x="851.0" y="-21.0"/>
      <point x="774.0" y="-23.0" type="curve" smooth="yes"/>
      <point x="696.0" y="-24.0"/>
      <point x="616.0" y="-7.0"/>
    </contour>
  </outline>
</glyph>
<glyph name="n1" format="2">
	<unicode hex="0D28"/>
	<advance height="2048" width="1712"/>
	<outline>
		<contour>
			<point x="1278" y="39" type="curve" smooth="yes"/>
			<point x="1440" y="109"/>
			<point x="1506" y="313"/>
			<point x="1509" y="479" type="curve" smooth="yes"/>
			<point x="1510" y="554"/>
			<point x="1500" y="632"/>
			<point x="1473" y="702" type="curve" smooth="yes"/>
			<point x="1424" y="831"/>
			<point x="1310" y="930"/>
			<point x="1170" y="930" type="curve" smooth="yes"/>
			<point x="999" y="930"/>
			<point x="917" y="813"/>
			<point x="917" y="647" type="curve" smooth="yes"/>
			<point x="917" y="12" type="line" smooth="yes"/>
			<point x="917" y="-15"/>
			<point x="876" y="-24"/>
			<point x="856" y="-24" type="curve" smooth="yes"/>
			<point x="836" y="-24"/>
			<point x="795" y="-15"/>
			<point x="795" y="12" type="curve" smooth="yes"/>
			<point x="795" y="647" type="line" smooth="yes"/>
			<point x="795" y="813"/>
			<point x="712" y="930"/>
			<point x="542" y="930" type="curve" smooth="yes"/>
			<point x="402" y="930"/>
			<point x="288" y="831"/>
			<point x="239" y="702" type="curve" smooth="yes"/>
			<point x="212" y="632"/>
			<point x="202" y="554"/>
			<point x="203" y="479" type="curve" smooth="yes"/>
			<point x="206" y="313"/>
			<point x="272" y="109"/>
			<point x="434" y="39" type="curve" smooth="yes"/>
			<point x="456" y="29"/>
			<point x="469" y="7"/>
			<point x="446" y="-10" type="curve" smooth="yes"/>
			<point x="421" y="-29"/>
			<point x="382" y="-27"/>
			<point x="355" y="-15" type="curve" smooth="yes"/>
			<point x="166" y="70"/>
			<point x="83" y="279"/>
			<point x="80" y="480" type="curve" smooth="yes"/>
			<point x="79" y="569"/>
			<point x="93" y="662"/>
			<point x="130" y="744" type="curve" smooth="yes"/>
			<point x="206" y="909"/>
			<point x="366" y="1000"/>
			<point x="542" y="1000" type="curve" smooth="yes"/>
			<point x="674" y="1000"/>
			<point x="767" y="968"/>
			<point x="856" y="867" type="curve"/>
			<point x="945" y="968"/>
			<point x="1038" y="1000"/>
			<point x="1170" y="1000" type="curve" smooth="yes"/>
			<point x="1346" y="1000"/>
			<point x="1506" y="909"/>
			<point x="1582" y="744" type="curve" smooth="yes"/>
			<point x="1619" y="662"/>
			<point x="1633" y="569"/>
			<point x="1632" y="480" type="curve" smooth="yes"/>
			<point x="1629" y="279"/>
			<point x="1546" y="70"/>
			<point x="1357" y="-15" type="curve" smooth="yes"/>
			<point x="1344" y="-21"/>
			<point x="1328" y="-24"/>
			<point x="1313" y="-24" type="curve" smooth="yes"/>
			<point x="1296" y="-24"/>
			<point x="1279" y="-20"/>
			<point x="1266" y="-10" type="curve"/>
			<point x="1258" y="-3"/>
			<point x="1254" y="4"/>
			<point x="1254" y="11" type="curve" smooth="yes"/>
			<point x="1254" y="22"/>
			<point x="1264" y="33"/>
		</contour>
	</outline>
</glyph>
<glyph name="p2" format="2">
	<unicode hex="0D2B"/>
	<advance height="2048" width="1959"/>
	<outline>
		<contour>
			<point x="983" y="608" type="line" smooth="yes"/>
			<point x="983" y="871"/>
			<point x="1199" y="1000"/>
			<point x="1413" y="1000" type="curve" smooth="yes"/>
			<point x="1635" y="1000"/>
			<point x="1859" y="857"/>
			<point x="1859" y="601" type="curve" smooth="yes"/>
			<point x="1859" y="46" type="line" smooth="yes"/>
			<point x="1859" y="12"/>
			<point x="1803" y="0"/>
			<point x="1778" y="0" type="curve" smooth="yes"/>
			<point x="607" y="0" type="line" smooth="yes"/>
			<point x="562" y="0"/>
			<point x="525" y="21"/>
			<point x="525" y="46" type="curve" smooth="yes"/>
			<point x="525" y="60"/>
			<point x="536" y="71"/>
			<point x="548" y="78" type="curve" smooth="yes"/>
			<point x="613" y="116"/>
			<point x="639" y="192"/>
			<point x="639" y="264" type="curve" smooth="yes"/>
			<point x="639" y="398"/>
			<point x="546" y="472"/>
			<point x="452" y="472" type="curve" smooth="yes"/>
			<point x="358" y="472"/>
			<point x="263" y="399"/>
			<point x="263" y="264" type="curve" smooth="yes"/>
			<point x="263" y="187"/>
			<point x="296" y="103"/>
			<point x="370" y="69" type="curve" smooth="yes"/>
			<point x="405" y="53"/>
			<point x="410" y="25"/>
			<point x="382" y="5" type="curve" smooth="yes"/>
			<point x="350" y="-17"/>
			<point x="298" y="-16"/>
			<point x="263" y="0" type="curve" smooth="yes"/>
			<point x="159" y="49"/>
			<point x="100" y="149"/>
			<point x="100" y="264" type="curve" smooth="yes"/>
			<point x="100" y="461"/>
			<point x="276" y="563"/>
			<point x="452" y="563" type="curve" smooth="yes"/>
			<point x="627" y="562"/>
			<point x="802" y="460"/>
			<point x="802" y="264" type="curve" smooth="yes"/>
			<point x="802" y="200"/>
			<point x="785" y="140"/>
			<point x="750" y="91" type="curve"/>
			<point x="983" y="91" type="line"/>
		</contour>
		<contour>
			<point x="1145" y="608" type="curve" smooth="yes"/>
			<point x="1145" y="91" type="line"/>
			<point x="1696" y="91" type="line"/>
			<point x="1697" y="601" type="line" smooth="yes"/>
			<point x="1697" y="801"/>
			<point x="1553" y="909"/>
			<point x="1412" y="909" type="curve" smooth="yes"/>
			<point x="1278" y="909"/>
			<point x="1145" y="813"/>
		</contour>
	</outline>
</glyph>
<glyph name="p3" format="2">
	<unicode hex="0D2C"/>
	<advance height="2048" width="2265"/>
	<outline>
		<contour>
			<point x="80" y="459" type="curve" smooth="yes"/>
			<point x="80" y="314"/>
			<point x="122" y="144"/>
			<point x="236" y="48" type="curve" smooth="yes"/>
			<point x="296" y="-2"/>
			<point x="363" y="-24"/>
			<point x="440" y="-24" type="curve" smooth="yes"/>
			<point x="514" y="-23"/>
			<point x="590" y="2"/>
			<point x="648" y="51" type="curve" smooth="yes"/>
			<point x="715" y="108"/>
			<point x="747" y="198"/>
			<point x="750" y="286" type="curve" smooth="yes"/>
			<point x="752" y="367"/>
			<point x="729" y="446"/>
			<point x="673" y="507" type="curve" smooth="yes"/>
			<point x="615" y="571"/>
			<point x="527" y="603"/>
			<point x="442" y="600" type="curve" smooth="yes"/>
			<point x="316" y="596"/>
			<point x="228" y="523"/>
			<point x="201" y="429" type="curve"/>
			<point x="202" y="534"/>
			<point x="205" y="611"/>
			<point x="252" y="707" type="curve" smooth="yes"/>
			<point x="316" y="841"/>
			<point x="434" y="930"/>
			<point x="583" y="930" type="curve" smooth="yes"/>
			<point x="775" y="931"/>
			<point x="922" y="824"/>
			<point x="922" y="616" type="curve" smooth="yes"/>
			<point x="922" y="12" type="line" smooth="yes"/>
			<point x="922" y="-14"/>
			<point x="964" y="-24"/>
			<point x="984" y="-24" type="curve" smooth="yes"/>
			<point x="1003" y="-24"/>
			<point x="1045" y="-15"/>
			<point x="1045" y="11" type="curve" smooth="yes"/>
			<point x="1045" y="640" type="line" smooth="yes"/>
			<point x="1045" y="805"/>
			<point x="1130" y="932"/>
			<point x="1301" y="930" type="curve" smooth="yes"/>
			<point x="1514" y="928"/>
			<point x="1615" y="686"/>
			<point x="1612" y="497" type="curve" smooth="yes"/>
			<point x="1610" y="330"/>
			<point x="1543" y="133"/>
			<point x="1382" y="63" type="curve" smooth="yes"/>
			<point x="1368" y="57"/>
			<point x="1358" y="46"/>
			<point x="1357" y="35" type="curve"/>
			<point x="1357" y="7"/>
			<point x="1402" y="0"/>
			<point x="1422" y="0" type="curve" smooth="yes"/>
			<point x="2104" y="0" type="line" smooth="yes"/>
			<point x="2123" y="0"/>
			<point x="2165" y="9"/>
			<point x="2165" y="35" type="curve" smooth="yes"/>
			<point x="2165" y="964" type="line" smooth="yes"/>
			<point x="2165" y="990"/>
			<point x="2123" y="999"/>
			<point x="2104" y="999" type="curve" smooth="yes"/>
			<point x="2084" y="999"/>
			<point x="2042" y="990"/>
			<point x="2042" y="964" type="curve" smooth="yes"/>
			<point x="2042" y="70" type="line"/>
			<point x="1558" y="70" type="line"/>
			<point x="1681" y="189"/>
			<point x="1733" y="325"/>
			<point x="1735" y="497" type="curve" smooth="yes"/>
			<point x="1739" y="766"/>
			<point x="1576" y="996"/>
			<point x="1299" y="1000" type="curve" smooth="yes"/>
			<point x="1160" y="1002"/>
			<point x="1061" y="962"/>
			<point x="978" y="846" type="curve"/>
			<point x="867" y="971"/>
			<point x="745" y="1000"/>
			<point x="583" y="999" type="curve" smooth="yes"/>
			<point x="395" y="998"/>
			<point x="226" y="911"/>
			<point x="140" y="736" type="curve" smooth="yes"/>
			<point x="98" y="650"/>
			<point x="80" y="554"/>
		</contour>
		<contour>
			<point x="246" y="286" type="curve" smooth="yes"/>
			<point x="246" y="406"/>
			<point x="310" y="524"/>
			<point x="441" y="524" type="curve" smooth="yes"/>
			<point x="571" y="524"/>
			<point x="634" y="407"/>
			<point x="634" y="287" type="curve" smooth="yes"/>
			<point x="634" y="167"/>
			<point x="571" y="46"/>
			<point x="441" y="47" type="curve" smooth="yes"/>
			<point x="309" y="47"/>
			<point x="246" y="164"/>
		</contour>
	</outline>
</glyph>
<glyph name="p4" format="2">
	<unicode hex="0D2D"/>
	<advance height="2048" width="1219"/>
	<outline>
		<contour>
			<point x="526" y="31" type="curve" smooth="yes"/>
			<point x="491" y="46"/>
			<point x="485" y="75"/>
			<point x="512" y="95" type="curve" smooth="yes"/>
			<point x="540" y="114"/>
			<point x="591" y="118"/>
			<point x="627" y="102" type="curve" smooth="yes"/>
			<point x="679" y="79"/>
			<point x="749" y="73"/>
			<point x="814" y="73" type="curve" smooth="yes"/>
			<point x="932" y="73"/>
			<point x="981" y="147"/>
			<point x="980" y="207" type="curve" smooth="yes"/>
			<point x="980" y="247"/>
			<point x="957" y="276"/>
			<point x="918" y="289" type="curve" smooth="yes"/>
			<point x="846" y="313"/>
			<point x="721" y="239"/>
			<point x="590" y="307" type="curve" smooth="yes"/>
			<point x="526" y="340"/>
			<point x="492" y="410"/>
			<point x="489" y="480" type="curve" smooth="yes"/>
			<point x="486" y="561"/>
			<point x="520" y="624"/>
			<point x="576" y="658" type="curve" smooth="yes"/>
			<point x="669" y="714"/>
			<point x="780" y="674"/>
			<point x="878" y="660" type="curve" smooth="yes"/>
			<point x="930" y="653"/>
			<point x="972" y="664"/>
			<point x="980" y="719" type="curve" smooth="yes"/>
			<point x="995" y="833"/>
			<point x="833" y="920"/>
			<point x="659" y="913" type="curve" smooth="yes"/>
			<point x="463" y="905"/>
			<point x="246" y="778"/>
			<point x="243" y="434" type="curve" smooth="yes"/>
			<point x="241" y="293"/>
			<point x="286" y="152"/>
			<point x="374" y="45" type="curve" smooth="yes"/>
			<point x="393" y="22"/>
			<point x="375" y="-5"/>
			<point x="334" y="-15" type="curve" smooth="yes"/>
			<point x="293" y="-26"/>
			<point x="247" y="-19"/>
			<point x="220" y="15" type="curve" smooth="yes"/>
			<point x="129" y="132"/>
			<point x="80" y="284"/>
			<point x="80" y="434" type="curve" smooth="yes"/>
			<point x="81" y="779"/>
			<point x="322" y="1004"/>
			<point x="662" y="1004" type="curve" smooth="yes"/>
			<point x="847" y="1004"/>
			<point x="1136" y="952"/>
			<point x="1130" y="719" type="curve" smooth="yes"/>
			<point x="1125" y="574"/>
			<point x="995" y="543"/>
			<point x="876" y="560" type="curve" smooth="yes"/>
			<point x="826" y="567"/>
			<point x="754" y="589"/>
			<point x="703" y="576" type="curve" smooth="yes"/>
			<point x="655" y="565"/>
			<point x="633" y="522"/>
			<point x="635" y="480" type="curve" smooth="yes"/>
			<point x="637" y="440"/>
			<point x="660" y="401"/>
			<point x="702" y="389" type="curve" smooth="yes"/>
			<point x="782" y="365"/>
			<point x="866" y="403"/>
			<point x="950" y="399" type="curve" smooth="yes"/>
			<point x="1060" y="394"/>
			<point x="1139" y="316"/>
			<point x="1139" y="207" type="curve" smooth="yes"/>
			<point x="1140" y="44"/>
			<point x="973" y="-6"/>
			<point x="836" y="-17" type="curve" smooth="yes"/>
			<point x="728" y="-25"/>
			<point x="611" y="-7"/>
		</contour>
	</outline>
</glyph>
<glyph name="m1" format="2">
	<unicode hex="0D2E"/>
	<advance height="2048" width="1213"/>
	<outline>
		<contour>
			<point x="494" y="91" type="curve"/>
			<point x="950" y="91" type="line"/>
			<point x="950" y="572" type="line" smooth="yes"/>
			<point x="950" y="681"/>
			<point x="910" y="765"/>
			<point x="846" y="823" type="curve" smooth="yes"/>
			<point x="799" y="866"/>
			<point x="738" y="893"/>
			<point x="671" y="904" type="curve"/>
			<point x="762" y="847"/>
			<point x="804" y="749"/>
			<point x="805" y="638" type="curve" smooth="yes"/>
			<point x="805" y="573"/>
			<point x="792" y="503"/>
			<point x="766" y="435" type="curve" smooth="yes"/>
			<point x="718" y="308"/>
			<point x="627" y="182"/>
		</contour>
		<contour>
			<point x="366" y="823" type="curve" smooth="yes"/>
			<point x="303" y="766"/>
			<point x="263" y="682"/>
			<point x="263" y="572" type="curve" smooth="yes"/>
			<point x="263" y="92" type="line"/>
			<point x="413" y="155"/>
			<point x="543" y="290"/>
			<point x="605" y="446" type="curve" smooth="yes"/>
			<point x="629" y="507"/>
			<point x="643" y="571"/>
			<point x="644" y="635" type="curve" smooth="yes"/>
			<point x="645" y="736"/>
			<point x="602" y="876"/>
			<point x="479" y="872" type="curve" smooth="yes"/>
			<point x="440" y="871"/>
			<point x="400" y="853"/>
		</contour>
		<contour>
			<point x="1031" y="0" type="curve" smooth="yes"/>
			<point x="182" y="0" type="line" smooth="yes"/>
			<point x="136" y="0"/>
			<point x="100" y="20"/>
			<point x="100" y="46" type="curve" smooth="yes"/>
			<point x="100" y="572" type="line" smooth="yes"/>
			<point x="100" y="700"/>
			<point x="150" y="800"/>
			<point x="228" y="871" type="curve" smooth="yes"/>
			<point x="323" y="957"/>
			<point x="460" y="1000"/>
			<point x="607" y="1000" type="curve" smooth="yes"/>
			<point x="757" y="1000"/>
			<point x="891" y="955"/>
			<point x="984" y="871" type="curve" smooth="yes"/>
			<point x="1064" y="800"/>
			<point x="1113" y="698"/>
			<point x="1113" y="572" type="curve" smooth="yes"/>
			<point x="1113" y="46" type="line" smooth="yes"/>
			<point x="1113" y="20"/>
			<point x="1077" y="0"/>
		</contour>
	</outline>
</glyph>
<glyph name="r3" format="2">
	<unicode hex="0D30"/>
	<advance height="2048" width="1347"/>
	<outline>
		<contour>
			<point x="1022" y="724" type="curve"/>
			<point x="922" y="724"/>
			<point x="832" y="678"/>
			<point x="772" y="598" type="curve" smooth="yes"/>
			<point x="720" y="528"/>
			<point x="695" y="442"/>
			<point x="695" y="355" type="curve" smooth="yes"/>
			<point x="695" y="282"/>
			<point x="714" y="212"/>
			<point x="750" y="158" type="curve" smooth="yes"/>
			<point x="783" y="108"/>
			<point x="832" y="69"/>
			<point x="894" y="68" type="curve" smooth="yes"/>
			<point x="950" y="68"/>
			<point x="999" y="102"/>
			<point x="1040" y="169" type="curve" smooth="yes"/>
			<point x="1084" y="241"/>
			<point x="1103" y="330"/>
			<point x="1104" y="419" type="curve" smooth="yes"/>
			<point x="1106" y="527"/>
			<point x="1083" y="633"/>
		</contour>
		<contour>
			<point x="438" y="52" type="curve" smooth="yes"/>
			<point x="466" y="32"/>
			<point x="462" y="4"/>
			<point x="427" y="-12" type="curve" smooth="yes"/>
			<point x="382" y="-33"/>
			<point x="336" y="-23"/>
			<point x="297" y="5" type="curve" smooth="yes"/>
			<point x="154" y="108"/>
			<point x="78" y="269"/>
			<point x="80" y="444" type="curve" smooth="yes"/>
			<point x="81" y="547"/>
			<point x="110" y="650"/>
			<point x="162" y="738" type="curve" smooth="yes"/>
			<point x="273" y="924"/>
			<point x="465" y="999"/>
			<point x="675" y="1000" type="curve" smooth="yes"/>
			<point x="903" y="1001"/>
			<point x="1104" y="907"/>
			<point x="1208" y="699" type="curve" smooth="yes"/>
			<point x="1250" y="614"/>
			<point x="1268" y="520"/>
			<point x="1267" y="419" type="curve" smooth="yes"/>
			<point x="1266" y="320"/>
			<point x="1243" y="220"/>
			<point x="1194" y="140" type="curve" smooth="yes"/>
			<point x="1125" y="26"/>
			<point x="1013" y="-24"/>
			<point x="894" y="-23" type="curve" smooth="yes"/>
			<point x="776" y="-22"/>
			<point x="665" y="25"/>
			<point x="598" y="126" type="curve" smooth="yes"/>
			<point x="554" y="191"/>
			<point x="532" y="272"/>
			<point x="532" y="355" type="curve" smooth="yes"/>
			<point x="532" y="454"/>
			<point x="563" y="554"/>
			<point x="623" y="633" type="curve" smooth="yes"/>
			<point x="701" y="737"/>
			<point x="820" y="794"/>
			<point x="947" y="811" type="curve"/>
			<point x="868" y="881"/>
			<point x="780" y="910"/>
			<point x="676" y="909" type="curve" smooth="yes"/>
			<point x="520" y="907"/>
			<point x="398" y="847"/>
			<point x="316" y="709" type="curve" smooth="yes"/>
			<point x="268" y="629"/>
			<point x="243" y="535"/>
			<point x="242" y="441" type="curve"/>
			<point x="242" y="286"/>
			<point x="307" y="140"/>
		</contour>
	</outline>
</glyph>
<glyph name="rh" format="2">
	<unicode hex="0D31"/>
	<advance height="2048" width="1212"/>
	<outline>
		<contour>
			<point x="450" y="38" type="curve" smooth="yes"/>
			<point x="287" y="120"/>
			<point x="203" y="292"/>
			<point x="204" y="473" type="curve" smooth="yes"/>
			<point x="204" y="717"/>
			<point x="354" y="929"/>
			<point x="606" y="930" type="curve" smooth="yes"/>
			<point x="856" y="930"/>
			<point x="1003" y="713"/>
			<point x="1008" y="474" type="curve" smooth="yes"/>
			<point x="1011" y="289"/>
			<point x="927" y="121"/>
			<point x="762" y="38" type="curve" smooth="yes"/>
			<point x="753" y="33"/>
			<point x="742" y="25"/>
			<point x="741" y="13" type="curve"/>
			<point x="741" y="2"/>
			<point x="748" y="-6"/>
			<point x="757" y="-11" type="curve"/>
			<point x="770" y="-20"/>
			<point x="785" y="-24"/>
			<point x="800" y="-24" type="curve" smooth="yes"/>
			<point x="818" y="-24"/>
			<point x="836" y="-19"/>
			<point x="852" y="-10" type="curve" smooth="yes"/>
			<point x="1029" y="84"/>
			<point x="1136" y="270"/>
			<point x="1132" y="473" type="curve" smooth="yes"/>
			<point x="1126" y="768"/>
			<point x="894" y="1000"/>
			<point x="606" y="1000" type="curve" smooth="yes"/>
			<point x="315" y="1000"/>
			<point x="83" y="772"/>
			<point x="80" y="473" type="curve" smooth="yes"/>
			<point x="78" y="272"/>
			<point x="186" y="81"/>
			<point x="362" y="-11" type="curve" smooth="yes"/>
			<point x="377" y="-19"/>
			<point x="395" y="-24"/>
			<point x="413" y="-24" type="curve" smooth="yes"/>
			<point x="428" y="-24"/>
			<point x="443" y="-20"/>
			<point x="455" y="-11" type="curve"/>
			<point x="464" y="-6"/>
			<point x="471" y="2"/>
			<point x="471" y="13" type="curve"/>
			<point x="470" y="25"/>
			<point x="459" y="33"/>
		</contour>
	</outline>
</glyph>
<glyph name="lh" format="2">
  <advance height="2048" width="1327.0"/>
  <unicode hex="0D33"/>
  <outline>
    <contour>
      <point x="145.0" y="788.0" type="curve" smooth="yes"/>
      <point x="258.0" y="965.0"/>
      <point x="486.0" y="999.0"/>
      <point x="680.0" y="1000.0" type="curve" smooth="yes"/>
      <point x="823.0" y="1001.0"/>
      <point x="976.0" y="978.0"/>
      <point x="1088.0" y="912.0" type="curve" smooth="yes"/>
      <point x="1172.0" y="863.0"/>
      <point x="1235.0" y="773.0"/>
      <point x="1235.0" y="673.0" type="curve" smooth="yes"/>
      <point x="1236.0" y="579.0"/>
      <point x="1178.0" y="507.0"/>
      <point x="1096.0" y="466.0" type="curve"/>
      <point x="1185.0" y="421.0"/>
      <point x="1251.0" y="346.0"/>
      <point x="1247.0" y="232.0" type="curve" smooth="yes"/>
      <point x="1239.0" y="15.0"/>
      <point x="1013.0" y="-42.0"/>
      <point x="835.0" y="-42.0" type="curve" smooth="yes"/>
      <point x="377.0" y="-41.0" type="line" smooth="yes"/>
      <point x="305.0" y="-41.0"/>
      <point x="244.0" y="-79.0"/>
      <point x="244.0" y="-158.0" type="curve" smooth="yes"/>
      <point x="244.0" y="-233.0"/>
      <point x="306.0" y="-274.0"/>
      <point x="377.0" y="-274.0" type="curve" smooth="yes"/>
      <point x="1114.0" y="-274.0" type="line" smooth="yes"/>
      <point x="1159.0" y="-274.0"/>
      <point x="1196.0" y="-305.0"/>
      <point x="1196.0" y="-343.0" type="curve" smooth="yes"/>
      <point x="1196.0" y="-381.0"/>
      <point x="1159.0" y="-412.0"/>
      <point x="1114.0" y="-412.0" type="curve" smooth="yes"/>
      <point x="377.0" y="-412.0" type="line" smooth="yes"/>
      <point x="230.0" y="-412.0"/>
      <point x="81.0" y="-350.0"/>
      <point x="80.0" y="-183.0" type="curve" smooth="yes"/>
      <point x="79.0" y="-22.0"/>
      <point x="235.0" y="49.0"/>
      <point x="377.0" y="49.0" type="curve" smooth="yes"/>
      <point x="835.0" y="49.0" type="line" smooth="yes"/>
      <point x="957.0" y="49.0"/>
      <point x="1079.0" y="92.0"/>
      <point x="1084.0" y="232.0" type="curve" smooth="yes"/>
      <point x="1087.0" y="299.0"/>
      <point x="1056.0" y="354.0"/>
      <point x="1007.0" y="387.0" type="curve" smooth="yes"/>
      <point x="967.0" y="413.0"/>
      <point x="928.0" y="420.0"/>
      <point x="881.0" y="420.0" type="curve" smooth="yes"/>
      <point x="836.0" y="420.0"/>
      <point x="800.0" y="441.0"/>
      <point x="800.0" y="466.0" type="curve" smooth="yes"/>
      <point x="800.0" y="491.0"/>
      <point x="836.0" y="512.0"/>
      <point x="881.0" y="512.0" type="curve" smooth="yes"/>
      <point x="930.0" y="512.0"/>
      <point x="981.0" y="522.0"/>
      <point x="1020.0" y="555.0" type="curve" smooth="yes"/>
      <point x="1056.0" y="586.0"/>
      <point x="1073.0" y="629.0"/>
      <point x="1073.0" y="673.0" type="curve" smooth="yes"/>
      <point x="1073.0" y="741.0"/>
      <point x="1034.0" y="812.0"/>
      <point x="970.0" y="850.0" type="curve" smooth="yes"/>
      <point x="895.0" y="894.0"/>
      <point x="784.0" y="910.0"/>
      <point x="680.0" y="909.0" type="curve" smooth="yes"/>
      <point x="583.0" y="909.0"/>
      <point x="482.0" y="898.0"/>
      <point x="401.0" y="857.0" type="curve" smooth="yes"/>
      <point x="334.0" y="823.0"/>
      <point x="266.0" y="769.0"/>
      <point x="252.0" y="684.0" type="curve"/>
      <point x="296.0" y="721.0"/>
      <point x="350.0" y="738.0"/>
      <point x="407.0" y="740.0" type="curve" smooth="yes"/>
      <point x="484.0" y="743.0"/>
      <point x="565.0" y="722.0"/>
      <point x="625.0" y="672.0" type="curve" smooth="yes"/>
      <point x="683.0" y="625.0"/>
      <point x="718.0" y="554.0"/>
      <point x="718.0" y="463.0" type="curve" smooth="yes"/>
      <point x="718.0" y="392.0"/>
      <point x="688.0" y="327.0"/>
      <point x="640.0" y="278.0" type="curve" smooth="yes"/>
      <point x="584.0" y="223.0"/>
      <point x="501.0" y="189.0"/>
      <point x="407.0" y="188.0" type="curve" smooth="yes"/>
      <point x="308.0" y="187.0"/>
      <point x="217.0" y="217.0"/>
      <point x="154.0" y="296.0" type="curve" smooth="yes"/>
      <point x="103.0" y="360.0"/>
      <point x="79.0" y="449.0"/>
      <point x="80.0" y="550.0" type="curve" smooth="yes"/>
      <point x="81.0" y="633.0"/>
      <point x="100.0" y="718.0"/>
    </contour>
    <contour>
      <point x="254.0" y="463.0" type="curve" smooth="yes"/>
      <point x="254.0" y="340.0"/>
      <point x="331.0" y="281.0"/>
      <point x="407.0" y="283.0" type="curve" smooth="yes"/>
      <point x="481.0" y="285.0"/>
      <point x="555.0" y="346.0"/>
      <point x="555.0" y="463.0" type="curve" smooth="yes"/>
      <point x="555.0" y="585.0"/>
      <point x="481.0" y="645.0"/>
      <point x="407.0" y="643.0" type="curve" smooth="yes"/>
      <point x="331.0" y="642.0"/>
      <point x="254.0" y="582.0"/>
    </contour>
  </outline>
</glyph>
<glyph name="sh" format="2">
	<unicode hex="0D37"/>
	<advance height="2048" width="1917"/>
	<outline>
		<contour>
			<point x="369" y="69" type="curve" smooth="yes"/>
			<point x="404" y="53"/>
			<point x="410" y="25"/>
			<point x="382" y="5" type="curve" smooth="yes"/>
			<point x="349" y="-17"/>
			<point x="298" y="-16"/>
			<point x="263" y="0" type="curve" smooth="yes"/>
			<point x="159" y="50"/>
			<point x="100" y="149"/>
			<point x="100" y="264" type="curve" smooth="yes"/>
			<point x="100" y="460"/>
			<point x="276" y="563"/>
			<point x="452" y="563" type="curve" smooth="yes"/>
			<point x="627" y="562"/>
			<point x="802" y="460"/>
			<point x="802" y="264" type="curve" smooth="yes"/>
			<point x="802" y="200"/>
			<point x="784" y="140"/>
			<point x="750" y="92" type="curve"/>
			<point x="1208" y="92" type="line"/>
			<point x="1208" y="362" type="line"/>
			<point x="1103" y="366"/>
			<point x="1004" y="397"/>
			<point x="924" y="467" type="curve" smooth="yes"/>
			<point x="847" y="534"/>
			<point x="798" y="628"/>
			<point x="812" y="732" type="curve" smooth="yes"/>
			<point x="834" y="899"/>
			<point x="1000" y="975"/>
			<point x="1156" y="951" type="curve" smooth="yes"/>
			<point x="1281" y="931"/>
			<point x="1372" y="850"/>
			<point x="1372" y="719" type="curve"/>
			<point x="1371" y="473" type="line"/>
			<point x="1520" y="547"/>
			<point x="1655" y="780"/>
			<point x="1654" y="955" type="curve" smooth="yes"/>
			<point x="1654" y="980"/>
			<point x="1691" y="1000"/>
			<point x="1736" y="1000" type="curve" smooth="yes"/>
			<point x="1781" y="1000"/>
			<point x="1817" y="980"/>
			<point x="1817" y="955" type="curve" smooth="yes"/>
			<point x="1817" y="46" type="line" smooth="yes"/>
			<point x="1817" y="21"/>
			<point x="1781" y="1"/>
			<point x="1736" y="1" type="curve" smooth="yes"/>
			<point x="606" y="1" type="line" smooth="yes"/>
			<point x="561" y="1"/>
			<point x="525" y="21"/>
			<point x="525" y="46" type="curve" smooth="yes"/>
			<point x="525" y="60"/>
			<point x="536" y="72"/>
			<point x="548" y="78" type="curve"/>
			<point x="613" y="116"/>
			<point x="639" y="193"/>
			<point x="639" y="264" type="curve" smooth="yes"/>
			<point x="639" y="398"/>
			<point x="546" y="472"/>
			<point x="452" y="472" type="curve" smooth="yes"/>
			<point x="358" y="472"/>
			<point x="263" y="399"/>
			<point x="263" y="264" type="curve" smooth="yes"/>
			<point x="263" y="187"/>
			<point x="296" y="103"/>
		</contour>
		<contour>
			<point x="1371" y="92" type="line"/>
			<point x="1654" y="92" type="line"/>
			<point x="1654" y="656" type="line"/>
			<point x="1599" y="545"/>
			<point x="1514" y="441"/>
			<point x="1371" y="381" type="curve"/>
		</contour>
		<contour>
			<point x="1209" y="453" type="curve"/>
			<point x="1209" y="719" type="line" smooth="yes"/>
			<point x="1209" y="780"/>
			<point x="1178" y="853"/>
			<point x="1112" y="863" type="curve" smooth="yes"/>
			<point x="1037" y="875"/>
			<point x="982" y="791"/>
			<point x="974" y="726" type="curve" smooth="yes"/>
			<point x="969" y="686"/>
			<point x="975" y="642"/>
			<point x="996" y="599" type="curve" smooth="yes"/>
			<point x="1035" y="518"/>
			<point x="1119" y="459"/>
		</contour>
	</outline>
</glyph>
<glyph name="h1" format="2">
	<unicode hex="0D39"/>
	<advance height="2048" width="2025"/>
	<outline>
		<contour>
			<point x="1575" y="49" type="curve" smooth="yes"/>
			<point x="1565" y="44"/>
			<point x="1555" y="36"/>
			<point x="1554" y="24" type="curve"/>
			<point x="1554" y="14"/>
			<point x="1561" y="5"/>
			<point x="1569" y="0" type="curve" smooth="yes"/>
			<point x="1582" y="-8"/>
			<point x="1597" y="-12"/>
			<point x="1612" y="-12" type="curve" smooth="yes"/>
			<point x="1630" y="-12"/>
			<point x="1648" y="-7"/>
			<point x="1663" y="0" type="curve" smooth="yes"/>
			<point x="1838" y="91"/>
			<point x="1947" y="279"/>
			<point x="1945" y="480" type="curve" smooth="yes"/>
			<point x="1942" y="778"/>
			<point x="1707" y="1000"/>
			<point x="1419" y="1000" type="curve" smooth="yes"/>
			<point x="1135" y="1000"/>
			<point x="899" y="791"/>
			<point x="893" y="494" type="curve" smooth="yes"/>
			<point x="889" y="321"/>
			<point x="958" y="184"/>
			<point x="1084" y="71" type="curve"/>
			<point x="680" y="71" type="line"/>
			<point x="723" y="132"/>
			<point x="742" y="183"/>
			<point x="742" y="259" type="curve" smooth="yes"/>
			<point x="742" y="447"/>
			<point x="583" y="553"/>
			<point x="412" y="553" type="curve" smooth="yes"/>
			<point x="241" y="553"/>
			<point x="80" y="448"/>
			<point x="80" y="260" type="curve" smooth="yes"/>
			<point x="80" y="147"/>
			<point x="135" y="46"/>
			<point x="236" y="-2" type="curve" smooth="yes"/>
			<point x="250" y="-9"/>
			<point x="268" y="-13"/>
			<point x="285" y="-12" type="curve" smooth="yes"/>
			<point x="300" y="-11"/>
			<point x="315" y="-7"/>
			<point x="326" y="1" type="curve" smooth="yes"/>
			<point x="334" y="7"/>
			<point x="341" y="15"/>
			<point x="340" y="25" type="curve" smooth="yes"/>
			<point x="339" y="38"/>
			<point x="327" y="46"/>
			<point x="317" y="51" type="curve" smooth="yes"/>
			<point x="238" y="87"/>
			<point x="203" y="175"/>
			<point x="203" y="259" type="curve" smooth="yes"/>
			<point x="203" y="384"/>
			<point x="287" y="483"/>
			<point x="412" y="483" type="curve" smooth="yes"/>
			<point x="538" y="482"/>
			<point x="619" y="383"/>
			<point x="619" y="259" type="curve" smooth="yes"/>
			<point x="619" y="181"/>
			<point x="591" y="102"/>
			<point x="522" y="61" type="curve" smooth="yes"/>
			<point x="514" y="56"/>
			<point x="505" y="47"/>
			<point x="505" y="36" type="curve" smooth="yes"/>
			<point x="505" y="9"/>
			<point x="547" y="1"/>
			<point x="567" y="1" type="curve" smooth="yes"/>
			<point x="1224" y="1" type="line" smooth="yes"/>
			<point x="1243" y="1"/>
			<point x="1285" y="10"/>
			<point x="1284" y="36" type="curve" smooth="yes"/>
			<point x="1283" y="48"/>
			<point x="1272" y="56"/>
			<point x="1263" y="61" type="curve" smooth="yes"/>
			<point x="1099" y="143"/>
			<point x="1014" y="311"/>
			<point x="1017" y="494" type="curve" smooth="yes"/>
			<point x="1021" y="735"/>
			<point x="1173" y="931"/>
			<point x="1419" y="931" type="curve" smooth="yes"/>
			<point x="1669" y="930"/>
			<point x="1821" y="723"/>
			<point x="1821" y="480" type="curve" smooth="yes"/>
			<point x="1822" y="299"/>
			<point x="1737" y="130"/>
		</contour>
	</outline>
</glyph>
<glyph name="a2" format="2">
	<unicode hex="0D3E"/>
	<advance height="2048" width="870"/>
	<outline>
		<contour>
			<point x="203" y="701" type="curve" smooth="yes"/>
			<point x="206" y="766"/>
			<point x="229" y="826"/>
			<point x="275" y="871" type="curve" smooth="yes"/>
			<point x="310" y="905"/>
			<point x="357" y="930"/>
			<point x="406" y="929" type="curve" smooth="yes"/>
			<point x="483" y="928"/>
			<point x="541" y="882"/>
			<point x="583" y="820" type="curve" smooth="yes"/>
			<point x="646" y="726"/>
			<point x="667" y="600"/>
			<point x="667" y="488" type="curve" smooth="yes"/>
			<point x="667" y="378"/>
			<point x="648" y="255"/>
			<point x="589" y="160" type="curve" smooth="yes"/>
			<point x="548" y="96"/>
			<point x="483" y="46"/>
			<point x="406" y="47" type="curve" smooth="yes"/>
			<point x="353" y="48"/>
			<point x="314" y="72"/>
			<point x="277" y="108" type="curve" smooth="yes"/>
			<point x="232" y="153"/>
			<point x="207" y="211"/>
			<point x="203" y="276" type="curve" smooth="yes"/>
			<point x="201" y="302"/>
			<point x="159" y="310"/>
			<point x="139" y="309" type="curve" smooth="yes"/>
			<point x="120" y="309"/>
			<point x="78" y="299"/>
			<point x="80" y="273" type="curve" smooth="yes"/>
			<point x="85" y="196"/>
			<point x="117" y="126"/>
			<point x="171" y="73" type="curve" smooth="yes"/>
			<point x="236" y="10"/>
			<point x="316" y="-24"/>
			<point x="406" y="-24" type="curve" smooth="yes"/>
			<point x="523" y="-23"/>
			<point x="640" y="35"/>
			<point x="704" y="137" type="curve" smooth="yes"/>
			<point x="767" y="236"/>
			<point x="790" y="371"/>
			<point x="790" y="488" type="curve" smooth="yes"/>
			<point x="790" y="609"/>
			<point x="765" y="743"/>
			<point x="697" y="845" type="curve" smooth="yes"/>
			<point x="632" y="942"/>
			<point x="520" y="999"/>
			<point x="406" y="1000" type="curve" smooth="yes"/>
			<point x="317" y="1001"/>
			<point x="232" y="969"/>
			<point x="169" y="906" type="curve" smooth="yes"/>
			<point x="114" y="852"/>
			<point x="84" y="781"/>
			<point x="81" y="703" type="curve" smooth="yes"/>
			<point x="80" y="677"/>
			<point x="121" y="667"/>
			<point x="141" y="667" type="curve" smooth="yes"/>
			<point x="160" y="667"/>
			<point x="202" y="675"/>
		</contour>
	</outline>
</glyph>
<glyph name="i1" format="2">
	<unicode hex="0D3F"/>
	<advance height="2048" width="320"/>
	<outline>
		<contour>
			<point x="-147" y="1131" type="curve" smooth="yes"/>
			<point x="-148" y="1142"/>
			<point x="-149" y="1155"/>
			<point x="-149" y="1167" type="curve" smooth="yes"/>
			<point x="-148" y="1244"/>
			<point x="-109" y="1313"/>
			<point x="-26" y="1312" type="curve" smooth="yes"/>
			<point x="80" y="1312"/>
			<point x="97" y="1223"/>
			<point x="97" y="1133" type="curve" smooth="yes"/>
			<point x="97" y="11" type="line" smooth="yes"/>
			<point x="97" y="-15"/>
			<point x="139" y="-24"/>
			<point x="158" y="-24" type="curve" smooth="yes"/>
			<point x="178" y="-24"/>
			<point x="220" y="-15"/>
			<point x="220" y="11" type="curve" smooth="yes"/>
			<point x="220" y="1133" type="line" smooth="yes"/>
			<point x="220" y="1281"/>
			<point x="121" y="1380"/>
			<point x="-23" y="1381" type="curve" smooth="yes"/>
			<point x="-168" y="1382"/>
			<point x="-273" y="1287"/>
			<point x="-270" y="1137" type="curve" smooth="yes"/>
			<point x="-269" y="1107"/>
			<point x="-241" y="1099"/>
			<point x="-216" y="1099" type="curve" smooth="yes"/>
			<point x="-197" y="1099"/>
			<point x="-144" y="1106"/>
		</contour>
	</outline>
</glyph>
<glyph name="u1" format="2">
	<unicode hex="0D41"/>
	<advance height="2048" width="560"/>
	<outline>
		<contour>
			<point x="316" y="65" type="curve"/>
			<point x="387" y="214"/>
			<point x="434" y="390"/>
			<point x="441" y="555" type="curve" smooth="yes"/>
			<point x="446" y="669"/>
			<point x="430" y="781"/>
			<point x="376" y="865" type="curve" smooth="yes"/>
			<point x="330" y="936"/>
			<point x="239" y="997"/>
			<point x="153" y="999" type="curve" smooth="yes"/>
			<point x="132" y="999"/>
			<point x="88" y="992"/>
			<point x="92" y="962" type="curve" smooth="yes"/>
			<point x="94" y="945"/>
			<point x="117" y="935"/>
			<point x="132" y="932" type="curve" smooth="yes"/>
			<point x="203" y="917"/>
			<point x="248" y="872"/>
			<point x="277" y="814" type="curve" smooth="yes"/>
			<point x="314" y="737"/>
			<point x="322" y="637"/>
			<point x="318" y="555" type="curve" smooth="yes"/>
			<point x="311" y="396"/>
			<point x="264" y="216"/>
			<point x="192" y="72" type="curve"/>
			<point x="78" y="51"/>
			<point x="0" y="-44"/>
			<point x="0" y="-173" type="curve" smooth="yes"/>
			<point x="0" y="-320"/>
			<point x="101" y="-423"/>
			<point x="240" y="-423" type="curve" smooth="yes"/>
			<point x="380" y="-423"/>
			<point x="480" y="-320"/>
			<point x="480" y="-173" type="curve" smooth="yes"/>
			<point x="480" y="-55"/>
			<point x="415" y="35"/>
		</contour>
		<contour>
			<point x="376" y="-173" type="curve" smooth="yes"/>
			<point x="376" y="-261"/>
			<point x="337" y="-357"/>
			<point x="240" y="-357" type="curve" smooth="yes"/>
			<point x="144" y="-357"/>
			<point x="104" y="-261"/>
			<point x="104" y="-173" type="curve" smooth="yes"/>
			<point x="104" y="-86"/>
			<point x="143" y="11"/>
			<point x="240" y="11" type="curve" smooth="yes"/>
			<point x="337" y="11"/>
			<point x="376" y="-85"/>
		</contour>
	</outline>
</glyph>
<glyph name="u2" format="2">
	<unicode hex="0D42"/>
	<advance height="2048" width="792"/>
	<outline>
		<contour>
			<point x="522" y="-182" type="curve" smooth="yes"/>
			<point x="522" y="-345"/>
			<point x="392" y="-427"/>
			<point x="262" y="-427" type="curve" smooth="yes"/>
			<point x="92" y="-428"/>
			<point x="5" y="-305"/>
			<point x="0" y="-182" type="curve" smooth="yes"/>
			<point x="-3" y="-95"/>
			<point x="35" y="-9"/>
			<point x="115" y="45" type="curve" smooth="yes"/>
			<point x="141" y="62"/>
			<point x="170" y="74"/>
			<point x="202" y="81" type="curve"/>
			<point x="241" y="159"/>
			<point x="280" y="268"/>
			<point x="304" y="384" type="curve" smooth="yes"/>
			<point x="326" y="490"/>
			<point x="335" y="601"/>
			<point x="319" y="696" type="curve" smooth="yes"/>
			<point x="304" y="784"/>
			<point x="268" y="857"/>
			<point x="204" y="894" type="curve"/>
			<point x="188" y="902"/>
			<point x="171" y="909"/>
			<point x="153" y="912" type="curve" smooth="yes"/>
			<point x="111" y="921"/>
			<point x="89" y="947"/>
			<point x="104" y="971" type="curve" smooth="yes"/>
			<point x="127" y="1006"/>
			<point x="188" y="1003"/>
			<point x="224" y="994" type="curve" smooth="yes"/>
			<point x="373" y="958"/>
			<point x="455" y="855"/>
			<point x="480" y="704" type="curve" smooth="yes"/>
			<point x="498" y="602"/>
			<point x="489" y="485"/>
			<point x="466" y="374" type="curve" smooth="yes"/>
			<point x="445" y="269"/>
			<point x="411" y="169"/>
			<point x="376" y="91" type="curve"/>
			<point x="554" y="70"/>
			<point x="696" y="-51"/>
			<point x="692" y="-255" type="curve" smooth="yes"/>
			<point x="688" y="-471"/>
			<point x="503" y="-596"/>
			<point x="294" y="-596" type="curve" smooth="yes"/>
			<point x="221" y="-596"/>
			<point x="146" y="-583"/>
			<point x="81" y="-551" type="curve" smooth="yes"/>
			<point x="52" y="-537"/>
			<point x="50" y="-513"/>
			<point x="76" y="-498" type="curve" smooth="yes"/>
			<point x="101" y="-482"/>
			<point x="146" y="-481"/>
			<point x="174" y="-495" type="curve" smooth="yes"/>
			<point x="212" y="-513"/>
			<point x="252" y="-520"/>
			<point x="294" y="-520" type="curve" smooth="yes"/>
			<point x="450" y="-520"/>
			<point x="553" y="-404"/>
			<point x="560" y="-255" type="curve" smooth="yes"/>
			<point x="563" y="-180"/>
			<point x="540" y="-100"/>
			<point x="485" y="-47" type="curve"/>
			<point x="508" y="-83"/>
			<point x="522" y="-128"/>
		</contour>
		<contour>
			<point x="379" y="-182" type="curve" smooth="yes"/>
			<point x="379" y="-72"/>
			<point x="320" y="-12"/>
			<point x="262" y="-12" type="curve" smooth="yes"/>
			<point x="204" y="-12"/>
			<point x="145" y="-72"/>
			<point x="145" y="-182" type="curve" smooth="yes"/>
			<point x="145" y="-292"/>
			<point x="204" y="-348"/>
			<point x="262" y="-348" type="curve" smooth="yes"/>
			<point x="320" y="-348"/>
			<point x="379" y="-292"/>
		</contour>
	</outline>
</glyph>
<glyph name="e1" format="2">
	<unicode hex="0D46"/>
	<advance height="2048" width="1334"/>
	<outline>
		<contour>
			<point x="100" y="460" type="curve" smooth="yes"/>
			<point x="100" y="817"/>
			<point x="379" y="994"/>
			<point x="661" y="1000" type="curve" smooth="yes"/>
			<point x="949" y="1006"/>
			<point x="1249" y="833"/>
			<point x="1254" y="473" type="curve" smooth="yes"/>
			<point x="1256" y="284"/>
			<point x="1172" y="90"/>
			<point x="1007" y="-6" type="curve" smooth="yes"/>
			<point x="971" y="-27"/>
			<point x="922" y="-32"/>
			<point x="883" y="-10" type="curve" smooth="yes"/>
			<point x="851" y="8"/>
			<point x="851" y="37"/>
			<point x="883" y="54" type="curve" smooth="yes"/>
			<point x="1029" y="134"/>
			<point x="1103" y="306"/>
			<point x="1096" y="473" type="curve" smooth="yes"/>
			<point x="1090" y="619"/>
			<point x="1030" y="743"/>
			<point x="935" y="821" type="curve" smooth="yes"/>
			<point x="867" y="878"/>
			<point x="776" y="911"/>
			<point x="664" y="910" type="curve" smooth="yes"/>
			<point x="424" y="910"/>
			<point x="263" y="727"/>
			<point x="261" y="490" type="curve"/>
			<point x="313" y="565"/>
			<point x="391" y="606"/>
			<point x="481" y="609" type="curve" smooth="yes"/>
			<point x="578" y="612"/>
			<point x="671" y="575"/>
			<point x="731" y="511" type="curve" smooth="yes"/>
			<point x="785" y="454"/>
			<point x="812" y="378"/>
			<point x="810" y="290" type="curve" smooth="yes"/>
			<point x="807" y="201"/>
			<point x="773" y="111"/>
			<point x="704" y="53" type="curve" smooth="yes"/>
			<point x="646" y="5"/>
			<point x="565" y="-23"/>
			<point x="481" y="-24" type="curve" smooth="yes"/>
			<point x="398" y="-25"/>
			<point x="324" y="-2"/>
			<point x="259" y="51" type="curve" smooth="yes"/>
			<point x="148" y="143"/>
			<point x="100" y="304"/>
		</contour>
		<contour>
			<point x="306" y="290" type="curve" smooth="yes"/>
			<point x="306" y="142"/>
			<point x="391" y="67"/>
			<point x="481" y="67" type="curve" smooth="yes"/>
			<point x="565" y="67"/>
			<point x="654" y="141"/>
			<point x="655" y="290" type="curve" smooth="yes"/>
			<point x="655" y="438"/>
			<point x="568" y="512"/>
			<point x="481" y="512" type="curve" smooth="yes"/>
			<point x="394" y="512"/>
			<point x="306" y="438"/>
		</contour>
	</outline>
</glyph>
<glyph name="m1cil" format="2">
	<unicode hex="0D54"/>
	<advance height="2048" width="1173"/>
	<outline>
		<contour>
			<point x="431" y="70" type="line"/>
			<point x="564" y="163"/>
			<point x="677" y="291"/>
			<point x="731" y="442" type="curve" smooth="yes"/>
			<point x="753" y="505"/>
			<point x="765" y="572"/>
			<point x="765" y="641" type="curve" smooth="yes"/>
			<point x="764" y="793"/>
			<point x="694" y="895"/>
			<point x="595" y="933" type="curve"/>
			<point x="682" y="924"/>
			<point x="766" y="907"/>
			<point x="843" y="837" type="curve" smooth="yes"/>
			<point x="911" y="774"/>
			<point x="950" y="682"/>
			<point x="950" y="573" type="curve" smooth="yes"/>
			<point x="950" y="70" type="line"/>
		</contour>
		<contour>
			<point x="889" y="1218" type="curve"/>
			<point x="832" y="1324"/>
			<point x="716" y="1378"/>
			<point x="599" y="1380" type="curve" smooth="yes"/>
			<point x="457" y="1382"/>
			<point x="319" y="1314"/>
			<point x="318" y="1153" type="curve"/>
			<point x="318" y="1066"/>
			<point x="369" y="1009"/>
			<point x="427" y="980" type="curve"/>
			<point x="352" y="960"/>
			<point x="282" y="926"/>
			<point x="225" y="873" type="curve" smooth="yes"/>
			<point x="140" y="795"/>
			<point x="100" y="690"/>
			<point x="100" y="573" type="curve" smooth="yes"/>
			<point x="100" y="35" type="line" smooth="yes"/>
			<point x="100" y="9"/>
			<point x="142" y="0"/>
			<point x="162" y="0" type="curve" smooth="yes"/>
			<point x="1011" y="0" type="line" smooth="yes"/>
			<point x="1031" y="0"/>
			<point x="1073" y="9"/>
			<point x="1073" y="35" type="curve" smooth="yes"/>
			<point x="1073" y="573" type="line" smooth="yes"/>
			<point x="1073" y="690"/>
			<point x="1033" y="795"/>
			<point x="947" y="874" type="curve" smooth="yes"/>
			<point x="859" y="955"/>
			<point x="741" y="988"/>
			<point x="624" y="999" type="curve" smooth="yes"/>
			<point x="531" y="1007"/>
			<point x="441" y="1037"/>
			<point x="441" y="1153" type="curve" smooth="yes"/>
			<point x="441" y="1245"/>
			<point x="507" y="1314"/>
			<point x="600" y="1311" type="curve" smooth="yes"/>
			<point x="674" y="1308"/>
			<point x="737" y="1262"/>
			<point x="771" y="1198" type="curve" smooth="yes"/>
			<point x="781" y="1181"/>
			<point x="808" y="1174"/>
			<point x="831" y="1174" type="curve" smooth="yes"/>
			<point x="837" y="1174"/>
			<point x="843" y="1175"/>
			<point x="848" y="1176" type="curve"/>
			<point x="864" y="1178"/>
			<point x="892" y="1190"/>
			<point x="892" y="1208" type="curve" smooth="yes"/>
			<point x="892" y="1211"/>
			<point x="891" y="1215"/>
		</contour>
		<contour>
			<point x="329" y="836" type="curve" smooth="yes"/>
			<point x="367" y="871"/>
			<point x="414" y="892"/>
			<point x="465" y="892" type="curve" smooth="yes"/>
			<point x="596" y="891"/>
			<point x="645" y="754"/>
			<point x="644" y="638" type="curve" smooth="yes"/>
			<point x="643" y="573"/>
			<point x="632" y="511"/>
			<point x="612" y="455" type="curve" smooth="yes"/>
			<point x="549" y="280"/>
			<point x="402" y="148"/>
			<point x="223" y="70" type="curve"/>
			<point x="223" y="573" type="line" smooth="yes"/>
			<point x="223" y="674"/>
			<point x="255" y="768"/>
		</contour>
	</outline>
</glyph>
<glyph name="y1cil" format="2">
	<unicode hex="0D55"/>
	<advance height="2048" width="2073"/>
	<outline>
		<contour>
			<point x="743" y="551" type="curve" smooth="yes"/>
			<point x="754" y="386"/>
			<point x="806" y="236"/>
			<point x="947" y="136" type="curve"/>
			<point x="1083" y="226"/>
			<point x="1155" y="391"/>
			<point x="1163" y="551" type="curve" smooth="yes"/>
			<point x="1175" y="792"/>
			<point x="1058" y="910"/>
			<point x="947" y="910" type="curve" smooth="yes"/>
			<point x="834" y="910"/>
			<point x="728" y="784"/>
		</contour>
		<contour>
			<point x="1729" y="551" type="curve" smooth="yes"/>
			<point x="1728" y="442"/>
			<point x="1702" y="330"/>
			<point x="1650" y="239" type="curve" smooth="yes"/>
			<point x="1555" y="70"/>
			<point x="1372" y="-22"/>
			<point x="1180" y="-22" type="curve" smooth="yes"/>
			<point x="1093" y="-23"/>
			<point x="1016" y="-9"/>
			<point x="947" y="15" type="curve"/>
			<point x="876" y="-10"/>
			<point x="794" y="-24"/>
			<point x="704" y="-23" type="curve" smooth="yes"/>
			<point x="523" y="-22"/>
			<point x="360" y="26"/>
			<point x="237" y="167" type="curve" smooth="yes"/>
			<point x="148" y="269"/>
			<point x="103" y="416"/>
			<point x="100" y="551" type="curve" smooth="yes"/>
			<point x="98" y="656"/>
			<point x="120" y="759"/>
			<point x="169" y="843" type="curve" smooth="yes"/>
			<point x="227" y="942"/>
			<point x="342" y="1000"/>
			<point x="451" y="1000" type="curve" smooth="yes"/>
			<point x="560" y="1001"/>
			<point x="640" y="958"/>
			<point x="687" y="861" type="curve"/>
			<point x="744" y="953"/>
			<point x="841" y="1000"/>
			<point x="947" y="1000" type="curve" smooth="yes"/>
			<point x="1136" y="1000"/>
			<point x="1340" y="851"/>
			<point x="1326" y="551" type="curve" smooth="yes"/>
			<point x="1316" y="364"/>
			<point x="1233" y="185"/>
			<point x="1077" y="80" type="curve"/>
			<point x="1109" y="72"/>
			<point x="1144" y="68"/>
			<point x="1180" y="68" type="curve" smooth="yes"/>
			<point x="1313" y="68"/>
			<point x="1432" y="154"/>
			<point x="1495" y="266" type="curve" smooth="yes"/>
			<point x="1542" y="349"/>
			<point x="1566" y="451"/>
			<point x="1567" y="551" type="curve" smooth="yes"/>
			<point x="1569" y="839"/>
			<point x="1366" y="913"/>
			<point x="1368" y="1149" type="curve" smooth="yes"/>
			<point x="1369" y="1204"/>
			<point x="1383" y="1249"/>
			<point x="1413" y="1285" type="curve" smooth="yes"/>
			<point x="1472" y="1353"/>
			<point x="1569" y="1381"/>
			<point x="1658" y="1381" type="curve" smooth="yes"/>
			<point x="1782" y="1381"/>
			<point x="1908" y="1324"/>
			<point x="1969" y="1211" type="curve" smooth="yes"/>
			<point x="1982" y="1187"/>
			<point x="1958" y="1162"/>
			<point x="1915" y="1154" type="curve" smooth="yes"/>
			<point x="1872" y="1147"/>
			<point x="1827" y="1161"/>
			<point x="1814" y="1185" type="curve" smooth="yes"/>
			<point x="1782" y="1243"/>
			<point x="1725" y="1289"/>
			<point x="1656" y="1289" type="curve" smooth="yes"/>
			<point x="1618" y="1289"/>
			<point x="1585" y="1274"/>
			<point x="1560" y="1245" type="curve" smooth="yes"/>
			<point x="1541" y="1222"/>
			<point x="1528" y="1191"/>
			<point x="1527" y="1153" type="curve" smooth="yes"/>
			<point x="1523" y="1065"/>
			<point x="1567" y="990"/>
			<point x="1612" y="917" type="curve" smooth="yes"/>
			<point x="1690" y="791"/>
			<point x="1730" y="712"/>
		</contour>
		<contour>
			<point x="704" y="68" type="curve" smooth="yes"/>
			<point x="746" y="68"/>
			<point x="784" y="72"/>
			<point x="820" y="81" type="curve"/>
			<point x="661" y="193"/>
			<point x="596" y="365"/>
			<point x="582" y="551" type="curve" smooth="yes"/>
			<point x="579" y="598"/>
			<point x="584" y="683"/>
			<point x="572" y="758" type="curve" smooth="yes"/>
			<point x="559" y="839"/>
			<point x="530" y="910"/>
			<point x="451" y="910" type="curve" smooth="yes"/>
			<point x="408" y="910"/>
			<point x="361" y="879"/>
			<point x="323" y="815" type="curve" smooth="yes"/>
			<point x="280" y="740"/>
			<point x="260" y="646"/>
			<point x="263" y="551" type="curve" smooth="yes"/>
			<point x="266" y="431"/>
			<point x="304" y="298"/>
			<point x="384" y="207" type="curve" smooth="yes"/>
			<point x="472" y="106"/>
			<point x="572" y="68"/>
		</contour>
	</outline>
</glyph>
